<svg width="47" height="48" viewBox="0 0 47 48" fill="none" xmlns="http://www.w3.org/2000/svg">
<g clip-path="url(#clip0_178_535)">
<mask id="mask0_178_535" style="mask-type:luminance" maskUnits="userSpaceOnUse" x="0" y="0" width="47" height="48">
<path d="M47 0H0V48H47V0Z" fill="white"/>
</mask>
<g mask="url(#mask0_178_535)">
<path fill-rule="evenodd" clip-rule="evenodd" d="M4.32508 24.1013C1.95468 24.582 0.167851 26.718 0.167851 29.28L0.16785 42.72C0.16785 45.636 2.48254 48 5.33786 48H18.4979C21.0654 48 23.1959 46.0884 23.5992 43.5828C24.0699 46.0037 26.1614 47.8286 28.67 47.8286H41.83C44.6852 47.8286 47 45.4646 47 42.5486V29.1086C47 26.4864 45.1282 24.3106 42.6751 23.8987C45.0453 23.4179 46.8322 21.282 46.8322 18.72V5.28C46.8322 2.36394 44.5175 7.14946e-07 41.6622 5.87482e-07L28.5022 0C25.9346 -1.1462e-07 23.8041 1.91151 23.4009 4.4171C22.9301 1.99627 20.8387 0.171427 18.33 0.171427H5.17C2.31469 0.171427 0 2.53536 0 5.45143V18.8914C0 21.5136 1.87169 23.6894 4.32508 24.1013Z" fill="#231F20"/>
</g>
</g>
<defs>
<clipPath id="clip0_178_535">
<rect width="47" height="48" fill=""/>
</clipPath>
</defs>
</svg>
