<svg width="22" height="22" viewBox="0 0 22 22" fill="none" xmlns="http://www.w3.org/2000/svg">
<g clip-path="url(#clip0_178_821)">
<mask id="mask0_178_821" style="mask-type:luminance" maskUnits="userSpaceOnUse" x="0" y="0" width="22" height="22">
<path d="M22 0H0V22H22V0Z" fill="white"/>
</mask>
<g mask="url(#mask0_178_821)">
<path d="M7.87136 1.79682C9.27701 -0.598939 12.7407 -0.598938 14.1463 1.79682L14.1974 1.88383C14.8459 2.98906 16.028 3.67158 17.3094 3.68056L17.4104 3.68126C20.188 3.70071 21.9198 6.70035 20.5478 9.11556L20.4979 9.20327C19.865 10.3175 19.865 11.6825 20.4979 12.7967L20.5478 12.8844C21.9198 15.2997 20.188 18.2993 17.4104 18.3187L17.3094 18.3194C16.028 18.3284 14.8459 19.011 14.1974 20.1161L14.1463 20.2031C12.7407 22.5989 9.27701 22.5989 7.87136 20.2031L7.82031 20.1161C7.17184 19.011 5.98968 18.3284 4.70829 18.3194L4.60741 18.3187C1.8298 18.2993 0.0979572 15.2997 1.46991 12.8844L1.51974 12.7967C2.15267 11.6825 2.15267 10.3175 1.51974 9.20327L1.46991 9.11556C0.0979572 6.70035 1.8298 3.70071 4.60741 3.68126L4.70829 3.68056C5.98969 3.67158 7.17184 2.98906 7.82031 1.88383L7.87136 1.79682Z" fill="#276692"/>
</g>
</g>
<defs>
<clipPath id="clip0_178_821">
<rect width="22" height="22" fill="white"/>
</clipPath>
</defs>
</svg>
