<svg width="138" height="39" viewBox="0 0 138 39" fill="none" xmlns="http://www.w3.org/2000/svg">
<g opacity="0.25">
<mask id="mask0_178_608" style="mask-type:alpha" maskUnits="userSpaceOnUse" x="0" y="0" width="138" height="138">
<mask id="path-1-outside-1_178_608" maskUnits="userSpaceOnUse" x="0.5" y="0" width="138" height="138" fill="black">
<rect fill="white" x="0.5" width="138" height="138"/>
<path d="M103.467 69.4458L137.5 73.7489L103.199 73.7153L136.425 82.2542L102.392 77.9511L134.308 90.5914L101.048 82.0525L131.15 98.5925L99.2343 85.9186L127.018 106.123L96.9162 89.5493L121.945 113.048L94.1949 92.8774L116.066 119.335L91.0705 95.8022L109.447 124.814L87.5765 98.3235L102.191 129.42L83.8138 100.408L94.4301 133.084L79.8159 101.988L86.2663 135.74L75.65 103.064L77.8337 137.354L71.4169 103.602L69.2668 137.892L67.1167 103.602L60.6999 137.354L62.85 103.064L52.2673 135.74L58.6841 101.988L44.0699 133.084L54.6862 100.408L36.3093 129.42L50.9235 98.3235L29.0526 124.814L47.4631 95.8022L22.4342 119.335L44.3387 92.8774L16.5549 113.048L41.5838 89.5493L11.5155 106.123L39.2993 85.9186L7.38321 98.5925L37.4515 82.0525L4.2252 90.5914L36.1413 77.9511L2.07506 82.2542L35.335 73.7153L1 73.7489L35.0662 69.4458L1 65.1428H35.335L2.07506 56.6038L36.1413 60.9405L4.2252 48.3002L37.4515 56.8392L7.38321 40.2992L39.2993 52.9731L11.5155 32.7688L41.5838 49.3424L16.5549 25.8099L44.3387 46.0142L22.4342 19.557L47.4631 43.0895L29.0526 14.0773L50.9235 40.5681L36.3093 9.47169L54.6862 38.4838L44.0699 5.80734L58.6841 36.9038L52.2673 3.15154L62.85 35.828L60.6999 1.53788L67.1167 35.2902L69.2668 1L71.4169 35.2902L77.8337 1.53788L75.65 35.828L86.2663 3.15154L79.8159 36.9038L94.4301 5.80734L83.8138 38.4838L102.191 9.47169L87.5765 40.5681L109.447 14.0773L91.0705 43.0895L116.066 19.557L94.1949 46.0142L121.945 25.8099L96.9162 49.3424L127.018 32.7688L99.2343 52.9731L131.15 40.2992L101.048 56.8392L134.308 48.3002L102.392 60.9405L136.425 56.6038L103.199 65.1428L137.5 65.1428L103.467 69.4458Z"/>
</mask>
<path d="M103.467 69.4458L137.5 73.7489L103.199 73.7153L136.425 82.2542L102.392 77.9511L134.308 90.5914L101.048 82.0525L131.15 98.5925L99.2343 85.9186L127.018 106.123L96.9162 89.5493L121.945 113.048L94.1949 92.8774L116.066 119.335L91.0705 95.8022L109.447 124.814L87.5765 98.3235L102.191 129.42L83.8138 100.408L94.4301 133.084L79.8159 101.988L86.2663 135.74L75.65 103.064L77.8337 137.354L71.4169 103.602L69.2668 137.892L67.1167 103.602L60.6999 137.354L62.85 103.064L52.2673 135.74L58.6841 101.988L44.0699 133.084L54.6862 100.408L36.3093 129.42L50.9235 98.3235L29.0526 124.814L47.4631 95.8022L22.4342 119.335L44.3387 92.8774L16.5549 113.048L41.5838 89.5493L11.5155 106.123L39.2993 85.9186L7.38321 98.5925L37.4515 82.0525L4.2252 90.5914L36.1413 77.9511L2.07506 82.2542L35.335 73.7153L1 73.7489L35.0662 69.4458L1 65.1428H35.335L2.07506 56.6038L36.1413 60.9405L4.2252 48.3002L37.4515 56.8392L7.38321 40.2992L39.2993 52.9731L11.5155 32.7688L41.5838 49.3424L16.5549 25.8099L44.3387 46.0142L22.4342 19.557L47.4631 43.0895L29.0526 14.0773L50.9235 40.5681L36.3093 9.47169L54.6862 38.4838L44.0699 5.80734L58.6841 36.9038L52.2673 3.15154L62.85 35.828L60.6999 1.53788L67.1167 35.2902L69.2668 1L71.4169 35.2902L77.8337 1.53788L75.65 35.828L86.2663 3.15154L79.8159 36.9038L94.4301 5.80734L83.8138 38.4838L102.191 9.47169L87.5765 40.5681L109.447 14.0773L91.0705 43.0895L116.066 19.557L94.1949 46.0142L121.945 25.8099L96.9162 49.3424L127.018 32.7688L99.2343 52.9731L131.15 40.2992L101.048 56.8392L134.308 48.3002L102.392 60.9405L136.425 56.6038L103.199 65.1428L137.5 65.1428L103.467 69.4458Z" stroke="#231F20" stroke-width="2" stroke-miterlimit="10" mask="url(#path-1-outside-1_178_608)"/>
</mask>
<g mask="url(#mask0_178_608)">
<rect x="145" y="-1" width="39" height="147" transform="rotate(90 145 -1)" fill="#231F20" stroke="#231F20" stroke-width="2"/>
</g>
</g>
</svg>
