<svg width="33" height="34" viewBox="0 0 33 34" fill="none" xmlns="http://www.w3.org/2000/svg">
<mask id="mask0_178_694" style="mask-type:luminance" maskUnits="userSpaceOnUse" x="0" y="0" width="33" height="34">
<path d="M32.7 1V0.8H32.5H0.5H0.3V1V33V33.2H0.5H32.5H32.7V33V1Z" fill="white" stroke="white" stroke-width="0.4"/>
</mask>
<g mask="url(#mask0_178_694)">
<path d="M0.493891 16.8001L0.49386 17.1999C4.28701 17.3164 7.13935 17.4271 9.29899 17.7625C11.4583 18.0977 12.8903 18.653 13.8692 19.6318C14.848 20.6105 15.4034 22.0423 15.7385 24.2013C16.0737 26.3608 16.1842 29.213 16.3001 33.0061L16.6999 33.0061C16.8164 29.2118 16.9271 26.3591 17.2625 24.1994C17.5977 22.0401 18.153 20.6085 19.1317 19.63C20.1105 18.6516 21.5422 18.0967 23.7013 17.7618C25.8608 17.4268 28.713 17.3164 32.5061 17.1999L32.5061 16.8001C28.713 16.6836 25.8606 16.5729 23.701 16.2376C21.5417 15.9023 20.1097 15.347 19.1308 14.3683C18.1519 13.3895 17.5966 11.9577 17.2614 9.79867C16.9262 7.63923 16.8158 4.78704 16.6999 0.993891L16.3001 0.99386C16.1836 4.78701 16.0729 7.63935 15.7376 9.79899C15.4023 11.9583 14.847 13.3903 13.8683 14.3692C12.8895 15.348 11.4577 15.9034 9.29867 16.2385C7.13923 16.5737 4.28704 16.6842 0.493891 16.8001Z" fill="white" stroke="black" stroke-width="0.4"/>
</g>
</svg>
