<svg width="29" height="29" viewBox="0 0 29 29" fill="none" xmlns="http://www.w3.org/2000/svg">
<path d="M23.3046 26.9128C23.3586 27.5115 21.8619 28.2748 21.391 27.901C17.3361 24.683 11.6674 24.6822 7.61165 27.8984C7.14055 28.272 5.64208 27.5074 5.69588 26.9087C5.94325 24.1555 4.84447 23.0567 2.09127 23.3041C1.49243 23.3579 0.727969 21.8593 1.10158 21.3883C4.31778 17.3327 4.31689 11.6647 1.09893 7.61011C0.725191 7.1392 1.48842 5.6423 2.08719 5.69622C4.84339 5.94442 5.94339 4.84576 5.69588 2.09122C5.64206 1.49238 7.14055 0.727914 7.61165 1.10151C11.6674 4.31778 17.3361 4.3169 21.391 1.09887C21.8619 0.725138 23.3586 1.48837 23.3046 2.08714C23.0562 4.84459 24.1559 5.94449 26.9128 5.69623C27.5115 5.64231 28.2748 7.13909 27.9011 7.61003C24.6839 11.6646 24.683 17.3329 27.8985 21.3883C28.2721 21.8594 27.5076 23.3579 26.9087 23.3041C24.1548 23.0567 23.0563 24.1567 23.3046 26.9128Z" stroke="white" stroke-width="0.5"/>
<path d="M22.0002 25.0738C22.0462 25.5839 20.7712 26.2341 20.3701 25.9156C16.9159 23.1744 12.087 23.1737 8.63215 25.9135C8.23084 26.2317 6.95436 25.5804 7.00019 25.0704C7.21092 22.7251 6.27492 21.7891 3.9296 21.9998C3.41947 22.0456 2.76827 20.769 3.08653 20.3678C5.82626 16.9131 5.8255 12.0847 3.08428 8.63083C2.7659 8.22968 3.41606 6.95454 3.92613 7.00047C6.274 7.2119 7.21103 6.27601 7.00019 3.92955C6.95435 3.41943 8.23084 2.76821 8.63215 3.08646C12.087 5.82625 16.9159 5.8255 20.3701 3.08421C20.7712 2.76585 22.0462 3.41601 22.0002 3.92607C21.7886 6.27502 22.7254 7.21196 25.0738 7.00049C25.5839 6.95456 26.2341 8.22959 25.9158 8.63076C23.1752 12.0847 23.1744 16.9132 25.9136 20.3678C26.2318 20.7691 25.5805 22.0456 25.0704 21.9998C22.7245 21.7891 21.7887 22.7261 22.0002 25.0738Z" fill="white"/>
<path d="M15.4657 13.0994L9.99438 13.1154L9.96657 15.0768L15.5758 15.1301L13.2437 17.4622L14.5557 18.7742L19.2199 14.11L14.5587 9.4488L13.1869 10.8206L15.4657 13.0994Z" fill="#231F20"/>
</svg>
