<svg width="20" height="20" viewBox="0 0 20 20" fill="none" xmlns="http://www.w3.org/2000/svg">
<g clip-path="url(#clip0_178_688)">
<path fill-rule="evenodd" clip-rule="evenodd" d="M9.21925 2.05736C9.64314 1.71823 10.2327 1.69401 10.6803 1.98469L10.7809 2.05736L14.3746 4.93226C14.7304 5.21692 14.9524 5.63326 14.9932 6.08278L15.0001 6.23371V8.33333H16.6667C17.5454 8.33333 18.2652 9.01321 18.3288 9.87561L18.3334 10V16.5833C18.3334 17.0558 17.9759 17.4449 17.5166 17.4946L17.4167 17.5H2.58341C2.11091 17.5 1.7219 17.1425 1.67213 16.6832L1.66675 16.5833V10C1.66675 9.12134 2.34665 8.40153 3.20903 8.33791L3.33341 8.33333H5.00008V6.23371C5.00008 5.77803 5.1865 5.3446 5.512 5.03189L5.62559 4.93226L9.21925 2.05736ZM10.0001 3.56704L6.66675 6.23371V15.8332H13.3334V6.23371L10.0001 3.56704ZM16.6667 10H15.0001V15.8333H16.6667V10ZM5.00008 10H3.33341V15.8333H5.00008V10ZM10.0001 6.66667C11.3808 6.66667 12.5001 7.78596 12.5001 9.16667C12.5001 10.5474 11.3808 11.6667 10.0001 11.6667C8.61933 11.6667 7.50008 10.5474 7.50008 9.16667C7.50008 7.78596 8.61933 6.66667 10.0001 6.66667ZM10.0001 8.33333C9.53983 8.33333 9.16675 8.70642 9.16675 9.16667C9.16675 9.62692 9.53983 10 10.0001 10C10.4603 10 10.8334 9.62692 10.8334 9.16667C10.8334 8.70642 10.4603 8.33333 10.0001 8.33333Z" fill="#231F20"/>
</g>
<defs>
<clipPath id="clip0_178_688">
<path d="M0 8C0 3.58172 3.58172 0 8 0H20V20H8C3.58172 20 0 16.4183 0 12V8Z" fill="white"/>
</clipPath>
</defs>
</svg>
