<svg width="22" height="22" viewBox="0 0 22 22" fill="none" xmlns="http://www.w3.org/2000/svg">
<g clip-path="url(#clip0_290_125)">
<mask id="mask0_290_125" style="mask-type:luminance" maskUnits="userSpaceOnUse" x="0" y="0" width="22" height="22">
<path d="M22 0H0V22H22V0Z" fill="white"/>
</mask>
<g mask="url(#mask0_290_125)">
<path d="M7.87136 1.79682C9.27701 -0.598939 12.7407 -0.598938 14.1463 1.79682L14.1974 1.88383C14.8459 2.98906 16.028 3.67158 17.3094 3.68056L17.4104 3.68126C20.188 3.70071 21.9198 6.70035 20.5478 9.11556L20.4979 9.20327C19.865 10.3175 19.865 11.6825 20.4979 12.7967L20.5478 12.8844C21.9198 15.2997 20.188 18.2993 17.4104 18.3187L17.3094 18.3194C16.028 18.3284 14.8459 19.011 14.1974 20.1161L14.1463 20.2031C12.7407 22.5989 9.27701 22.5989 7.87136 20.2031L7.82031 20.1161C7.17184 19.011 5.98968 18.3284 4.70829 18.3194L4.60741 18.3187C1.8298 18.2993 0.0979572 15.2997 1.46991 12.8844L1.51974 12.7967C2.15267 11.6825 2.15267 10.3175 1.51974 9.20327L1.46991 9.11556C0.0979572 6.70035 1.8298 3.70071 4.60741 3.68126L4.70829 3.68056C5.98969 3.67158 7.17184 2.98906 7.82031 1.88383L7.87136 1.79682Z" fill="#276692"/>
</g>
</g>
<path d="M15.7354 14.4057L13.5323 12.2028C13.9159 11.5817 14.1478 10.8572 14.1478 10.0738C14.1478 7.82379 12.3239 6 10.0739 6C7.82385 6 6 7.82379 6 10.0738C6 12.3237 7.82385 14.1475 10.0739 14.1475C10.8573 14.1475 11.5819 13.9156 12.2024 13.5327L14.406 15.7357C14.5834 15.9072 14.821 16.0021 15.0677 16C15.3144 15.9979 15.5503 15.8989 15.7247 15.7244C15.8991 15.55 15.998 15.3139 16 15.0673C16.002 14.8206 15.9069 14.583 15.7354 14.4057ZM10.0739 12.8941C8.51641 12.8941 7.25351 11.6312 7.25351 10.0738C7.25351 8.51633 8.51641 7.25347 10.0739 7.25347C11.6314 7.25347 12.8943 8.51633 12.8943 10.0738C12.8943 11.6312 11.6314 12.8941 10.0739 12.8941Z" fill="white"/>
<defs>
<clipPath id="clip0_290_125">
<rect width="22" height="22" fill="white"/>
</clipPath>
</defs>
</svg>
