<svg width="56" height="56" viewBox="0 0 56 56" fill="none" xmlns="http://www.w3.org/2000/svg">
<path d="M48.2541 9.0751L50 6L46.9249 7.7459C35.1884 14.41 20.8116 14.41 9.0751 7.7459L6 6L7.74589 9.0751C14.41 20.8116 14.41 35.1884 7.74589 46.9249L6 50L9.0751 48.2541C20.8116 41.59 35.1884 41.59 46.9249 48.2541L50 50L48.2541 46.9249C41.59 35.1884 41.59 20.8116 48.2541 9.0751Z" fill="#A8A9AD"/>
<path d="M53.3397 53.3397L52.58 52.9084C37.3365 44.2529 18.6636 44.2529 3.42 52.9084L2.66033 53.3397L3.09164 52.58C11.7471 37.3365 11.7471 18.6636 3.09166 3.42004C3.09165 3.42002 3.09164 3.42001 3.09164 3.42L2.66035 2.66035L3.42 3.09165C3.42001 3.09165 3.42002 3.09166 3.42003 3.09167C18.6636 11.7471 37.3364 11.7471 52.58 3.09167C52.58 3.09166 52.58 3.09165 52.58 3.09165L53.3397 2.66035L52.9084 3.42C52.9084 3.42001 52.9084 3.42002 52.9083 3.42004C44.2529 18.6636 44.2529 37.3365 52.9084 52.58L53.3397 53.3397Z" stroke="#A8A9AD" stroke-width="2"/>
</svg>
