<svg width="862" height="96" viewBox="0 0 862 96" fill="none" xmlns="http://www.w3.org/2000/svg">
<g clip-path="url(#clip0_345_1007)">
<rect width="863" height="382.605" fill="white"/>
<path d="M191.802 -96.2564H0V95.3025H191.802V-96.2564Z" fill="#276692"/>
<path d="M0 -0.441032C0 -53.3765 42.9342 -96.2564 95.8649 -96.2564C148.796 -96.2564 191.802 -53.3765 191.802 -0.441032C191.802 52.4945 148.867 95.3025 95.8649 95.3025C42.8623 95.3025 0 52.4226 0 -0.441032Z" fill="#FFFEFC"/>
<path d="M47.9683 -0.441051C47.9683 -26.8729 69.3994 -48.3488 95.9367 -48.3488C122.474 -48.3488 143.905 -26.9447 143.905 -0.441051C143.905 26.0626 122.474 47.4666 95.9367 47.4666C69.3994 47.4666 47.9683 25.9908 47.9683 -0.441051Z" fill="#CEF09D"/>
<path d="M287.667 -0.44104H191.802V95.3025H287.667V-0.44104Z" fill="#77D9C9"/>
<path d="M383.532 -0.44104H287.667V95.3025H383.532V-0.44104Z" fill="#C3E04F"/>
<path d="M383.532 95.3025C330.601 95.3025 287.667 52.4226 287.667 -0.44104H383.532V95.3025Z" fill="#77D9C9"/>
<path d="M479.396 -0.44104H383.531V95.3025H479.396V-0.44104Z" fill="#CEF09D"/>
<path d="M383.531 -0.44104C436.462 -0.44104 479.396 42.4389 479.396 95.3025H383.531V-0.44104Z" fill="#77D9C9"/>
<path d="M671.271 -0.44104H479.469V191.118H671.271V-0.44104Z" fill="#77D9C9"/>
<path d="M479.469 -0.44104C585.402 -0.44104 671.271 85.3188 671.271 191.118H479.469V-0.44104Z" fill="#276692"/>
<path d="M95.8649 95.3025H0V191.046H95.8649V95.3025Z" fill="#C3E04F"/>
<path d="M0 143.21C0 116.707 21.4312 95.3025 47.9684 95.3025C74.5057 95.3025 95.9368 116.707 95.9368 143.21C95.9368 169.714 74.5057 191.118 47.9684 191.118C21.4312 191.118 0 169.642 0 143.21Z" fill="#FFFEFC"/>
<path d="M191.73 95.3025H95.8652V191.046H191.73V95.3025Z" fill="#CEF09D"/>
<path d="M191.801 95.3025C191.801 148.166 148.867 191.046 95.9365 191.046V95.3025H191.801Z" fill="#276692"/>
<path d="M287.667 95.3025H191.802V191.046H287.667V95.3025Z" fill="#C3E04F"/>
<path d="M191.802 143.21C191.802 116.778 213.233 95.3025 239.77 95.3025C266.307 95.3025 287.739 116.707 287.739 143.21C287.739 169.714 266.307 191.118 239.77 191.118C213.233 191.118 191.802 169.642 191.802 143.21Z" fill="#CEF09D"/>
<path d="M383.532 95.3025H287.667V191.046H383.532V95.3025Z" fill="#FFFEFC"/>
<path d="M479.396 95.3025H383.531V191.046H479.396V95.3025Z" fill="#276692"/>
<path d="M479.468 191.046C426.538 191.046 383.604 148.166 383.604 95.3025H479.468V191.046Z" fill="#FFFEFC"/>
<path d="M215.75 47.3948C215.75 34.1789 226.466 23.4769 239.698 23.4769C252.931 23.4769 263.647 34.1789 263.647 47.3948C263.647 60.6107 252.931 71.3127 239.698 71.3127C226.466 71.3127 215.75 60.6107 215.75 47.3948Z" fill="#C3E04F"/>
<path d="M863 95.3025H767.135V191.046H863V95.3025Z" fill="#C3E04F"/>
<path d="M863 95.3025C863 148.166 820.065 191.046 767.135 191.046V95.3025H863Z" fill="#276692"/>
<path d="M767.063 95.3025H671.198V191.046H767.063V95.3025Z" fill="#CEF09D"/>
<path d="M767.135 191.046C714.205 191.046 671.271 148.166 671.271 95.3025H767.135V191.046Z" fill="#77D9C9"/>
<path d="M863 -0.44104H767.135V95.3025H863V-0.44104Z" fill="#FFFEFC"/>
<path d="M839.052 47.3948C839.052 60.6107 828.336 71.3127 815.104 71.3127C801.871 71.3127 791.155 60.6107 791.155 47.3948C791.155 34.1789 801.871 23.4769 815.104 23.4769C828.264 23.4769 839.052 34.1789 839.052 47.3948Z" fill="#77D9C9"/>
<path d="M767.063 -0.44104H671.198V95.3025H767.063V-0.44104Z" fill="#276692"/>
<path d="M671.198 -0.44104C724.129 -0.44104 767.063 42.4389 767.063 95.3025H671.198V-0.44104Z" fill="#FFFEFC"/>
</g>
<defs>
<clipPath id="clip0_345_1007">
<rect width="863" height="382.605" fill="white"/>
</clipPath>
</defs>
</svg>
