<svg width="72" height="88" viewBox="0 0 72 88" fill="none" xmlns="http://www.w3.org/2000/svg">
<g clip-path="url(#clip0_345_1297)">
<path d="M31.0083 46.8056L31.7782 65.6561C31.7966 66.0975 31.4445 66.4627 31.003 66.4627H12.0107C11.5508 66.4627 11.1935 66.066 11.2382 65.6088L13.1116 46.8608C13.1563 46.422 13.5531 46.1093 13.9893 46.1697L22.818 47.3863C23.1754 47.4362 23.4513 47.7253 23.4854 48.0826L24.4629 58.5405C24.5023 58.9635 24.1949 59.3393 23.7718 59.384L18.8451 59.9042C18.3642 59.9542 17.9543 59.5574 17.9885 59.0765L18.2066 56.0811C18.2355 55.6764 18.5744 55.3611 18.9817 55.3611C19.4284 55.3611 19.7831 54.9827 19.7569 54.536L19.6255 52.405C19.6018 52.0451 19.3364 51.7481 18.9791 51.6877L18.0857 51.5379C17.639 51.4617 17.2238 51.7849 17.1844 52.2369L16.3804 61.5412C16.341 62.0063 16.7167 62.4005 17.1844 62.3847L26.4967 62.0247C26.946 62.0063 27.285 61.6148 27.2377 61.1681L25.7636 46.916C25.7163 46.4588 26.0763 46.0594 26.5361 46.0594H30.2358C30.6509 46.062 30.9925 46.3904 31.0083 46.8056Z" fill="#00A99D"/>
<path d="M42.5642 47.8672L41.3582 64.902C41.2951 65.7822 40.562 66.4654 39.6791 66.4654H34.6709C33.7197 66.4654 32.9577 65.6797 32.9892 64.7285L33.0129 64.0217C33.0444 63.0574 33.8774 62.319 34.8364 62.4005L35.6273 62.4688C36.6232 62.5529 37.4719 61.7567 37.4509 60.7582L37.2775 52.539C37.2565 51.488 36.2869 50.7155 35.2595 50.9257C34.2163 51.1385 33.2415 50.3424 33.2415 49.2782V47.7647C33.2415 46.8371 33.993 46.083 34.9205 46.083L40.8852 46.0725C41.86 46.0646 42.6352 46.8923 42.5642 47.8672Z" fill="#F99D1C"/>
<path d="M45.0082 59.3787L61.9011 59.6914C63.0782 59.7124 64.011 60.6873 63.9821 61.8644L63.835 67.8685C63.8219 68.4124 63.6011 68.9301 63.2149 69.3163L54.7671 77.7746C53.3745 79.1699 54.4728 81.5452 56.4383 81.3876C57.6969 81.2877 58.5903 80.1132 58.3512 78.8729L58.1383 77.7615C57.9281 76.6605 58.6087 75.5858 59.6965 75.3073L61.0156 74.9683C62.2926 74.6425 63.5538 75.5464 63.6563 76.8602L64.2738 84.8324C64.3684 86.0673 63.3909 87.121 62.1533 87.1184L45.2841 87.0632C44.0911 87.0606 43.1347 86.0726 43.1715 84.8797L43.2398 82.5595C43.2529 82.0681 43.4395 81.5978 43.7627 81.2273L54.7224 68.6647C55.8392 67.385 55.0719 65.3749 53.385 65.1647L51.5194 64.9335C50.2608 64.7758 49.1493 65.7507 49.1361 67.0198L49.0836 72.7138C49.0757 73.6072 48.5081 74.4008 47.6621 74.6977L45.9278 75.3046C44.5667 75.7802 43.1399 74.7896 43.1084 73.3497L42.8483 61.5491C42.8194 60.3404 43.8021 59.3551 45.0082 59.3787Z" fill="#8DC63F"/>
<path d="M32.944 29.9416L39.4579 28.9878C39.6996 28.951 39.9177 29.1402 39.9177 29.3846V44.2805C39.9177 44.5012 39.7364 44.6825 39.5157 44.6799L34.7676 44.651C34.5364 44.6483 34.3551 44.4539 34.3708 44.2227L35.0225 34.7423C35.0409 34.4926 34.8254 34.2877 34.5758 34.3166L32.8416 34.5242C32.6392 34.5478 32.4895 34.7186 32.4895 34.9209V44.3672C32.4895 44.5879 32.3108 44.7666 32.0901 44.7666H20.3709C20.1581 44.7666 19.9794 44.5984 19.9715 44.383C19.961 44.1701 19.785 43.9993 19.5721 43.9993H11.9915C11.7576 43.9993 11.5737 43.7996 11.5921 43.5658L12.4645 33.2393C12.4802 33.058 12.6142 32.9108 12.7955 32.8793L27.3262 30.3384C27.518 30.3042 27.6573 30.1387 27.6573 29.9442V29.0141C27.6573 28.7618 27.4287 28.5726 27.1817 28.6199L24.4542 29.1454C24.2624 29.1822 24.1232 29.353 24.131 29.5501L24.1442 30.0441C24.1494 30.2385 24.0128 30.412 23.821 30.4487L19.7167 31.2502C19.4828 31.2948 19.2595 31.1267 19.2411 30.8876L18.8469 25.8347C18.8285 25.6139 18.9941 25.4221 19.2148 25.4037L32.0533 24.3974C32.2845 24.379 32.4842 24.5629 32.4842 24.7968V29.5448C32.4842 29.7918 32.7023 29.9784 32.944 29.9416ZM17.2467 39.7689H19.3672C19.5879 39.7689 19.7666 39.5902 19.7666 39.3695V36.5133C19.7666 36.2636 19.538 36.0745 19.291 36.1191L16.9734 36.5579C16.7711 36.5947 16.6318 36.7787 16.6476 36.9836L16.8447 39.401C16.8631 39.6086 17.0365 39.7689 17.2467 39.7689ZM27.3104 40.0973L27.6258 35.0339C27.6415 34.7712 27.4077 34.5662 27.1502 34.6161L24.8037 35.076C24.6014 35.1154 24.4621 35.3019 24.4831 35.5069L24.9088 39.8687C24.9272 40.05 25.0665 40.1972 25.2478 40.2261L26.8532 40.4704C27.0818 40.5046 27.2947 40.3312 27.3104 40.0973Z" fill="#EC008C"/>
<path d="M11.4502 83.2689H12.1833V82.5542L12.0493 82.4149H11.8338L11.7024 82.5542V82.6856H11.4502V82.4491L11.734 82.1548H12.1465L12.4355 82.4491V83.5317H11.7024V83.9705H12.4355V84.2333H11.4502V83.2689Z" fill="black"/>
<path d="M12.6777 83.9337V82.4491L12.9615 82.1575H13.3714L13.6552 82.4491V83.9337L13.3714 84.2333H12.9536L12.6777 83.9337ZM13.0614 83.9705H13.2663L13.4003 83.826V82.5542L13.2663 82.4176H13.0614L12.93 82.5542V83.8339L13.0614 83.9705Z" fill="black"/>
<path d="M13.8965 83.2689H14.6296V82.5542L14.4956 82.4149H14.2801L14.1487 82.5542V82.6856H13.8965V82.4491L14.1803 82.1548H14.5928L14.8818 82.4491V83.5317H14.1487V83.9705H14.8818V84.2333H13.8965V83.2689Z" fill="black"/>
<path d="M15.124 83.6578H15.3763V83.8312L15.5077 83.9705H15.7231L15.8598 83.8312V83.1139H15.124V82.1548H16.112V82.4149H15.3763V82.8538H16.112V83.9363L15.823 84.2333H15.4078L15.124 83.9363V83.6578Z" fill="black"/>
<path d="M16.8584 83.6972L17.1474 83.3977H18.7976L18.9342 83.2558V82.5516L18.7976 82.415H18.5979L18.4665 82.5516V83.1139H18.2116V82.5516L18.0802 82.415H17.8385V82.8196L17.5521 83.1165H17.1422L16.8663 82.8196V82.4491L17.1422 82.1575H18.1853L18.343 82.3125L18.498 82.1575H18.8974L19.1838 82.4491L19.1891 83.3688L19.0288 83.5265L19.1891 83.6867L19.1838 83.9364L18.9053 84.2333H18.4928L18.3377 84.0677L18.1801 84.2333H17.1527L16.861 83.9469V83.6972H16.8584ZM17.2499 83.9653H18.0776L18.2064 83.8286V83.6526H17.2499L17.0975 83.8102L17.2499 83.9653ZM17.2499 82.8512H17.4522L17.5862 82.7171V82.415H17.2499L17.1185 82.5516V82.7171L17.2499 82.8512ZM18.7976 83.9653L18.9526 83.8102L18.7976 83.6526H18.4612V83.8286L18.59 83.9653H18.7976Z" fill="black"/>
<path d="M19.4229 82.4517L19.6987 82.1548H20.1192L20.2742 82.3177L20.4292 82.1548H20.8496L21.1255 82.4517V84.2333H20.8759V82.5542L20.7419 82.4149H20.537L20.4056 82.5542V84.2333H20.1481V82.5542L20.0167 82.4149H19.8065L19.6751 82.5542V84.2333H19.4229V82.4517Z" fill="black"/>
<path d="M21.6458 84.2333L21.362 83.9364V83.3557L21.6642 83.0351C21.6799 83.0246 21.6878 82.972 21.6905 82.9247C21.6931 82.8748 21.6931 82.8196 21.6931 82.8039V82.5542L21.5617 82.4202H21.5591C21.4908 82.4202 21.4251 82.4229 21.3594 82.4229V82.1575H21.6589L21.9453 82.4491V83.0587H21.9926L22.279 83.3504V83.9311L21.9926 84.2307H21.6458V84.2333ZM21.7483 83.9705H21.9007L22.032 83.8339V83.4581L21.9007 83.3241H21.7483L21.6169 83.4581V83.8339L21.7483 83.9705Z" fill="black"/>
<path d="M22.5283 82.4517L22.8042 82.1548H23.2115L23.49 82.4517V83.9705H23.8658V82.1627H24.1233V84.2333H23.2351V82.5542L23.1038 82.4149H22.912L22.7806 82.5542V84.2333H22.5283V82.4517Z" fill="black"/>
<path d="M24.363 82.4491L24.6546 82.1575H25.661L25.9395 82.4491L25.9369 83.9337L25.661 84.2333H25.2616L24.9752 83.9337V83.1349L25.2616 82.8485L25.6847 82.8406V82.5516L25.5559 82.415H24.7519L24.6126 82.5516V84.2201H24.3604V82.4491H24.363ZM25.5533 83.9705L25.6847 83.8339V83.1113H25.3615L25.2301 83.2427V83.8286L25.3615 83.9731H25.5533V83.9705Z" fill="black"/>
<path d="M26.2468 81.9131L26.1128 81.7791H26.0103L25.8763 81.9131V82.0261H25.624V81.8106L25.9078 81.5189H26.21L26.4964 81.8106V84.2332H26.2468V81.9131Z" fill="black"/>
<path d="M27.3662 83.9705H27.5764V82.4018L27.4345 82.5306L27.2559 82.3466L27.445 82.1548H27.8287V83.9705H28.0363V84.2333H27.3662V83.9705Z" fill="black"/>
<path d="M28.2832 83.6999H28.5355V83.8312L28.6668 83.9679H28.8823L29.0163 83.8312V83.3188H28.2832V82.4517L28.5696 82.1548H28.9874L29.2712 82.4517V83.9363L28.9874 84.2333H28.5696L28.2832 83.9363V83.6999ZM29.0163 83.064V82.5595L28.8823 82.4149H28.6747L28.5381 82.5595V83.064H29.0163Z" fill="black"/>
<path d="M29.5805 84.1886H29.6565L29.7168 84.4508H29.5176L29.5805 84.1886Z" fill="black"/>
<path d="M29.9775 83.2689H30.7106V82.5542L30.5766 82.4149H30.3612L30.2298 82.5542V82.6856H29.9775V82.4491L30.2613 82.1548H30.6739L30.9629 82.4491V83.5317H30.2298V83.9705H30.9629V84.2333H29.9775V83.2689Z" fill="black"/>
<path d="M31.2051 83.9337V82.4491L31.4889 82.1575H31.8988L32.1825 82.4491V83.9337L31.8988 84.2333H31.481L31.2051 83.9337ZM31.5887 83.9705H31.7937L31.9277 83.826V82.5542L31.7937 82.4176H31.5887L31.4573 82.5542V83.8339L31.5887 83.9705Z" fill="black"/>
<path d="M32.4946 84.1886H32.5706L32.6309 84.4508H32.4316L32.4946 84.1886Z" fill="black"/>
<path d="M32.8916 83.2689H33.6247V82.5542L33.4907 82.4149H33.2752L33.1439 82.5542V82.6856H32.8916V82.4491L33.1754 82.1548H33.5879L33.877 82.4491V83.5317H33.1439V83.9705H33.877V84.2333H32.8916V83.2689Z" fill="black"/>
<path d="M34.2429 83.9705H34.4505V82.4018L34.3086 82.5306L34.1299 82.3466L34.3191 82.1548H34.7027V83.9705H34.9103V84.2333H34.2429V83.9705Z" fill="black"/>
<path d="M35.228 84.1886H35.304L35.3643 84.4508H35.165L35.228 84.1886Z" fill="black"/>
<path d="M35.625 83.2689H36.3581V82.5542L36.2241 82.4149H36.0086L35.8772 82.5542V82.6856H35.625V82.4491L35.9088 82.1548H36.3213L36.6104 82.4491V83.5317H35.8772V83.9705H36.6104V84.2333H35.625V83.2689Z" fill="black"/>
<path d="M36.8516 83.2689H37.5873V82.5542L37.4507 82.4149H37.2352L37.1038 82.5542V82.6856H36.8516V82.4491L37.1353 82.1548H37.5479L37.8395 82.4491V83.5317H37.1038V83.9705H37.8395V84.2333H36.8516V83.2689Z" fill="black"/>
<path d="M38.1525 84.1886H38.2285L38.2888 84.4508H38.0869L38.1525 84.1886Z" fill="black"/>
<path d="M38.5488 83.2689H39.2819V82.5542L39.1479 82.4149H38.9325L38.8011 82.5542V82.6856H38.5488V82.4491L38.83 82.1548H39.2451L39.5342 82.4491V83.5317H38.8011V83.9705H39.5342V84.2333H38.5488V83.2689Z" fill="black"/>
<path d="M39.7764 83.9337V83.6893H40.0286V83.826L40.16 83.9705H40.365L40.499 83.826V83.4555L40.365 83.3188H40.1679V83.0587H40.365L40.499 82.9195V82.5542L40.365 82.4149H40.16L40.0286 82.5542V82.6987H39.7764V82.4491L40.0601 82.1548H40.4622L40.7591 82.4491V83.0298L40.5988 83.1901L40.7591 83.3504V83.9337L40.4701 84.2333H40.0601L39.7764 83.9337Z" fill="black"/>
<path d="M12.0314 86.0411V86.2303H11.5715V86.8977H12.1365V87.0895H11.3613V85.2081H12.1365V85.3999H11.5715V86.0411H12.0314Z" fill="black"/>
<path d="M13.4532 87.0869H13.2508L12.9408 85.5891V87.0895H12.7568V85.2081H13.0511L13.3586 86.7111L13.6581 85.2081H13.9498V87.0895H13.7527V85.576L13.4532 87.0869Z" fill="black"/>
<path d="M15.2631 86.0411V86.2303H14.8059V86.8977H15.3682V87.0895H14.5957V85.2081H15.3682V85.3999H14.8059V86.0411H15.2631Z" fill="black"/>
<path d="M16.2036 86.7111L16.13 87.0895H15.9355L16.2955 85.2081H16.5977L16.9577 87.0895H16.7475L16.6792 86.7111H16.2036ZM16.2325 86.5298H16.6503L16.4374 85.4446L16.2325 86.5298Z" fill="black"/>
<path d="M19.2335 85.6627V85.8308H19.0338V85.6522C19.0338 85.4814 18.9655 85.3815 18.8131 85.3815C18.6633 85.3815 18.5923 85.484 18.5923 85.6522V86.6454C18.5923 86.8136 18.6633 86.916 18.8131 86.916C18.9655 86.916 19.0338 86.8136 19.0338 86.6454V86.401H19.2335V86.6349C19.2335 86.9187 19.0995 87.1079 18.8078 87.1079C18.5214 87.1079 18.3848 86.9187 18.3848 86.6349V85.6627C18.3848 85.3789 18.5188 85.1897 18.8078 85.1897C19.0995 85.1897 19.2335 85.3763 19.2335 85.6627Z" fill="black"/>
<path d="M19.8379 85.6627C19.8379 85.3763 19.9798 85.1897 20.2688 85.1897C20.5579 85.1897 20.7024 85.3763 20.7024 85.6627V86.6349C20.7024 86.9187 20.5605 87.1079 20.2688 87.1079C19.9824 87.1079 19.8379 86.9187 19.8379 86.6349V85.6627ZM20.0455 86.6454C20.0455 86.8162 20.119 86.916 20.2688 86.916C20.4212 86.916 20.4922 86.8162 20.4922 86.6454V85.6522C20.4922 85.484 20.4212 85.3815 20.2688 85.3815C20.119 85.3815 20.0455 85.484 20.0455 85.6522V86.6454Z" fill="black"/>
<path d="M21.3301 87.0895V85.2081H21.5403V86.8977H22.0763V87.0895H21.3301Z" fill="black"/>
<path d="M22.665 87.0895V85.2081H22.8752V86.8977H23.4139V87.0895H22.665Z" fill="black"/>
<path d="M24.6703 86.0411V86.2303H24.2105V86.8977H24.7754V87.0895H24.0029V85.2081H24.7754V85.3999H24.2105V86.0411H24.6703Z" fill="black"/>
<path d="M26.2312 85.6627V85.823H26.0315V85.6522C26.0315 85.4814 25.9632 85.3815 25.8108 85.3815C25.661 85.3815 25.5901 85.484 25.5901 85.6522V86.6454C25.5901 86.8136 25.661 86.9161 25.8108 86.9161C25.9632 86.9161 26.0315 86.8136 26.0315 86.6454V86.2697H25.8371V86.0831H26.2286V86.6375C26.2286 86.9213 26.0946 87.1105 25.8029 87.1105C25.5165 87.1105 25.3799 86.9213 25.3799 86.6375V85.6653C25.3799 85.3815 25.5139 85.1923 25.8029 85.1923C26.0946 85.1897 26.2312 85.3763 26.2312 85.6627Z" fill="black"/>
<path d="M27.5284 86.0411V86.2303H27.0686V86.8977H27.6309V87.0895H26.8584V85.2081H27.6309V85.3999H27.0686V86.0411H27.5284Z" fill="black"/>
<path d="M29.4231 86.2723L29.3127 86.4562V87.0895H29.1025V85.2081H29.3127V86.1173L29.812 85.2081H30.0248L29.5492 86.0647L30.0406 87.0895H29.8251L29.4231 86.2723Z" fill="black"/>
<path d="M30.5977 85.6627C30.5977 85.3763 30.7395 85.1897 31.0286 85.1897C31.3176 85.1897 31.4621 85.3763 31.4621 85.6627V86.6349C31.4621 86.9187 31.3202 87.1079 31.0286 87.1079C30.7422 87.1079 30.5977 86.9187 30.5977 86.6349V85.6627ZM30.8026 86.6454C30.8026 86.8162 30.8762 86.916 31.026 86.916C31.1784 86.916 31.2493 86.8162 31.2493 86.6454V85.6522C31.2493 85.484 31.1784 85.3815 31.026 85.3815C30.8762 85.3815 30.8026 85.484 30.8026 85.6522V86.6454Z" fill="black"/>
<path d="M32.2741 87.0895H32.085V85.2081H32.3504L32.7865 86.5666V85.2081H32.9731V87.0895H32.755L32.2741 85.5681V87.0895Z" fill="black"/>
<path d="M34.0586 85.2081C34.3529 85.2081 34.4869 85.3868 34.4869 85.6758V86.6244C34.4869 86.9108 34.3529 87.0895 34.0586 87.0895H33.6172V85.2081H34.0586ZM34.056 86.8977C34.2058 86.8977 34.2793 86.8031 34.2793 86.6323V85.6653C34.2793 85.4945 34.2058 85.3999 34.0534 85.3999H33.8274V86.9003H34.056V86.8977Z" fill="black"/>
<path d="M35.0967 85.6627C35.0967 85.3763 35.2386 85.1897 35.5276 85.1897C35.8166 85.1897 35.9612 85.3763 35.9612 85.6627V86.6349C35.9612 86.9187 35.8193 87.1079 35.5276 87.1079C35.2386 87.1079 35.0967 86.9187 35.0967 86.6349V85.6627ZM35.3043 86.6454C35.3043 86.8162 35.3752 86.916 35.5276 86.916C35.68 86.916 35.751 86.8162 35.751 86.6454V85.6522C35.751 85.484 35.68 85.3815 35.5276 85.3815C35.3778 85.3815 35.3043 85.484 35.3043 85.6522V86.6454Z" fill="black"/>
<path d="M36.8625 87.0895V85.3973H36.5156V85.2081H37.4169V85.3973H37.0727V87.0895H36.8625Z" fill="black"/>
<path d="M38.2677 87.0895V85.3973H37.9209V85.2081H38.8222V85.3973H38.4753V87.0895H38.2677Z" fill="black"/>
<path d="M39.7317 86.4142L39.335 85.2081H39.5531L39.8447 86.133L40.1416 85.2081H40.3387L39.9393 86.4142V87.0895H39.7317V86.4142Z" fill="black"/>
<path d="M11.416 71.7127L12.0309 71.0689H12.9269L13.2553 71.421L13.5996 71.0689H14.464L15.0789 71.7127V74.7161L15.3574 75.0182H15.8041L16.0984 74.7161V71.873H16.6476V74.9447L16.0327 75.5884H15.1446L14.5376 74.9447V71.9334L14.2433 71.6339H13.8203L13.5339 71.9334V75.5884H12.9768V71.9334L12.6904 71.6339H12.2516L11.9652 71.9334V75.5884H11.416V71.7127Z" fill="#2E769F"/>
<path d="M17.389 71.358L17.0948 71.0637H16.874L16.5824 71.358V71.5997H16.0332V71.1294L16.6481 70.4987H17.3076L17.9303 71.1294V75.6147H17.389V71.358Z" fill="#2E769F"/>
<path d="M19.7324 74.9368V71.7074L20.3473 71.0716H21.2486L21.8713 71.7074V72.4327H21.3064V71.9334L21.0278 71.6339H20.5654L20.279 71.9334V73.0318L21.2459 73.0475L21.8476 73.6703L21.8687 74.9368L21.2459 75.5884H20.3315L19.7324 74.9368ZM20.5654 75.0182H21.0278L21.3064 74.7187L21.2906 73.8989L21.0147 73.6046H20.2816V74.7187L20.5654 75.0182Z" fill="#2E769F"/>
<path d="M22.3994 71.7127L23.0143 71.0689H23.9077L24.2361 71.421L24.583 71.0689H25.4448L26.0623 71.7127V74.7161L26.3408 75.0182H26.7875L27.0792 74.7161V71.0847H27.6284V74.9447L27.0135 75.5884H26.128L25.5184 74.9447V71.9334L25.2267 71.6339H24.8011L24.5146 71.9334V75.5884H23.9602V71.9334L23.6738 71.6339H23.235L22.9486 71.9334V75.5884H22.3994V71.7127Z" fill="#2E769F"/>
<path d="M28.1279 74.9368V73.9619H28.6771V74.7161L28.9635 75.0182H29.426L29.7045 74.7029V71.9334L29.426 71.6339H28.9635L28.6771 71.9334V72.6744H28.1279V71.7074L28.7428 71.0689H29.6441L30.2668 71.7074V74.9368L29.6441 75.5884H28.7297L28.1279 74.9368Z" fill="#2E769F"/>
<path d="M30.7949 74.9289V71.6995L31.4098 71.0558H33.6722L34.0164 71.4158L34.3527 71.0558H35.2619L35.6061 71.4079H35.614C35.635 71.3921 35.7007 71.3212 35.7821 71.2397C35.8399 71.1661 35.9056 71.0926 35.9372 71.0558H36.6703V70.1256H37.2352V71.0558H38.2022L38.817 71.6995V74.9446L38.2022 75.5884H37.3088L36.6703 74.9446V71.6339H36.1658L35.8793 71.9334V75.5884H35.3302L35.3223 71.9334L35.0306 71.6339H34.5839L34.2896 71.9334V75.5884H33.7326V71.9176L33.4619 71.6312H31.6226L31.3362 71.9308V72.5614H32.3032L32.9259 73.1973V74.9262L32.3189 75.5858H31.3966L30.7949 74.9289ZM32.093 75.0235L32.3794 74.7082V73.4259L32.093 73.1395H31.3388V74.7082L31.6252 75.0235H32.093ZM37.9683 75.0235L38.2678 74.7082V71.9308L37.9814 71.6312H37.2352V74.7082L37.5216 75.0235H37.9683Z" fill="#2E769F"/>
<path d="M11.416 78.865L12.0388 78.2423H12.9768V76.8812L13.5838 76.2585H14.4483L15.0553 76.8812V78.2423H16.0301L16.645 78.865V80.1315L16.0301 80.7753H15.6281L15.6438 80.2419H15.8278L16.1273 79.9345V79.0858L15.8278 78.7704H15.0579V80.1263L14.4509 80.7779H13.5864L13.2343 80.3969L12.8822 80.7779H12.0388L11.416 80.1473V78.865ZM12.2437 80.2419H12.6773L12.9768 79.9345V78.7704H12.2437L11.9284 79.0858V79.9345L12.2437 80.2419ZM14.5455 78.2423V77.0914L14.246 76.784H13.7993L13.4918 77.0914V78.2423H14.5455ZM14.2433 80.2419L14.5429 79.9187V78.7678H13.4892V79.9187L13.7966 80.2419H14.2433Z" fill="#2E769F"/>
<path d="M17.1475 80.1237V76.8943L17.7623 76.2585H18.6636L19.2863 76.8943V77.6196H18.7214V77.1203L18.4429 76.8208H17.9804L17.694 77.1203V78.2186L18.661 78.2344L19.2627 78.8572L19.2837 80.1237L18.661 80.7753H17.7439L17.1475 80.1237ZM17.983 80.2051H18.4455L18.724 79.9056L18.7083 79.0858L18.4297 78.7941H17.6966V79.9082L17.983 80.2051Z" fill="#2E769F"/>
<path d="M19.8145 76.9022L20.4162 76.2585H21.3306L21.9533 76.9022V78.6391L21.3306 79.2618H20.3636V80.2077H22.4578L22.7521 79.9082V76.2742H23.2934V80.1342L22.6864 80.7779H19.8145V76.9022ZM21.1099 78.7021L21.3963 78.4105V77.1361L21.1099 76.8208H20.6474L20.361 77.1203V78.7021H21.1099Z" fill="#2E769F"/>
<path d="M23.8135 80.1237V79.1488H24.3626V79.9056L24.6491 80.2051H25.1115L25.39 79.8898V77.1203L25.1115 76.8208H24.6491L24.3626 77.1203V77.8613H23.8135V76.8943L24.4283 76.2558H25.3296L25.9524 76.8943V80.1237L25.3296 80.7753H24.4152L23.8135 80.1237Z" fill="#2E769F"/>
<path d="M26.4805 76.9022L27.0953 76.2716H30.7293L31.0656 76.6079L31.402 76.2558H32.3033L32.9102 76.8996V79.903L33.2019 80.2025H33.6328L33.9271 79.903V76.269H34.4684V80.1289L33.8614 80.7727H32.9759L32.3611 80.1289V77.1203L32.0694 76.8208H31.6385L31.3442 77.1203V80.7753H30.8029V77.1203L30.5244 76.826H29.9962V80.1289L29.3813 80.7727H28.4433L27.8284 80.1289V76.826H27.316L27.0296 77.1334V80.7753H26.4805V76.9022ZM28.6719 80.2051H29.1633L29.4497 79.9056V77.1361L29.1633 76.8287H28.6719L28.3776 77.1361V79.9056L28.6719 80.2051Z" fill="#2E769F"/>
<path d="M35.2148 76.9022L35.8139 76.2558H36.7021L37.309 76.9022V80.2051H38.1289V76.2716H38.6859V80.7753H36.752V77.1203L36.4656 76.8208H36.0504L35.764 77.1203V80.7753H35.2148V76.9022Z" fill="#2E769F"/>
<path d="M39.2061 80.1237V78.3947L39.8209 77.7641H40.7222L41.3449 78.3947V80.1237L40.7222 80.7753H39.8051L39.2061 80.1237ZM40.0416 80.2051H40.5041L40.7905 79.8898V78.6154L40.5041 78.329H40.0416L39.7552 78.6154V79.9056L40.0416 80.2051Z" fill="#2E769F"/>
<path d="M20.7439 3.9309C20.7439 3.9309 20.7045 3.89412 20.6257 3.81792C20.5469 3.74434 20.4313 3.63661 20.2762 3.5026C20.1974 3.43428 20.1107 3.36071 20.0108 3.28188C19.9136 3.20306 19.8033 3.11634 19.685 3.02701C19.4433 2.84833 19.1621 2.65389 18.831 2.45419C18.1715 2.05742 17.3175 1.64751 16.2796 1.35585C16.0221 1.2849 15.7515 1.21921 15.473 1.16403C15.3337 1.13513 15.1892 1.11148 15.0447 1.08783C14.9001 1.06681 14.7504 1.04579 14.6006 1.0274C14.0015 0.959077 13.3656 0.938056 12.7061 0.980098C12.5405 0.990609 12.375 1.00375 12.2095 1.02214C12.1674 1.0274 12.1254 1.03265 12.0833 1.03791C12.0413 1.04316 11.9993 1.04842 11.9572 1.05367C11.9152 1.05893 11.8731 1.06681 11.8311 1.07206L11.8022 1.07732L11.7864 1.07995C11.7838 1.07995 11.768 1.08257 11.7785 1.08257L11.7102 1.09309C11.6656 1.10097 11.6209 1.10622 11.5762 1.11411C11.5552 1.11673 11.5315 1.12199 11.5105 1.12462L11.4475 1.13513C11.366 1.15089 11.2845 1.16403 11.1978 1.18242C11.1558 1.19031 11.1138 1.20082 11.0691 1.2087C11.0244 1.21658 10.985 1.22972 10.9403 1.2376C10.8983 1.24811 10.8562 1.25862 10.8116 1.26651C10.7695 1.27702 10.7275 1.28753 10.6828 1.29804C10.3412 1.38475 10.0023 1.49248 9.66331 1.61598C9.32435 1.73948 8.99065 1.88662 8.66219 2.04691C8.33112 2.20719 8.01055 2.39375 7.69786 2.59345C7.38255 2.79315 7.08037 3.0165 6.78871 3.25298C6.20538 3.72858 5.67197 4.27775 5.21477 4.88998L5.13069 5.0056L5.0466 5.12121C4.99142 5.19741 4.93887 5.27887 4.88632 5.35769L4.81012 5.47857L4.7707 5.539L4.73392 5.59943L4.66034 5.72293L4.5894 5.84643C4.56575 5.88847 4.5421 5.93051 4.52108 5.97256L4.45276 6.09868C4.41072 6.18276 4.36342 6.26685 4.32401 6.35619C4.23993 6.52698 4.16635 6.70303 4.09278 6.87908C3.809 7.58854 3.62769 8.3374 3.55149 9.09941C3.54361 9.194 3.5331 9.29123 3.53047 9.38582C3.52784 9.43312 3.52522 9.48041 3.52259 9.52771L3.51733 9.67223C3.51471 9.71953 3.51471 9.76682 3.51471 9.81675C3.51471 9.86404 3.51471 9.91397 3.51471 9.96127C3.51733 10.0585 3.51733 10.1531 3.52259 10.2503C3.52522 10.2976 3.52522 10.3475 3.53047 10.3948L3.54098 10.5393C3.54361 10.5866 3.54887 10.6366 3.55412 10.6839L3.562 10.7548L3.56463 10.7916C3.56726 10.8074 3.56463 10.7916 3.56463 10.8021L3.56726 10.8231L3.58828 10.9808L3.59353 11.0202L3.59879 11.0544L3.6093 11.1227L3.61981 11.191C3.62244 11.2146 3.62769 11.2383 3.63295 11.2619L3.65923 11.4038C3.69601 11.593 3.74068 11.7822 3.79061 11.9688C3.84316 12.1553 3.90096 12.3393 3.96403 12.5232C4.02972 12.7071 4.09804 12.8884 4.17686 13.0671C4.25569 13.2458 4.33978 13.4218 4.42911 13.5953C4.79172 14.2889 5.25944 14.9327 5.81124 15.5081C5.94787 15.6527 6.09239 15.7919 6.23954 15.9259C6.31311 15.9943 6.38931 16.0599 6.46551 16.1256C6.54171 16.1887 6.61791 16.2544 6.69937 16.3175C6.85703 16.441 7.01731 16.5618 7.18548 16.6748C7.35102 16.7878 7.51918 16.9008 7.69261 17.0033C8.03945 17.2108 8.40206 17.3948 8.77255 17.5577C8.95911 17.6391 9.14567 17.7127 9.33749 17.7837C9.5293 17.852 9.72112 17.915 9.91556 17.9728C10.6933 18.2014 11.5 18.3302 12.3014 18.3644C13.0976 18.3985 13.8833 18.3197 14.6479 18.1568C15.0315 18.0753 15.4073 17.9728 15.7751 17.8572C16.143 17.7416 16.5056 17.6102 16.8603 17.4683C17.5698 17.1846 18.2477 16.864 18.902 16.5355C19.2278 16.37 19.5484 16.2045 19.8611 16.0389C20.1764 15.8708 20.4838 15.7078 20.786 15.5476C21.3903 15.2244 21.9763 14.9117 22.5412 14.6279C23.1062 14.3415 23.6501 14.084 24.173 13.858C25.2161 13.4061 26.1726 13.0934 26.9766 12.9173C27.7807 12.736 28.4271 12.6808 28.8633 12.6651C29.0813 12.6572 29.2495 12.6572 29.3625 12.6598C29.4755 12.6624 29.5333 12.6651 29.5333 12.6651C29.5333 12.6651 29.4755 12.6703 29.3625 12.6835C29.2495 12.6966 29.0866 12.715 28.8711 12.7492C28.4428 12.8175 27.8201 12.9436 27.0633 13.1985C26.685 13.3246 26.2751 13.4849 25.8362 13.6767C25.4001 13.8711 24.9376 14.0998 24.4515 14.3599C23.968 14.6226 23.4609 14.9169 22.9327 15.2375C22.4046 15.5607 21.8528 15.9075 21.2747 16.2728C20.9857 16.4541 20.6888 16.6406 20.384 16.8298C20.0792 17.019 19.7665 17.2082 19.4433 17.3974C18.7969 17.7758 18.1084 18.1515 17.3675 18.4957C16.6265 18.84 15.8251 19.15 14.9658 19.376C14.5349 19.4863 14.0908 19.5783 13.6336 19.6388C13.405 19.6703 13.1738 19.6939 12.9426 19.7071C12.8848 19.7123 12.827 19.715 12.7665 19.7176C12.7087 19.7202 12.6483 19.7228 12.5878 19.7255L12.5011 19.7281L12.4197 19.7307H12.3987H12.3724H12.3277H12.241C11.3082 19.7333 10.357 19.6204 9.43208 19.3839C8.50716 19.1474 7.60589 18.79 6.77294 18.3197C6.35515 18.0858 5.95313 17.8231 5.57475 17.534C5.48016 17.4631 5.38556 17.3869 5.2936 17.3133C5.20163 17.2371 5.10967 17.1609 5.02033 17.0821C4.84165 16.9271 4.66823 16.7641 4.50269 16.5934C3.83527 15.9207 3.26771 15.156 2.8289 14.3336C2.72117 14.126 2.61869 13.9184 2.5241 13.7056C2.43213 13.4928 2.34542 13.2773 2.26922 13.0592C2.19302 12.8411 2.1247 12.6204 2.06427 12.3971C2.00646 12.1737 1.95391 11.9504 1.91186 11.7244L1.88559 11.5378C1.88033 11.5089 1.87508 11.4827 1.87245 11.4511L1.85931 11.3644L1.84617 11.2751L1.84092 11.2304L1.83304 11.191L1.81464 11.0333L1.81202 11.0149L1.80939 10.9834L1.80676 10.9414L1.79888 10.8547C1.79362 10.7968 1.78837 10.7417 1.78311 10.6839L1.7726 10.5131C1.76997 10.4553 1.76735 10.4001 1.76472 10.3423C1.75946 10.2293 1.75946 10.1137 1.75684 10.0007C1.75684 9.94287 1.75946 9.88769 1.75946 9.82989C1.76209 9.77208 1.76209 9.7169 1.76472 9.65909L1.7726 9.4883C1.77523 9.43049 1.78048 9.37531 1.78574 9.3175C1.79362 9.20451 1.80676 9.0889 1.81727 8.97591C1.91975 8.06939 2.15886 7.18388 2.51622 6.35093C2.8762 5.51798 3.34917 4.74283 3.91148 4.04389C3.94563 3.99922 3.98242 3.95718 4.01921 3.91514L4.12694 3.78638C4.20051 3.7023 4.27409 3.61822 4.35029 3.53676C4.50006 3.37122 4.65772 3.21357 4.818 3.05854C4.89946 2.98234 4.97829 2.90614 5.06237 2.83256C5.10441 2.79578 5.14645 2.75899 5.18587 2.7222C5.22791 2.68542 5.26995 2.65126 5.31199 2.61447C5.39607 2.54353 5.48279 2.47521 5.56687 2.40426C5.61154 2.3701 5.65358 2.33594 5.69825 2.30441C5.74029 2.27025 5.78496 2.2361 5.82963 2.20456C6.53383 1.68167 7.29321 1.25074 8.06835 0.917036C8.45724 0.748869 8.85138 0.609605 9.2429 0.488735C9.63704 0.367865 10.0312 0.275899 10.4227 0.199698C10.47 0.189188 10.5199 0.181305 10.5698 0.173422C10.6198 0.165539 10.6671 0.157657 10.717 0.149774C10.7643 0.141891 10.8142 0.134008 10.8615 0.126125C10.9088 0.118242 10.9587 0.112987 11.006 0.105104C11.1006 0.0919663 11.2005 0.0788283 11.3003 0.0683178L11.3739 0.060435C11.3975 0.0578074 11.4186 0.0551798 11.4422 0.0551798C11.4869 0.0499246 11.5315 0.047297 11.5788 0.0420417L11.6472 0.0367865C11.6682 0.0341589 11.6629 0.0341589 11.6734 0.0341589L11.6918 0.0315313L11.7286 0.0289037C11.7759 0.0262761 11.8232 0.0210209 11.8705 0.0183933C11.9178 0.0157657 11.9651 0.013138 12.0124 0.0105104C12.0597 0.00788283 12.107 0.00788283 12.1543 0.00525522C12.333 0.00262761 12.5195 0 12.7008 0C13.4313 0.00788283 14.1276 0.0893387 14.7714 0.218092C14.9317 0.249623 15.0893 0.286409 15.2444 0.325824C15.3994 0.365238 15.5492 0.404652 15.6963 0.449321C15.9906 0.53866 16.2744 0.635881 16.5398 0.740986C17.0732 0.951194 17.5514 1.18768 17.9692 1.43467C18.387 1.68167 18.7496 1.93392 19.0596 2.18092C19.3697 2.42528 19.6298 2.66177 19.8427 2.8746C20.0581 3.08744 20.2263 3.27926 20.3577 3.43428C20.4891 3.59194 20.5837 3.71544 20.6493 3.79952C20.7124 3.88886 20.7439 3.9309 20.7439 3.9309Z" fill="#3592BA"/>
<path d="M25.9708 12.5468C25.9708 12.5468 25.9313 12.5494 25.8551 12.5547C25.8157 12.5573 25.7684 12.56 25.7132 12.5652C25.6581 12.5705 25.5924 12.5784 25.5214 12.5862C25.3769 12.6046 25.1982 12.6309 24.9907 12.6677C24.9381 12.6782 24.8855 12.6887 24.8304 12.6992C24.8015 12.7045 24.7752 12.7097 24.7463 12.7176C24.7174 12.7255 24.6885 12.7308 24.6596 12.7386C24.6018 12.7518 24.5413 12.7649 24.4783 12.7807C24.4178 12.7964 24.3548 12.8122 24.2891 12.8306C24.0316 12.9042 23.7478 12.9909 23.4482 13.1039C23.1487 13.2169 22.8281 13.3482 22.4944 13.5033C21.8244 13.8107 21.0939 14.2101 20.3056 14.6673C19.9089 14.8985 19.4963 15.1403 19.068 15.3925C18.9603 15.4556 18.8499 15.5186 18.7396 15.5817C18.6818 15.6132 18.624 15.6448 18.5661 15.6789C18.5372 15.6947 18.511 15.7105 18.4821 15.7262C18.4505 15.742 18.4216 15.7578 18.3901 15.7735C18.3297 15.8051 18.2666 15.8392 18.2035 15.8681C18.1405 15.8996 18.08 15.9286 18.017 15.9601C17.9539 15.9916 17.8909 16.0179 17.8278 16.0468C17.7647 16.0757 17.699 16.1046 17.636 16.1335C17.3758 16.2465 17.1078 16.349 16.8293 16.4462C16.5534 16.5434 16.2644 16.6249 15.9701 16.6984C15.6758 16.772 15.371 16.8324 15.0609 16.8797C14.7509 16.927 14.4329 16.9612 14.1097 16.9743C13.7865 16.9901 13.4581 16.9875 13.127 16.9691C12.7959 16.9481 12.4622 16.906 12.1311 16.843C11.8001 16.7799 11.469 16.6984 11.1432 16.5933C10.82 16.4882 10.502 16.3621 10.192 16.2176C10.1158 16.1808 10.0396 16.1414 9.96336 16.1046C9.92394 16.0862 9.88716 16.0652 9.85037 16.0442L9.73738 15.9837L9.6822 15.9522L9.6533 15.9364L9.61651 15.9154L9.51929 15.8576L9.46937 15.8287C9.4536 15.8182 9.43783 15.8103 9.41944 15.7972L9.30645 15.7262C9.26967 15.7026 9.23025 15.6789 9.1961 15.6553L9.09099 15.5843C9.05683 15.5607 9.02005 15.537 8.98589 15.5134L8.88341 15.4398L8.78093 15.3662L8.68108 15.2874L8.58123 15.2086L8.48401 15.1271C7.96637 14.6988 7.5118 14.2048 7.12817 13.6688C6.74716 13.1328 6.43711 12.5547 6.21639 11.9504C5.99304 11.346 5.85378 10.718 5.80648 10.09L5.7986 9.97176L5.79334 9.85352L5.78809 9.73528C5.78809 9.69587 5.78809 9.65645 5.78809 9.61704V9.4988V9.48303C5.78809 9.48303 5.78809 9.43836 5.78809 9.44887V9.42259L5.79071 9.37004C5.79334 9.2991 5.79597 9.23078 5.7986 9.15983L5.80122 9.10728C5.80385 9.08889 5.80385 9.06787 5.80648 9.04685L5.81699 8.92598C5.82487 8.84452 5.83276 8.76306 5.84327 8.68424C5.85378 8.60804 5.86691 8.53183 5.87742 8.45563L5.89582 8.34002C5.90107 8.30323 5.91158 8.26382 5.91947 8.22703C6.04296 7.62268 6.24003 7.03935 6.51068 6.49807C6.64731 6.23005 6.79446 5.96729 6.96263 5.72029C7.00467 5.65723 7.04408 5.5968 7.08875 5.53636C7.13342 5.47593 7.17809 5.41549 7.22276 5.35768L7.28845 5.26834C7.30947 5.23944 7.33575 5.21054 7.3594 5.18163C7.40669 5.12383 7.45399 5.06865 7.50129 5.01084C7.54596 4.95303 7.59851 4.90048 7.64843 4.8453C7.69836 4.79012 7.74828 4.73757 7.79558 4.68239C7.84813 4.62984 7.90068 4.57991 7.95061 4.52736L8.02944 4.45116L8.06885 4.41437L8.10826 4.37758C8.16344 4.33029 8.216 4.28036 8.26855 4.23307L8.35 4.16212L8.43409 4.0938C8.48927 4.04913 8.54445 4.00446 8.59963 3.95717L8.64167 3.92301L8.68371 3.89148C8.71262 3.87046 8.74152 3.84944 8.77042 3.82841C9.22763 3.48945 9.70848 3.2083 10.1998 2.98495C10.6886 2.75898 11.1878 2.59081 11.6739 2.47257C12.16 2.35433 12.6383 2.28601 13.0902 2.25448C13.148 2.25185 13.2032 2.24659 13.2584 2.24397C13.2873 2.24134 13.3136 2.24134 13.3425 2.23871C13.3687 2.23871 13.3976 2.23871 13.4265 2.23871C13.5369 2.23608 13.6446 2.23608 13.7524 2.23608C13.8601 2.23871 13.9652 2.24397 14.0677 2.24659C14.094 2.24659 14.1202 2.24922 14.1439 2.24922C14.1596 2.24922 14.1544 2.24922 14.1596 2.24922H14.1702L14.1886 2.25185L14.2253 2.25448C14.2726 2.2571 14.3226 2.26236 14.3699 2.26499L14.4066 2.26762L14.4434 2.27287C14.4671 2.2755 14.4934 2.27813 14.5196 2.28075C14.5696 2.28601 14.6195 2.29126 14.6668 2.29652C14.764 2.30966 14.856 2.3228 14.9479 2.33593C15.032 2.36484 15.1214 2.37797 15.2081 2.39637C15.2948 2.41476 15.3815 2.43315 15.4656 2.45155C15.7993 2.53038 16.0988 2.61971 16.359 2.71431C16.6217 2.81153 16.8477 2.90875 17.0421 3.00072C17.0894 3.02437 17.1367 3.04802 17.1814 3.06904C17.2261 3.09268 17.2681 3.11108 17.3075 3.13473C17.3864 3.1794 17.4573 3.21618 17.5204 3.25297C17.5834 3.28976 17.6386 3.32391 17.6859 3.35282C17.7332 3.38172 17.77 3.408 17.8041 3.42902C17.8672 3.46843 17.8987 3.48945 17.8987 3.48945C17.8987 3.48945 17.862 3.47632 17.791 3.45004C17.7542 3.4369 17.7122 3.41851 17.6596 3.40011C17.6071 3.38172 17.5466 3.3607 17.4783 3.33705C17.41 3.3134 17.3312 3.28975 17.2471 3.26085C17.1604 3.23458 17.0684 3.20567 16.9659 3.1794C16.916 3.16626 16.8635 3.15312 16.8083 3.13735C16.7531 3.12159 16.6953 3.11108 16.6375 3.09794C16.6086 3.09006 16.5797 3.0848 16.5481 3.07692C16.5192 3.06904 16.4877 3.06378 16.4562 3.05853C16.3931 3.04539 16.3301 3.03225 16.2644 3.01911C15.999 2.97181 15.7047 2.92715 15.3841 2.9035C15.3027 2.89824 15.2212 2.89299 15.1397 2.88773C15.0557 2.88248 14.9716 2.88248 14.8849 2.87722C14.7982 2.87722 14.7114 2.87722 14.6221 2.87722C14.5774 2.87722 14.5354 2.87985 14.4907 2.87985C14.4697 2.87985 14.4461 2.88248 14.425 2.88248H14.3909L14.3541 2.8851C14.3068 2.88773 14.2569 2.89036 14.2096 2.89299L14.1728 2.89561H14.1544H14.1439C14.1439 2.89561 14.1307 2.89561 14.1413 2.89561C14.1176 2.89824 14.094 2.90087 14.0703 2.9035C13.9757 2.91138 13.8811 2.92189 13.7839 2.92977C13.6893 2.94291 13.5921 2.95605 13.4922 2.96919C13.4686 2.97181 13.4423 2.97444 13.4187 2.9797C13.395 2.98232 13.3687 2.98758 13.3451 2.99284C13.2952 3.00072 13.2452 3.01123 13.1953 3.01911C12.7959 3.09531 12.386 3.20042 11.9761 3.35019C11.5662 3.49734 11.1563 3.6839 10.7595 3.91513C10.3628 4.14373 9.97912 4.417 9.62177 4.72968C9.26704 5.04237 8.93333 5.39447 8.64692 5.78598C8.61277 5.83591 8.57598 5.88583 8.54182 5.93313C8.52343 5.95941 8.50503 5.98305 8.48927 6.0067L8.43934 6.0829C8.40518 6.13283 8.37365 6.18538 8.33949 6.2353C8.30796 6.28786 8.27906 6.34041 8.24753 6.39296L8.20286 6.47179L8.17921 6.5112C8.17133 6.52434 8.16607 6.53748 8.15819 6.55062C8.12929 6.6058 8.10301 6.65835 8.07411 6.71353C8.06097 6.73981 8.0452 6.76871 8.03206 6.79499L7.99528 6.87907C7.969 6.93425 7.94535 6.98943 7.91908 7.04724C7.72726 7.49918 7.59063 7.97478 7.51443 8.46614C7.50917 8.49768 7.50129 8.52658 7.49866 8.55811L7.48815 8.65008C7.48027 8.71314 7.47501 8.77357 7.46713 8.83664C7.4645 8.89444 7.45925 8.95488 7.45662 9.01269L7.45136 9.0994C7.45136 9.11516 7.44874 9.1283 7.44874 9.14407V9.19662C7.44874 9.26756 7.44611 9.33588 7.44611 9.40683V9.45938V9.48566C7.44611 9.50668 7.44611 9.46989 7.44611 9.47777V9.49091L7.44874 9.58551C7.44874 9.61704 7.45136 9.64857 7.45136 9.6801L7.45925 9.77469L7.46713 9.86929L7.47764 9.96388C7.50391 10.2135 7.54596 10.4631 7.60639 10.7101C7.66683 10.9571 7.74303 11.2015 7.83499 11.4406C8.02155 11.9188 8.26855 12.3813 8.57335 12.807C8.87815 13.2353 9.23814 13.6268 9.64279 13.9736L9.71899 14.0393L9.79782 14.1024L9.87665 14.1654L9.95547 14.2259L10.0343 14.2863C10.0606 14.3073 10.0895 14.3257 10.1158 14.3441L10.1972 14.4019C10.2235 14.4203 10.2498 14.4361 10.276 14.4545L10.3549 14.507C10.3654 14.5149 10.3838 14.5254 10.3995 14.5359L10.4468 14.5648L10.5441 14.6253L10.5546 14.6331C10.5493 14.6305 10.5703 14.641 10.5546 14.6331L10.5756 14.6463L10.6203 14.6699C10.6781 14.7015 10.7359 14.7382 10.7937 14.7698C10.8515 14.8013 10.9119 14.8328 10.9697 14.8617C11.9236 15.3426 12.9956 15.5738 14.0598 15.5738C14.1255 15.5738 14.1912 15.5738 14.2595 15.5712C14.3278 15.5686 14.3935 15.5659 14.4592 15.5659C14.5906 15.5581 14.7246 15.5528 14.856 15.537C15.1187 15.5108 15.3789 15.4766 15.6364 15.4293C15.7021 15.4188 15.7651 15.4057 15.8282 15.3925C15.8912 15.3794 15.9569 15.3662 16.0174 15.3505C16.0804 15.3373 16.1435 15.3216 16.2066 15.3084C16.2696 15.2927 16.3327 15.2769 16.3931 15.2611C16.4562 15.2454 16.5166 15.227 16.5797 15.2112C16.6401 15.1928 16.7032 15.1771 16.7636 15.1587C16.824 15.1403 16.8845 15.1219 16.9449 15.1035C17.0054 15.0825 17.0658 15.0641 17.1236 15.043C17.184 15.0247 17.2418 15.001 17.2996 14.98C17.3574 14.959 17.4179 14.9379 17.4757 14.9143C17.5335 14.8906 17.5913 14.8696 17.6491 14.846C17.7069 14.825 17.7595 14.8013 17.8147 14.7777C17.8409 14.7672 17.8698 14.754 17.8961 14.7435C17.925 14.7304 17.9539 14.7172 17.9828 14.7041C18.038 14.6778 18.0958 14.6542 18.151 14.6305C18.2666 14.578 18.3796 14.5254 18.4926 14.4729C18.9445 14.2653 19.386 14.0603 19.8143 13.8685C20.6735 13.4875 21.4854 13.1643 22.2343 12.941C22.9805 12.7124 23.6558 12.5784 24.2155 12.5205C24.4967 12.489 24.7463 12.4811 24.9644 12.4759C25.0196 12.4759 25.0721 12.4759 25.122 12.4759C25.172 12.4759 25.2193 12.4759 25.2666 12.4785C25.3112 12.4811 25.3559 12.4838 25.3979 12.4838C25.44 12.4864 25.4794 12.489 25.5162 12.4916C25.5897 12.4969 25.6554 12.5048 25.7132 12.51C25.7684 12.5179 25.8157 12.5232 25.8551 12.5284C25.9313 12.5416 25.9708 12.5468 25.9708 12.5468Z" fill="#276692"/>
<path d="M14.1573 13.4533C14.1573 13.4533 14.1415 13.4533 14.11 13.4507C14.0785 13.4481 14.0312 13.4481 13.9681 13.4402C13.9051 13.435 13.8289 13.4271 13.7421 13.4139C13.6528 13.4008 13.5503 13.3824 13.4373 13.3561C13.2114 13.3036 12.9355 13.2247 12.6359 13.096C12.5597 13.0645 12.4835 13.0277 12.4073 12.9909C12.3679 12.9725 12.3285 12.9515 12.2891 12.9305L12.2602 12.9147L12.2575 12.9121C12.2418 12.9016 12.2523 12.9068 12.247 12.9042L12.2392 12.9016L12.226 12.8937C12.2076 12.8832 12.1892 12.8726 12.1708 12.8621C12.134 12.8411 12.0946 12.8201 12.0578 12.7991L12.0289 12.7833L11.9974 12.7623C11.9764 12.7492 11.9554 12.736 11.9343 12.7229C11.8923 12.6966 11.8503 12.6677 11.8082 12.6388C11.7662 12.6099 11.7294 12.581 11.6874 12.5495C11.3642 12.3077 11.0436 12.0055 10.7677 11.6377C10.7335 11.5904 10.6967 11.5457 10.6652 11.4984C10.6337 11.4511 10.6022 11.4012 10.568 11.3513C10.5338 11.3013 10.5049 11.2514 10.476 11.1989C10.4603 11.1726 10.4471 11.1463 10.4314 11.12L10.4077 11.0806L10.3867 11.0412C10.3604 10.9887 10.3315 10.9335 10.3052 10.8783C10.279 10.8231 10.2553 10.7679 10.2317 10.7101C10.2185 10.6812 10.208 10.6549 10.1949 10.626C10.1844 10.5971 10.1738 10.5682 10.1607 10.5393C10.1397 10.4815 10.116 10.4237 10.0976 10.3633C10.0188 10.1268 9.96101 9.87717 9.91897 9.6223C9.88218 9.36742 9.86379 9.10466 9.86905 8.83927C9.88219 8.30849 9.98992 7.7672 10.1922 7.25745L10.2317 7.16285C10.2448 7.13132 10.2579 7.09979 10.2711 7.06826L10.3578 6.8817C10.3893 6.81864 10.4235 6.7582 10.455 6.69777C10.4708 6.66624 10.4865 6.63733 10.5049 6.6058L10.5601 6.51646L10.6153 6.42712L10.6416 6.38245L10.6705 6.34041C10.7099 6.2826 10.7493 6.22743 10.7887 6.16962C10.8281 6.11444 10.8728 6.05926 10.9148 6.00408C10.9359 5.9778 10.9569 5.9489 10.9805 5.92262L11.0488 5.84379L11.1172 5.76497L11.1513 5.72555L11.1592 5.71504L11.1645 5.70979C11.1855 5.68614 11.1723 5.7019 11.1776 5.69402L11.1934 5.67826C11.2354 5.63359 11.2774 5.59154 11.3195 5.54687C11.372 5.49695 11.4246 5.44703 11.4798 5.39447L11.5008 5.37608L11.5192 5.35769L11.5586 5.32353L11.6348 5.25521C11.845 5.07916 12.0657 4.91888 12.2943 4.77699C12.7515 4.4932 13.2376 4.29351 13.7106 4.16212C14.1862 4.03337 14.646 3.97294 15.0665 3.96768C15.119 3.96768 15.1716 3.96768 15.2215 3.96768C15.274 3.97031 15.324 3.97031 15.3739 3.97294C15.4238 3.97556 15.4737 3.97819 15.521 3.98082C15.5683 3.98345 15.6183 3.9887 15.6629 3.99396C15.7102 3.99921 15.7549 4.00447 15.8022 4.00972C15.8258 4.01235 15.8469 4.01498 15.8705 4.01761C15.8915 4.02023 15.9152 4.02549 15.9362 4.02812C15.9809 4.036 16.0229 4.04125 16.0649 4.04914C16.107 4.05702 16.149 4.06753 16.1884 4.07541C16.2279 4.0833 16.2699 4.09118 16.3067 4.10169C16.3461 4.1122 16.3829 4.12008 16.4197 4.13059C16.4932 4.14899 16.5642 4.17264 16.6325 4.19103C16.7008 4.21205 16.7639 4.2357 16.8243 4.25672C16.8848 4.27774 16.9399 4.30139 16.9951 4.32241C17.1029 4.36445 17.1922 4.41175 17.2737 4.44853C17.3525 4.49058 17.4182 4.52473 17.4681 4.55627C17.5706 4.61933 17.6231 4.65349 17.6231 4.65349C17.6231 4.65349 17.5574 4.64823 17.4366 4.63247C17.4077 4.62984 17.3709 4.62721 17.3341 4.62458C17.2973 4.62196 17.2579 4.6167 17.2132 4.61407C17.1685 4.61145 17.1239 4.60882 17.074 4.60619C17.0503 4.60356 17.024 4.60356 16.9978 4.60094C16.9715 4.60094 16.9452 4.59831 16.9163 4.59831C16.8611 4.59568 16.8033 4.59568 16.7429 4.59568C16.6824 4.59568 16.6194 4.59305 16.5537 4.59568C16.4223 4.59831 16.2804 4.60356 16.1333 4.6167C15.9835 4.62721 15.8285 4.64823 15.6656 4.67188C15.6261 4.67976 15.5841 4.68502 15.5421 4.6929C15.5 4.70078 15.458 4.70604 15.4159 4.71655C15.3739 4.72443 15.3318 4.73494 15.2898 4.74283C15.2478 4.75334 15.2057 4.76385 15.1611 4.77436C14.8168 4.85844 14.4595 4.98194 14.1074 5.14485C13.7553 5.31039 13.4084 5.51534 13.0905 5.76759C12.9302 5.89372 12.7778 6.02773 12.6333 6.17487L12.5781 6.23005L12.5518 6.25633L12.5387 6.26947L12.5282 6.28261C12.4967 6.31676 12.4651 6.35355 12.4336 6.38771C12.3942 6.43238 12.3548 6.47968 12.3154 6.52435L12.3022 6.54274C12.3048 6.54011 12.2891 6.55588 12.3075 6.53486L12.3048 6.54011L12.2996 6.54799L12.2759 6.57953L12.2286 6.63996L12.1813 6.70039C12.1656 6.72142 12.1524 6.74244 12.1367 6.76346C12.1078 6.8055 12.0762 6.84754 12.0473 6.88958C12.0211 6.93425 11.9922 6.97629 11.9659 7.01834L11.9449 7.04987L11.937 7.09454L11.8976 7.16023L11.8581 7.22592C11.845 7.24957 11.8345 7.27059 11.824 7.29423C11.803 7.3389 11.7767 7.38357 11.7557 7.43087L11.6926 7.57013C11.6716 7.6148 11.6558 7.66473 11.6348 7.71202C11.485 8.08777 11.3931 8.48191 11.3563 8.87605C11.3536 8.8997 11.351 8.92598 11.351 8.94963L11.3458 9.0232L11.3405 9.09677V9.17035V9.24392C11.3405 9.26757 11.3379 9.29384 11.3405 9.31749C11.3431 9.36742 11.3431 9.41471 11.3458 9.46464C11.3484 9.51194 11.3536 9.56186 11.3563 9.60916C11.3589 9.63281 11.3589 9.65646 11.3615 9.6801C11.3642 9.70375 11.3668 9.7274 11.372 9.75105C11.3747 9.7747 11.3773 9.79835 11.3825 9.82199L11.3878 9.85878L11.3931 9.89557C11.4009 9.94286 11.4088 9.99016 11.4167 10.0375C11.4561 10.224 11.5008 10.408 11.5612 10.584L11.5717 10.6182L11.5849 10.6497C11.5928 10.6707 11.6006 10.6944 11.6085 10.7154C11.6243 10.7601 11.6401 10.8021 11.6584 10.8441C11.6768 10.8862 11.6952 10.9282 11.7136 10.9703C11.732 11.0123 11.753 11.0517 11.7714 11.0938C11.9265 11.4222 12.1235 11.7139 12.3285 11.974C12.3548 12.0055 12.381 12.0397 12.4047 12.0686C12.431 12.0975 12.4572 12.129 12.4809 12.1553C12.494 12.1711 12.5072 12.1842 12.5177 12.2L12.5361 12.221L12.5597 12.2446C12.5886 12.2762 12.6202 12.3051 12.6491 12.3366C12.6648 12.3524 12.678 12.3655 12.6937 12.3813L12.7042 12.3918L12.7095 12.3971C12.7069 12.3944 12.7174 12.4049 12.7042 12.3944L12.7069 12.3971L12.7279 12.4154C12.7542 12.4417 12.7804 12.468 12.8093 12.4943C12.8645 12.5468 12.9171 12.5941 12.9723 12.6414C13.08 12.7334 13.1851 12.8201 13.2849 12.8963C13.3848 12.9725 13.482 13.0382 13.5687 13.0986C13.6134 13.1275 13.6554 13.1564 13.6975 13.1801C13.7369 13.2064 13.7763 13.23 13.8131 13.251C13.8499 13.2747 13.884 13.2931 13.9129 13.3115C13.9445 13.3299 13.9734 13.3456 13.997 13.3614C14.0496 13.3903 14.089 13.4139 14.1153 13.4271C14.1442 13.4455 14.1573 13.4533 14.1573 13.4533Z" fill="#276692"/>
<path d="M33.4699 12.3051C33.4699 12.3051 33.4226 12.313 33.3332 12.3261C33.2439 12.3419 33.1099 12.3603 32.9365 12.3918C32.7631 12.4207 32.5502 12.4628 32.3032 12.5127C32.2402 12.5258 32.1771 12.5416 32.1114 12.5547C32.0772 12.5626 32.0431 12.5705 32.0116 12.5757C31.9774 12.5836 31.9432 12.5915 31.9065 12.602C31.8355 12.6204 31.7646 12.6362 31.6884 12.6546C31.6148 12.673 31.5386 12.694 31.4598 12.715C30.8344 12.8832 30.0934 13.1275 29.2972 13.4928C29.2473 13.5138 29.1974 13.5401 29.1475 13.5637C29.0975 13.5874 29.0476 13.611 28.9951 13.6373C28.8952 13.6872 28.7927 13.7398 28.6903 13.7923C28.4853 13.9001 28.2777 14.013 28.0675 14.1365C27.8573 14.2574 27.6471 14.3914 27.4343 14.5281C27.2214 14.6673 27.006 14.8118 26.7905 14.9669C26.3596 15.2743 25.9208 15.6106 25.4714 15.9706C25.0221 16.3306 24.5649 16.7142 24.0867 17.1084C23.8476 17.3081 23.6032 17.5078 23.3536 17.7101C23.2275 17.8126 23.1013 17.9124 22.9726 18.0149C22.8438 18.1174 22.7124 18.2172 22.5811 18.3197C22.3183 18.5247 22.045 18.727 21.7639 18.9293C21.4827 19.1316 21.1937 19.3313 20.8941 19.5258C20.2977 19.9173 19.6592 20.2878 18.9891 20.6294C18.6528 20.7975 18.3086 20.9578 17.9565 21.1102C17.6044 21.26 17.2444 21.4019 16.8765 21.5306C16.7846 21.5622 16.6926 21.5937 16.6006 21.6252L16.4614 21.6725L16.3221 21.7172C16.2301 21.7461 16.1355 21.7776 16.0409 21.8039C15.9464 21.8328 15.8544 21.8591 15.7598 21.8854C15.6652 21.9143 15.5706 21.9379 15.476 21.9642L15.3341 22.0036L15.2632 22.022L15.1843 22.043L15.0477 22.0772L14.9794 22.0929L14.9452 22.1008L14.9084 22.1087C14.806 22.1297 14.7035 22.1534 14.6036 22.177C13.8154 22.3426 13.0061 22.4398 12.1994 22.4713C11.3927 22.5002 10.5834 22.4634 9.79512 22.3531C9.40098 22.3005 9.01209 22.2296 8.63109 22.1429C8.25009 22.0562 7.87434 21.9537 7.5091 21.8354C6.04552 21.3651 4.73172 20.6451 3.65703 19.778C2.57971 18.9109 1.7415 17.8914 1.15817 16.8404C1.01103 16.5776 0.882272 16.3122 0.766658 16.0468C0.737754 15.9811 0.70885 15.9154 0.682574 15.8471C0.656298 15.7814 0.630022 15.7131 0.603746 15.6474C0.553821 15.5134 0.503897 15.382 0.461855 15.2507C0.417186 15.1193 0.380399 14.9853 0.340985 14.8565C0.306826 14.7251 0.27004 14.5937 0.241136 14.465C0.233253 14.4335 0.22537 14.3993 0.217487 14.3678L0.206977 14.3205L0.204349 14.3073C0.204349 14.3047 0.196467 14.2784 0.199094 14.2837L0.188584 14.2679C0.178073 14.2075 0.164935 14.1444 0.154425 14.084C0.130776 13.9605 0.107128 13.8449 0.0913622 13.7109C0.0755965 13.5821 0.0545756 13.4534 0.0414376 13.3272C0.0309272 13.2037 0.0230443 13.0802 0.0125339 12.9567C0.00990628 12.9252 0.00727867 12.8963 0.00727867 12.8648C0.00727867 12.8333 0.00465106 12.8043 0.00465106 12.7728C0.00202345 12.7124 0.00202345 12.6519 -0.000604157 12.5941C-0.00323177 12.5363 -0.00323177 12.4759 -0.00585938 12.4181C-0.00585938 12.3603 -0.00323177 12.2998 -0.000604157 12.242C0.00465106 11.777 0.0572032 11.3355 0.122893 10.9282C0.264784 10.1084 0.496014 9.4121 0.735126 8.8603C0.743009 8.84191 0.748264 8.82615 0.756147 8.80775C0.76403 8.79199 0.771913 8.77359 0.779796 8.75783C0.795561 8.72367 0.811327 8.69214 0.824465 8.65798C0.853369 8.59229 0.882272 8.52923 0.911176 8.46879C0.926942 8.43989 0.94008 8.40836 0.955846 8.37945C0.971611 8.35055 0.987377 8.32164 1.00051 8.29274C1.02942 8.23756 1.05832 8.18238 1.08723 8.12983C1.1135 8.07728 1.14241 8.02735 1.16605 7.98006C1.19233 7.93276 1.22123 7.88809 1.24488 7.84342C1.29481 7.75671 1.3421 7.68051 1.38415 7.60956C1.42619 7.53862 1.46823 7.48081 1.50239 7.42826C1.53655 7.37571 1.56545 7.33366 1.5891 7.29688C1.6364 7.22593 1.66004 7.19177 1.66004 7.19177C1.66004 7.19177 1.59961 7.34943 1.48662 7.64372C1.46035 7.71729 1.43407 7.80138 1.40254 7.89334C1.38677 7.93801 1.37101 7.98531 1.35261 8.03523C1.33685 8.08516 1.32108 8.13771 1.30532 8.19026C1.23963 8.40836 1.17394 8.65798 1.10825 8.9365C0.982122 9.49356 0.879645 10.1767 0.869134 10.9493C0.869134 11.3355 0.879645 11.7428 0.934825 12.1685C0.94008 12.221 0.945335 12.2762 0.953218 12.3287C0.961101 12.3813 0.971611 12.4365 0.979494 12.489C0.987377 12.5416 0.997887 12.5968 1.00577 12.6519C1.01103 12.6782 1.01365 12.7071 1.01891 12.7334C1.02416 12.7597 1.02942 12.7886 1.03467 12.8149C1.05832 12.9252 1.08197 13.0356 1.10562 13.1459C1.1319 13.2563 1.16343 13.364 1.1897 13.4718C1.21598 13.5769 1.25539 13.7004 1.29218 13.8186C1.31057 13.879 1.32897 13.9395 1.34736 13.9973C1.36575 14.0498 1.38677 14.105 1.40517 14.1576C1.41568 14.1865 1.42619 14.2154 1.4367 14.2443C1.44721 14.2732 1.45772 14.3021 1.47086 14.3284C1.49188 14.3862 1.51553 14.4413 1.53655 14.4992C1.58384 14.6121 1.63114 14.7278 1.68369 14.8407C1.70997 14.8986 1.73625 14.9564 1.76252 15.0115C1.79143 15.0693 1.8177 15.1245 1.84661 15.1823C1.87551 15.2401 1.90441 15.2953 1.93594 15.3531C1.96485 15.4109 1.99901 15.4661 2.02791 15.5239C2.15666 15.7499 2.29067 15.9759 2.44307 16.1966C3.04217 17.0821 3.84096 17.9203 4.81843 18.6271C5.30717 18.9792 5.83794 19.3024 6.40551 19.5783C6.68929 19.7176 6.98095 19.8463 7.28313 19.9646C7.58268 20.0828 7.89273 20.1879 8.20805 20.2825C9.4693 20.6583 10.8357 20.8343 12.2073 20.7818C12.8931 20.7581 13.5789 20.6767 14.2515 20.5427C14.333 20.5269 14.4118 20.5085 14.4933 20.4927L14.5248 20.4875L14.559 20.4796L14.6273 20.4638L14.7639 20.4323L14.8191 20.4192L14.8822 20.4034L15.0109 20.3719C15.095 20.3508 15.1817 20.3298 15.2658 20.3062C15.3499 20.2825 15.434 20.2589 15.5181 20.2379C15.6021 20.2142 15.6862 20.1879 15.7677 20.1643L15.8938 20.1275L16.0173 20.0881C16.0988 20.0618 16.1828 20.0355 16.2643 20.0093C16.5927 19.9015 16.9159 19.7806 17.2339 19.6572C17.5518 19.531 17.8645 19.397 18.1719 19.2551C18.4794 19.1132 18.7815 18.9635 19.0758 18.8084C19.3728 18.6534 19.6618 18.4905 19.9456 18.3223C21.086 17.6523 22.137 16.8982 23.1565 16.1729C23.4114 15.9916 23.6636 15.8103 23.9159 15.6369C24.1681 15.4609 24.4178 15.2874 24.6674 15.1219C25.1666 14.7856 25.6633 14.4729 26.1572 14.1891C27.1452 13.6215 28.1227 13.1853 29.0213 12.9016C29.2447 12.8306 29.4654 12.7649 29.6782 12.7098C29.8911 12.6546 30.096 12.6073 30.2957 12.5652C30.6925 12.4812 31.0604 12.426 31.3914 12.3866C31.7225 12.3445 32.0194 12.3261 32.2769 12.313C32.34 12.3077 32.4031 12.3077 32.4635 12.3051C32.5239 12.3025 32.5791 12.3025 32.6343 12.2998C32.6895 12.2972 32.7394 12.2972 32.7893 12.2972C32.8393 12.2972 32.8839 12.2972 32.9286 12.2972C33.0179 12.2972 33.0941 12.2972 33.1625 12.2998C33.2281 12.3025 33.2859 12.3025 33.3306 12.3051C33.4226 12.3051 33.4699 12.3051 33.4699 12.3051Z" fill="#2E769F"/>
<path d="M34.5578 11.4537H28.6221V14.5254H34.5578V11.4537Z" fill="white"/>
<path d="M11.7213 69.876C11.6609 69.876 11.611 69.8576 11.5689 69.8208C11.5269 69.784 11.5059 69.7289 11.5059 69.6605V68.6726C11.5059 68.5964 11.5243 68.5386 11.561 68.4991C11.5978 68.4597 11.6478 68.4387 11.7082 68.4387H11.8159V68.1313C11.8159 68.063 11.8396 68.0051 11.8869 67.9579C11.9342 67.9106 11.992 67.8869 12.0655 67.8869C12.1391 67.8869 12.1969 67.9106 12.2416 67.9579C12.2863 68.0051 12.3099 68.063 12.3099 68.1313V68.4387H12.3992C12.4649 68.4387 12.5149 68.4571 12.5543 68.4939C12.5937 68.5307 12.6121 68.5885 12.6121 68.662V69.6684C12.6121 69.7446 12.5963 69.7972 12.5674 69.8287C12.5385 69.8602 12.4938 69.876 12.436 69.876H12.3625V69.7525H12.4281C12.4571 69.7525 12.4728 69.7446 12.4781 69.7289C12.4807 69.7262 12.4807 69.7131 12.4807 69.6868V68.6804C12.4807 68.6069 12.4544 68.5701 12.4019 68.5701H12.3047V69.6789C12.3047 69.7473 12.281 69.7972 12.2337 69.8313C12.1864 69.8655 12.1286 69.8813 12.0603 69.8813C11.9683 69.8813 11.9079 69.8602 11.8737 69.8156C11.8606 69.8313 11.8422 69.8445 11.8159 69.8576C11.7923 69.8707 11.7607 69.876 11.7213 69.876ZM11.7213 69.7525C11.7476 69.7525 11.7686 69.7446 11.787 69.7289C11.8054 69.7131 11.8133 69.6921 11.8133 69.6658V68.5675H11.7003C11.674 68.5675 11.6583 68.578 11.6477 68.6016C11.6372 68.6226 11.6346 68.6489 11.6346 68.6726V69.6684C11.6346 69.7236 11.6635 69.7525 11.7213 69.7525ZM12.1759 68.1286C12.1759 68.0971 12.1654 68.0708 12.1417 68.0472C12.1207 68.0235 12.0944 68.013 12.0629 68.013C12.0314 68.013 12.0051 68.0235 11.9815 68.0472C11.9578 68.0708 11.9473 68.0971 11.9473 68.1286V68.4361H12.1759V68.1286ZM12.0629 69.7551C12.0971 69.7551 12.1233 69.7473 12.1444 69.7341C12.1654 69.721 12.1759 69.6947 12.1759 69.6632V68.5701H11.9473V69.6711C11.9473 69.6947 11.9578 69.7157 11.9788 69.7315C11.9972 69.7473 12.0261 69.7551 12.0629 69.7551Z" fill="#010101"/>
<path d="M13.3106 69.65C13.3106 69.7262 13.2896 69.7814 13.2476 69.8182C13.2055 69.855 13.153 69.8734 13.0847 69.8734C13.019 69.8734 12.9664 69.855 12.9244 69.8156C12.8823 69.7762 12.8613 69.7183 12.8613 69.6448V68.98H12.9927V69.6421C12.9927 69.6763 13.0006 69.7026 13.019 69.721C13.0374 69.7394 13.0584 69.7499 13.0847 69.7499C13.1477 69.7499 13.1793 69.7131 13.1793 69.6395V68.1155C13.1793 68.084 13.1688 68.0603 13.1477 68.0419C13.1267 68.0235 13.1057 68.0157 13.082 68.0157C13.0216 68.0157 12.9927 68.0498 12.9927 68.1181V68.7829H12.8613V68.1129C12.8613 68.0367 12.8823 67.9815 12.9244 67.9421C12.9664 67.9027 13.019 67.8843 13.0873 67.8843C13.1425 67.8843 13.1924 67.9053 13.2423 67.9421C13.2896 67.9815 13.3133 68.0367 13.3133 68.1102V69.65H13.3106Z" fill="#010101"/>
<path d="M14.9739 69.876H14.2119V68.105C14.2119 68.0314 14.2329 67.9789 14.275 67.9421C14.317 67.9053 14.3748 67.8869 14.4458 67.8869C14.5062 67.8869 14.5561 67.9079 14.5982 67.95C14.6402 67.992 14.6639 68.0525 14.6639 68.126V69.2428H14.3459V69.7394H14.8478V67.879H14.9765V69.876H14.9739ZM14.5299 69.114V68.126C14.5299 68.0551 14.501 68.0209 14.4405 68.0209C14.3748 68.0209 14.3433 68.0525 14.3433 68.1181V69.114H14.5299Z" fill="#010101"/>
<path d="M15.268 67.4901C15.268 67.4481 15.2575 67.4218 15.2338 67.4087C15.2102 67.3955 15.1891 67.3903 15.1681 67.3903C15.1471 67.3903 15.1261 67.3955 15.0998 67.4087C15.0762 67.4218 15.063 67.4481 15.063 67.4901V67.837H14.9316V67.4901C14.9316 67.4034 14.9579 67.3456 15.0078 67.3115C15.0578 67.2773 15.1129 67.2615 15.1681 67.2615C15.2233 67.2615 15.2759 67.2773 15.3258 67.3115C15.3757 67.3456 15.402 67.4061 15.402 67.4901V69.876H15.2706V67.4901H15.268Z" fill="#010101"/>
<path d="M17.1999 68.4361C17.2603 68.4361 17.3076 68.4571 17.347 68.4965C17.3838 68.5359 17.4022 68.5937 17.4022 68.6699V69.6579C17.4022 69.7289 17.3812 69.7814 17.3391 69.8182C17.2971 69.855 17.2445 69.8734 17.1867 69.8734C17.1499 69.8734 17.1184 69.8681 17.0921 69.855C17.0659 69.8418 17.0448 69.8287 17.0317 69.8156C17.0054 69.8392 16.9765 69.855 16.9476 69.8629C16.9187 69.8707 16.8846 69.876 16.8478 69.876C16.7558 69.876 16.6954 69.855 16.6612 69.8103C16.6481 69.8261 16.6297 69.8418 16.6034 69.8524C16.5771 69.8655 16.5456 69.8734 16.5062 69.8734C16.4457 69.8734 16.3958 69.855 16.3511 69.8182C16.3091 69.7814 16.2881 69.7262 16.2881 69.6579V68.6699C16.2881 68.5937 16.3065 68.5359 16.3433 68.4965C16.3801 68.4571 16.43 68.4361 16.4904 68.4361H16.5981V68.1286C16.5981 68.0603 16.6218 68.0025 16.6691 67.9552C16.7164 67.9079 16.7742 67.8843 16.8478 67.8843C16.945 67.8843 17.0133 67.9184 17.058 67.9894C17.0974 67.95 17.1447 67.9237 17.1972 67.9079C17.2524 67.8922 17.3076 67.8843 17.3601 67.8843C17.4626 67.8843 17.552 67.9132 17.6255 67.9736C17.707 68.0419 17.7464 68.1418 17.7464 68.2732V69.6474C17.7464 69.7998 17.6781 69.876 17.5415 69.876H17.4679V69.7525H17.5467C17.573 69.7525 17.5888 69.7446 17.5993 69.7315C17.6071 69.7183 17.6124 69.7 17.6124 69.6789V68.2863C17.6124 68.2022 17.594 68.1392 17.5546 68.0892C17.5152 68.0419 17.4495 68.0183 17.3601 68.0183C17.1815 68.0183 17.0921 68.0892 17.0921 68.2311V68.4387H17.1999V68.4361ZM16.5036 69.7525C16.5298 69.7525 16.5508 69.7446 16.5692 69.7289C16.5876 69.7131 16.5955 69.6921 16.5955 69.6658V68.5675H16.4825C16.4563 68.5675 16.4379 68.578 16.43 68.6016C16.4195 68.6226 16.4168 68.6489 16.4168 68.6726V69.6684C16.4168 69.7236 16.4457 69.7525 16.5036 69.7525ZM16.9581 68.1286C16.9581 68.0971 16.9476 68.0708 16.924 68.0472C16.9029 68.0235 16.874 68.013 16.8451 68.013C16.8136 68.013 16.7873 68.0235 16.7637 68.0472C16.74 68.0708 16.7295 68.0971 16.7295 68.1286V68.4361H16.9581V68.1286ZM16.8451 69.7551C16.8793 69.7551 16.9056 69.7473 16.9266 69.7341C16.9476 69.721 16.9581 69.6947 16.9581 69.6632V68.5701H16.7295V69.671C16.7295 69.6947 16.74 69.7157 16.7611 69.7315C16.7794 69.7473 16.8084 69.7551 16.8451 69.7551ZM17.1841 69.7525C17.2419 69.7525 17.2708 69.7262 17.2708 69.671V68.6752C17.2708 68.6489 17.2656 68.6253 17.2577 68.6042C17.2498 68.5832 17.2314 68.5701 17.2051 68.5701H17.0921V69.6684C17.0921 69.6947 17.1 69.7157 17.1184 69.7315C17.1342 69.7446 17.1578 69.7525 17.1841 69.7525Z" fill="#010101"/>
<path d="M19.1103 69.876H18.9789V68.126C18.9789 68.0919 18.9684 68.0656 18.9474 68.0472C18.9264 68.0288 18.9027 68.0183 18.8738 68.0183C18.8449 68.0183 18.8213 68.0288 18.8029 68.0446C18.7845 68.063 18.774 68.0892 18.774 68.126V69.876H18.6426V68.126C18.6426 68.0472 18.6636 67.9894 18.7083 67.9473C18.7529 67.9053 18.8081 67.8843 18.8764 67.8843C18.9448 67.8843 18.9999 67.9053 19.0446 67.9473C19.0893 67.9894 19.1129 68.0472 19.1129 68.126V69.876H19.1103ZM19.105 70.5933H18.9763V70.1545C18.9763 70.1204 18.9658 70.0941 18.9421 70.0757C18.9211 70.0573 18.8948 70.0468 18.8712 70.0468C18.8055 70.0468 18.774 70.0783 18.774 70.144V70.596H18.6426V70.1414C18.6426 70.0678 18.6662 70.0126 18.7109 69.9759C18.7556 69.9391 18.8107 69.9207 18.8764 69.9207C18.9369 69.9207 18.9894 69.9391 19.0367 69.9759C19.084 70.0126 19.1077 70.0704 19.1077 70.144V70.5933H19.105Z" fill="#010101"/>
<path d="M19.2908 67.5506C19.2908 67.632 19.2672 67.6925 19.2225 67.7345C19.1778 67.7765 19.12 67.7976 19.0543 67.7976C18.9939 67.7976 18.944 67.7792 18.9019 67.7398C18.8599 67.7003 18.8389 67.6452 18.8389 67.5716V67.2142H18.9702V67.5847C18.9702 67.6163 18.9781 67.6373 18.9965 67.653C19.0149 67.6662 19.0359 67.6741 19.0622 67.6741C19.1305 67.6741 19.1621 67.6373 19.1621 67.5637V67.2142H19.2934V67.5506H19.2908Z" fill="#010101"/>
<path d="M20.3716 69.876C20.2954 69.876 20.2323 69.855 20.1772 69.8156C20.122 69.7762 20.0957 69.7 20.0957 69.5922V68.1286C20.0957 68.0524 20.1167 67.9946 20.1588 67.9526C20.2008 67.9105 20.2534 67.8895 20.319 67.8895C20.4005 67.8895 20.4583 67.9079 20.4977 67.9473C20.5135 67.9316 20.5345 67.9184 20.5634 67.9053C20.5923 67.8948 20.6239 67.8869 20.658 67.8869C20.7316 67.8869 20.7868 67.9079 20.8262 67.9473C20.8656 67.9868 20.884 68.0419 20.884 68.1102V69.5686C20.884 69.6343 20.8656 69.6921 20.8341 69.7446H20.926C20.9786 69.7446 21.0127 69.7341 21.0338 69.7131C21.0522 69.6921 21.0627 69.6527 21.0627 69.5922V67.8843H21.194V69.5922C21.194 69.7026 21.1704 69.7762 21.1231 69.8156C21.0758 69.855 21.0101 69.876 20.9234 69.876H20.8262C20.7368 69.876 20.6817 69.8707 20.6554 69.8576C20.6396 69.8629 20.6186 69.8681 20.5923 69.8707C20.566 69.876 20.5293 69.876 20.4846 69.876H20.3716ZM20.4215 68.1181C20.4215 68.0919 20.4136 68.0708 20.3953 68.0498C20.3795 68.0314 20.3532 68.0209 20.319 68.0209C20.2586 68.0209 20.2297 68.0551 20.2297 68.126V69.5896C20.2297 69.6527 20.2402 69.6921 20.2586 69.7131C20.277 69.7341 20.3138 69.7446 20.369 69.7446H20.4767C20.4583 69.7183 20.4452 69.6921 20.4347 69.6632C20.4242 69.6343 20.4189 69.6027 20.4189 69.5686V68.1181H20.4215ZM20.7526 68.1181C20.7526 68.0524 20.7184 68.0209 20.6475 68.0209C20.6212 68.0209 20.6002 68.0314 20.5818 68.0524C20.5634 68.0735 20.5555 68.0971 20.5555 68.126V69.5686C20.5555 69.6027 20.566 69.6343 20.5844 69.6632C20.6028 69.6921 20.6291 69.7131 20.6554 69.7262C20.6843 69.7078 20.7079 69.6842 20.7263 69.6553C20.7447 69.6264 20.7526 69.5975 20.7526 69.5659V68.1181Z" fill="#010101"/>
<path d="M21.315 69.6264C21.315 69.5397 21.3386 69.4714 21.3886 69.4188C21.4385 69.3663 21.5016 69.3374 21.5804 69.3295L21.6618 68.1497C21.6671 68.0997 21.6592 68.0656 21.6408 68.0446C21.6224 68.0235 21.5988 68.013 21.5725 68.013C21.5147 68.013 21.4858 68.0472 21.4858 68.1155V68.6831H21.3544V68.1103C21.3544 68.0341 21.3754 67.9789 21.4175 67.9395C21.4595 67.9 21.5121 67.8817 21.5778 67.8817C21.6408 67.8817 21.6934 67.9027 21.7407 67.9447C21.788 67.9868 21.8064 68.0551 21.8011 68.1549L21.7118 69.3505C21.7775 69.3715 21.8326 69.4136 21.8799 69.4766C21.9272 69.5397 21.9509 69.6264 21.9509 69.7315V70.031C21.9509 70.1624 21.9167 70.2623 21.8484 70.328C21.7801 70.3936 21.6907 70.4278 21.5804 70.4278C21.47 70.4278 21.3833 70.3936 21.3176 70.3227C21.2519 70.2518 21.2178 70.1467 21.2178 70.0074H21.3492C21.3492 70.102 21.3702 70.1729 21.4122 70.2229C21.4543 70.2728 21.5094 70.2964 21.5778 70.2964C21.6461 70.2964 21.7013 70.2728 21.7459 70.2281C21.7906 70.1834 21.8142 70.1177 21.8142 70.031V69.9259C21.7932 69.9706 21.7617 70.0048 21.7196 70.0284C21.6776 70.0521 21.6303 70.0652 21.5778 70.0652C21.4989 70.0652 21.4359 70.0415 21.3859 69.9943C21.336 69.947 21.3124 69.876 21.3124 69.7762V69.6264H21.315ZM21.7118 69.6264C21.7118 69.5738 21.6986 69.5344 21.675 69.5108C21.6513 69.4845 21.6198 69.4714 21.5804 69.4714C21.541 69.4714 21.5094 69.4845 21.4858 69.5108C21.4621 69.537 21.4516 69.5765 21.4516 69.6264V69.7788C21.4516 69.8313 21.4621 69.8708 21.4858 69.8944C21.5094 69.9207 21.541 69.9338 21.5804 69.9338C21.6198 69.9338 21.6513 69.9207 21.675 69.8944C21.6986 69.8681 21.7118 69.8287 21.7118 69.7788V69.6264Z" fill="#010101"/>
<path d="M24.176 69.876H24.0446V68.1339C24.0446 68.0971 24.0368 68.0682 24.0184 68.0472C24 68.0262 23.9789 68.0157 23.9527 68.0157C23.8896 68.0157 23.8581 68.0524 23.8581 68.1286V69.876H23.7267V68.1286C23.7267 68.0919 23.7162 68.0656 23.6978 68.0446C23.6794 68.0262 23.6558 68.0157 23.6295 68.0157C23.569 68.0157 23.5401 68.0498 23.5401 68.1208V69.876H23.4035V68.2469C23.4035 68.1759 23.3877 68.1208 23.3562 68.0787C23.3247 68.0367 23.2721 68.0157 23.2012 68.0157C23.1171 68.0157 23.0593 68.0341 23.0225 68.0708C22.9857 68.1076 22.9673 68.1707 22.9673 68.2627V68.4072C22.9936 68.394 23.033 68.3888 23.0829 68.3888C23.1513 68.3888 23.2012 68.4098 23.238 68.4518C23.2747 68.4939 23.2931 68.5464 23.2931 68.6042V69.6658C23.2931 69.7341 23.2721 69.784 23.2275 69.8208C23.1828 69.8576 23.1276 69.876 23.0645 69.876C22.9988 69.876 22.9463 69.8576 22.9016 69.8182C22.857 69.7788 22.8359 69.7236 22.8359 69.6474V68.2574C22.8359 68.1024 22.8832 67.9946 22.9752 67.9342C23.0304 67.9027 23.1066 67.8869 23.2091 67.8869C23.2642 67.8869 23.3115 67.8974 23.3536 67.9158C23.3956 67.9342 23.4271 67.9552 23.4455 67.9762C23.4823 67.9158 23.5428 67.8869 23.6295 67.8869C23.6636 67.8869 23.6952 67.8922 23.7214 67.9053C23.7503 67.9158 23.774 67.9316 23.795 67.95C23.8292 67.9079 23.8817 67.8869 23.95 67.8869C24.0157 67.8869 24.0683 67.9053 24.1103 67.9421C24.1524 67.9789 24.1734 68.0367 24.1734 68.1103V69.876H24.176ZM23.1591 68.6069C23.1591 68.5806 23.1513 68.5569 23.1381 68.5359C23.125 68.5149 23.104 68.5044 23.0777 68.5044C23.033 68.5044 23.0041 68.5149 22.9883 68.5359C22.9726 68.5569 22.9647 68.5832 22.9647 68.6121V69.6553C22.9647 69.6868 22.9752 69.7105 22.9936 69.7262C23.012 69.7446 23.0383 69.7525 23.0645 69.7525C23.0882 69.7525 23.1092 69.7446 23.1276 69.7262C23.146 69.7105 23.1565 69.6868 23.1565 69.6579V68.6069H23.1591Z" fill="#010101"/>
<path d="M24.4701 67.4901C24.4701 67.4481 24.4596 67.4218 24.436 67.4087C24.4123 67.3955 24.3913 67.3903 24.3703 67.3903C24.3493 67.3903 24.3256 67.3955 24.302 67.4087C24.2783 67.4218 24.2652 67.4481 24.2652 67.4901V67.837H24.1338V67.4901C24.1338 67.4034 24.1601 67.3456 24.21 67.3115C24.2599 67.2773 24.3151 67.2615 24.3703 67.2615C24.4255 67.2615 24.478 67.2773 24.5279 67.3115C24.5779 67.3456 24.6041 67.4061 24.6041 67.4901V69.876H24.4728V67.4901H24.4701Z" fill="#010101"/>
<path d="M25.9419 69.6474C25.9419 69.721 25.9209 69.7762 25.8788 69.8156C25.8368 69.855 25.7816 69.876 25.7133 69.876C25.645 69.876 25.5924 69.8576 25.5504 69.8182C25.5083 69.7788 25.4873 69.7236 25.4873 69.6474V68.1103C25.4873 68.0341 25.5083 67.9789 25.5504 67.9395C25.5924 67.9 25.645 67.8817 25.7133 67.8817C25.779 67.8817 25.8315 67.9 25.8762 67.9395C25.9209 67.9789 25.9419 68.0367 25.9419 68.1103V68.5648C25.9419 68.641 25.9209 68.7015 25.8788 68.7461C25.8368 68.7908 25.7816 68.8145 25.7185 68.8145C25.6844 68.8145 25.6528 68.8066 25.6213 68.7961V68.9721C25.6528 68.9563 25.6844 68.9485 25.7185 68.9485C25.7869 68.9485 25.8394 68.9695 25.8814 69.0115C25.9235 69.0536 25.9445 69.114 25.9445 69.1928V69.6474H25.9419ZM25.8105 68.1103C25.8105 68.0761 25.8 68.0524 25.7842 68.0367C25.7658 68.0209 25.7422 68.013 25.7133 68.013C25.6502 68.013 25.6187 68.0472 25.6187 68.1155V68.5701C25.6187 68.6016 25.6292 68.6253 25.6476 68.6463C25.666 68.6647 25.6896 68.6752 25.7159 68.6752C25.7422 68.6752 25.7632 68.6673 25.7816 68.6489C25.8 68.6305 25.8079 68.6016 25.8079 68.5622V68.1103H25.8105ZM25.8105 69.1955C25.8105 69.1587 25.8 69.1298 25.7842 69.1087C25.7658 69.0877 25.7448 69.0772 25.7185 69.0772C25.6528 69.0772 25.6213 69.114 25.6213 69.1849V69.6395C25.6213 69.6737 25.6318 69.7 25.6476 69.7183C25.666 69.7367 25.687 69.7473 25.7133 69.7473C25.779 69.7473 25.8105 69.7131 25.8105 69.6448V69.1955Z" fill="#010101"/>
<path d="M26.98 69.876H26.3678V69.7473H26.4413C26.4939 69.7473 26.5202 69.7236 26.5202 69.6763V68.1523C26.5202 68.1102 26.5096 68.0787 26.4913 68.0524C26.4702 68.0288 26.4492 68.0157 26.4229 68.0157C26.3967 68.0157 26.3756 68.0262 26.3546 68.0498C26.3362 68.0708 26.3257 68.1024 26.3257 68.1444V69.876H26.1943V68.1523C26.1943 68.0577 26.2154 67.9894 26.26 67.9473C26.3047 67.9079 26.3599 67.8869 26.4229 67.8869C26.4913 67.8869 26.5464 67.9053 26.5885 67.9447C26.6305 67.9841 26.6515 68.0446 26.6515 68.1286V69.7C26.6515 69.7131 26.6515 69.7236 26.6542 69.7289C26.6568 69.7367 26.6542 69.742 26.6489 69.7473H26.8434V67.8843H26.98V69.876Z" fill="#010101"/>
<path d="M28.661 68.6778C28.661 68.7566 28.6347 68.8276 28.5874 68.8906C28.5217 68.9747 28.4376 69.0168 28.3351 69.0194V69.6369C28.3351 69.7131 28.3141 69.7709 28.2721 69.8103C28.23 69.8497 28.1748 69.8707 28.1065 69.8707C28.0382 69.8707 27.983 69.8497 27.941 69.8103C27.8989 69.7709 27.8779 69.7131 27.8779 69.6369V69.1298H28.0093V69.6238C28.0093 69.6605 28.0198 69.6894 28.0382 69.7105C28.0566 69.7315 28.0803 69.7446 28.1065 69.7446C28.1328 69.7446 28.1565 69.7341 28.1748 69.7157C28.1932 69.6973 28.2038 69.671 28.2038 69.6369V69.0194C28.1486 69.0168 28.1013 69.0036 28.0592 68.9826C28.0172 68.9616 27.983 68.9327 27.9568 68.8959C27.9305 68.8591 27.9095 68.8171 27.8963 68.7724C27.8832 68.7251 27.8779 68.6778 27.8779 68.6279V67.8895H28.0093V68.6095C28.0093 68.6936 28.0251 68.7593 28.0592 68.8066C28.0934 68.8539 28.1407 68.8801 28.2038 68.8854V68.1102C28.2038 68.034 28.2248 67.9789 28.2668 67.9395C28.3089 67.9027 28.364 67.8843 28.4324 67.8843C28.4954 67.8843 28.548 67.9027 28.5926 67.9395C28.6373 67.9762 28.661 68.034 28.661 68.1102V68.6778ZM28.5243 68.1181C28.5243 68.0892 28.5138 68.0656 28.4928 68.0472C28.4718 68.0288 28.4481 68.0183 28.4218 68.0183C28.3614 68.0183 28.3325 68.0498 28.3325 68.1155V68.8854C28.4008 68.8801 28.4481 68.8539 28.4797 68.8066C28.5086 68.7593 28.5243 68.7015 28.5243 68.6384V68.1181Z" fill="#010101"/>
<path d="M28.8455 67.5506C28.8455 67.632 28.8219 67.6925 28.7772 67.7345C28.7325 67.7765 28.6747 67.7976 28.609 67.7976C28.5486 67.7976 28.4987 67.7792 28.4566 67.7398C28.4146 67.7003 28.3936 67.6452 28.3936 67.5716V67.2142H28.5249V67.5847C28.5249 67.6163 28.5328 67.6373 28.5512 67.653C28.5696 67.6662 28.5906 67.6741 28.6169 67.6741C28.6852 67.6741 28.7167 67.6373 28.7167 67.5637V67.2142H28.8481V67.5506H28.8455Z" fill="#010101"/>
<path d="M30.2825 69.6474C30.2825 69.7236 30.2589 69.7814 30.2142 69.8208C30.1696 69.8602 30.1144 69.8812 30.0487 69.8812C29.9856 69.8812 29.9331 69.8628 29.8884 69.8261C29.8437 69.7893 29.8227 69.7341 29.8227 69.6605V68.1286C29.8227 68.0945 29.8148 68.0682 29.7964 68.0498C29.778 68.0314 29.757 68.0235 29.7334 68.0235C29.6703 68.0235 29.6388 68.0603 29.6388 68.1365V69.8786H29.5074V68.1365C29.5074 68.105 29.4969 68.0787 29.4785 68.0577C29.4601 68.0367 29.4364 68.0235 29.4102 68.0235C29.3865 68.0235 29.3655 68.034 29.3471 68.0551C29.3287 68.0761 29.3208 68.105 29.3208 68.1391V69.8786H29.1895V68.1207C29.1895 68.0445 29.2131 67.9894 29.2578 67.9526C29.3024 67.9158 29.355 67.8974 29.4154 67.8974C29.4943 67.8974 29.5468 67.9158 29.5757 67.9552C29.5967 67.9289 29.6178 67.9132 29.6388 67.9079C29.6598 67.9027 29.6913 67.8974 29.7255 67.8974C29.7938 67.8974 29.849 67.9158 29.891 67.9552C29.9331 67.9946 29.9541 68.0551 29.9541 68.1339V69.6474C29.9541 69.6815 29.9646 69.7078 29.983 69.7262C30.0014 69.7446 30.025 69.7551 30.0513 69.7551C30.0776 69.7551 30.1012 69.7472 30.1196 69.7288C30.138 69.7131 30.1485 69.6868 30.1485 69.6579V67.8948H30.2799V69.6474H30.2825Z" fill="#010101"/>
<path d="M30.5766 67.4901C30.5766 67.4481 30.5661 67.4218 30.5424 67.4087C30.5188 67.3955 30.4977 67.3903 30.4767 67.3903C30.4557 67.3903 30.432 67.3955 30.4084 67.4087C30.3848 67.4218 30.3716 67.4481 30.3716 67.4901V67.837H30.2402V67.4901C30.2402 67.4034 30.2665 67.3456 30.3164 67.3115C30.3664 67.2773 30.4215 67.2615 30.4767 67.2615C30.5319 67.2615 30.5845 67.2773 30.6344 67.3115C30.6843 67.3456 30.7106 67.4061 30.7106 67.4901V69.876H30.5792V67.4901H30.5766Z" fill="#010101"/>
<path d="M31.8017 69.876H31.6703V68.126C31.6703 68.0919 31.6598 68.0656 31.6388 68.0472C31.6178 68.0288 31.5941 68.0183 31.5652 68.0183C31.5363 68.0183 31.5127 68.0288 31.4943 68.0446C31.4759 68.063 31.4654 68.0892 31.4654 68.126V69.876H31.334V68.126C31.334 68.0472 31.355 67.9894 31.3997 67.9473C31.4443 67.9053 31.4995 67.8843 31.5678 67.8843C31.6362 67.8843 31.6913 67.9053 31.736 67.9473C31.7807 67.9894 31.8043 68.0472 31.8043 68.126V69.876H31.8017ZM31.7991 70.5933H31.6703V70.1545C31.6703 70.1204 31.6598 70.0941 31.6362 70.0757C31.6151 70.0573 31.5915 70.0468 31.5652 70.0468C31.4995 70.0468 31.468 70.0783 31.468 70.144V70.596H31.3366V70.1414C31.3366 70.0678 31.3603 70.0126 31.4049 69.9759C31.4496 69.9391 31.5048 69.9207 31.5705 69.9207C31.6309 69.9207 31.6835 69.9391 31.7308 69.9759C31.7781 70.0126 31.8017 70.0704 31.8017 70.144V70.5933H31.7991Z" fill="#010101"/>
<path d="M32.0981 67.4901C32.0981 67.4481 32.0875 67.4218 32.0639 67.4087C32.0402 67.3955 32.0192 67.3903 31.9982 67.3903C31.9772 67.3903 31.9535 67.3955 31.9299 67.4087C31.9062 67.4218 31.8931 67.4481 31.8931 67.4901V67.837H31.7617V67.4901C31.7617 67.4034 31.788 67.3456 31.8379 67.3115C31.8878 67.2773 31.943 67.2615 31.9982 67.2615C32.0534 67.2615 32.1059 67.2773 32.1559 67.3115C32.2058 67.3456 32.2321 67.4061 32.2321 67.4901V69.876H32.1007V67.4901H32.0981Z" fill="#010101"/>
<path d="M67.3162 70.9113C67.7366 70.2938 68.0388 69.9969 67.7208 69.5817C67.5606 69.3715 67.3083 69.3005 67.169 69.5055C66.7723 69.9391 67.2531 70.2675 67.3162 70.9113Z" fill="#8DC63F"/>
<path d="M69.3583 71.0506C68.6567 72.2041 67.8763 73.3313 66.8936 74.2904C67.7975 74.0093 68.4202 73.5363 68.8879 73.0029C69.4318 72.4984 69.8207 71.9361 69.9022 71.2581C69.96 71.1031 69.9705 70.8403 69.7366 70.7536C69.5054 70.6617 69.4187 70.8955 69.3583 71.0506Z" fill="#8DC63F"/>
<path d="M11.2612 44.919C11.7815 46.1645 12.2334 47.4573 12.4305 48.8184C12.7353 47.9223 12.7195 47.1393 12.5619 46.4483C12.4752 45.7099 12.2492 45.0661 11.7473 44.601C11.6554 44.4618 11.4504 44.2989 11.2428 44.4355C11.0352 44.5721 11.1719 44.7797 11.2612 44.919Z" fill="#00A99D"/>
<path d="M38.4727 68.013C38.4727 68.302 38.6881 68.5333 38.9036 68.5333C39.2031 68.5333 39.2898 68.302 39.3345 67.9552C39.3345 67.5506 39.119 67.3771 38.8169 67.4349C38.6014 67.4349 38.4727 67.724 38.4727 68.013Z" fill="#F99D1C"/>
<path d="M24.418 56.1178C24.418 56.4069 24.6334 56.6381 24.8489 56.6381C25.1484 56.6381 25.2352 56.4069 25.2798 56.06C25.2798 55.6554 25.0644 55.482 24.7622 55.5398C24.5467 55.5398 24.418 55.8288 24.418 56.1178Z" fill="#00A99D"/>
<path d="M14.9113 45.7467C15.0821 45.9805 15.3948 46.0383 15.5656 45.9096C15.8074 45.7309 15.739 45.4944 15.5682 45.1896C15.3265 44.8638 15.0506 44.8507 14.843 45.0766C14.6696 45.2054 14.7379 45.5128 14.9113 45.7467Z" fill="#00A99D"/>
<path d="M32.0979 47.0395C32.2687 47.2733 32.5814 47.3311 32.7522 47.2024C32.9939 47.0237 32.9256 46.7872 32.7548 46.4824C32.5131 46.1566 32.2372 46.1435 32.0296 46.3694C31.8588 46.4956 31.9271 46.8056 32.0979 47.0395Z" fill="#F99D1C"/>
<path d="M44.4956 54.0079C44.4667 54.5807 44.4378 55.1535 44.3301 55.7132C44.7085 55.2481 45.1683 54.8014 45.3575 54.2601C45.4994 53.9579 45.4179 53.7346 45.2576 53.4955C45.1604 53.3536 44.9555 53.3536 44.7794 53.4035C44.5088 53.5139 44.4956 53.8003 44.4956 54.0079Z" fill="#F99D1C"/>
<path d="M14.0287 39.6611C12.6282 39.0883 11.4142 38.0951 10.823 36.9021C10.7205 36.6604 10.534 36.4265 10.2712 36.282C9.91909 36.0613 9.50656 36.0981 9.20176 36.4554C8.89958 36.8154 8.92848 37.1465 9.21227 37.538C9.30949 37.6957 9.48028 37.764 9.66159 37.9164C10.1924 38.2869 10.5734 38.8361 10.3894 39.6033C10.1214 40.3758 9.59327 41.0038 8.68412 41.0827C7.78285 41.2456 6.85793 41.1562 5.99607 40.8147C4.79525 40.4179 3.81516 39.669 2.7536 38.928C2.39362 38.6259 1.96006 38.413 1.48447 38.7047C1.09295 38.9885 1.02989 39.2433 1.06668 39.6559C1.20068 40.2287 1.63424 40.4389 2.144 40.5624C2.6485 40.6018 3.06891 40.6491 3.57079 40.6885C4.07529 40.7306 4.57716 40.77 5.08692 40.8909C5.68076 41.0065 6.03811 41.3113 6.17738 41.9629C6.36656 43.1953 6.80012 43.4081 8.01933 43.0534C9.48554 42.6776 10.7626 42.9851 11.8399 43.8916C13.8789 43.4764 14.055 40.833 14.0287 39.6611Z" fill="#EC008C"/>
<path d="M40.1177 56.4463C41.1267 56.0337 42.0017 55.319 42.4248 54.4598C42.4984 54.2864 42.635 54.1182 42.8216 54.0131C43.0764 53.8555 43.3733 53.8791 43.5914 54.1392C43.8095 54.3967 43.7885 54.6359 43.5836 54.917C43.5152 55.03 43.3891 55.0799 43.2604 55.1903C42.8794 55.4583 42.6035 55.8524 42.7375 56.4042C42.9293 56.9613 43.3103 57.4132 43.9646 57.4684C44.6136 57.584 45.2784 57.521 45.9011 57.274C46.7656 56.9876 47.4698 56.4489 48.2344 55.9155C48.4946 55.6974 48.8072 55.545 49.1488 55.7526C49.43 55.9575 49.4747 56.1388 49.451 56.4384C49.3564 56.8509 49.0437 57.0033 48.6759 57.0927C48.3133 57.1216 48.0111 57.1557 47.6485 57.1846C47.2859 57.2135 46.9232 57.2424 46.5554 57.3318C46.1297 57.4159 45.8696 57.634 45.7697 58.1043C45.6331 58.9924 45.3204 59.1448 44.4428 58.89C43.3865 58.6193 42.4695 58.84 41.6917 59.4943C40.2255 59.1948 40.0993 57.2897 40.1177 56.4463Z" fill="#F99D1C"/>
<path d="M61.4644 75.0156C62.4734 74.6031 63.3484 73.8884 63.7715 73.0291C63.845 72.8557 63.9817 72.6876 64.1682 72.5824C64.4231 72.4248 64.72 72.4484 64.9381 72.7086C65.1562 72.9661 65.1352 73.2052 64.9302 73.4863C64.8619 73.5993 64.7358 73.6493 64.607 73.7596C64.226 74.0276 63.9501 74.4218 64.0841 74.9736C64.276 75.5306 64.657 75.9826 65.3112 76.0378C65.9603 76.1534 66.625 76.0903 67.2478 75.8433C68.1123 75.5569 68.8165 75.0182 69.5811 74.4848C69.8412 74.2667 70.1539 74.1143 70.4955 74.3219C70.7767 74.5269 70.8213 74.7082 70.7977 75.0077C70.7031 75.4203 70.3904 75.5727 70.0225 75.662C69.6599 75.6909 69.3578 75.7251 68.9951 75.754C68.6325 75.7829 68.2699 75.8118 67.9021 75.9011C67.4764 75.9852 67.2163 76.2033 67.1164 76.6736C66.9798 77.5618 66.6671 77.7142 65.7895 77.4593C64.7332 77.1886 63.8161 77.4094 63.0384 78.0636C61.5721 77.7615 61.446 75.8591 61.4644 75.0156Z" fill="#8DC63F"/>
<path d="M3.89569 34.7423C3.70125 34.4243 3.43848 34.2824 3.20726 34.469C2.89194 34.6634 2.92085 34.9945 3.10478 35.2284C3.4779 35.6961 3.91934 35.9904 4.6104 36.2663C4.30297 35.6225 4.17947 35.1338 3.89569 34.7423Z" fill="#EC008C"/>
<path d="M10.6229 51.8401C11.1221 52.1475 11.5057 51.8191 11.8342 51.5537C12.005 51.4801 11.9945 51.3619 11.8027 51.2042C11.3244 51.1306 10.8777 50.7575 10.4415 51.1517C10.2287 51.4065 10.431 51.6824 10.6229 51.8401Z" fill="#00A99D"/>
<path d="M6.19827 36.7208C6.33227 37.2937 6.83415 37.3331 7.25457 37.3804C7.42799 37.4513 7.50419 37.3594 7.48317 37.1124C7.19939 36.7208 7.14946 36.1401 6.5635 36.1086C6.23243 36.1349 6.17725 36.4739 6.19827 36.7208Z" fill="#EC008C"/>
<path d="M10.2732 46.958C10.0394 47.0789 9.92375 47.3127 10.0446 47.5466C10.1655 48.0143 10.4624 48.4242 10.8198 48.7711C10.8145 48.3007 10.9275 47.9486 10.9827 47.5387C11.0379 47.2444 11.0352 47.0106 10.8014 46.8949C10.6227 46.7189 10.3915 46.8398 10.2732 46.958Z" fill="#00A99D"/>
<path d="M41.171 69.3689C41.3392 69.1665 41.3523 68.9064 41.15 68.7383C40.8557 68.3546 40.4221 68.0971 39.957 67.9132C40.1436 68.3441 40.1778 68.712 40.2881 69.1114C40.3512 69.403 40.4458 69.6185 40.7085 69.6316C40.9424 69.7262 41.1106 69.5239 41.171 69.3689Z" fill="#F99D1C"/>
<path d="M41.7569 44.6904C41.9251 44.4881 41.9382 44.2279 41.7359 44.0597C41.4416 43.6761 41.0081 43.4186 40.543 43.2347C40.7295 43.6656 40.7637 44.0335 40.874 44.4329C40.9371 44.7245 41.0317 44.94 41.2945 44.9531C41.5283 45.0477 41.6965 44.8454 41.7569 44.6904Z" fill="#EC008C"/>
<path d="M3.8538 42.3492C3.79073 42.6041 3.89584 42.8458 4.15072 42.9062C4.58427 43.1191 5.08877 43.1585 5.58539 43.1164C5.22541 42.8143 5.03359 42.4989 4.75507 42.1889C4.56851 41.955 4.38983 41.8053 4.14809 41.9077C3.90109 41.9288 3.84066 42.181 3.8538 42.3492Z" fill="#EC008C"/>
<path d="M14.1882 54.6543C14.3932 54.1366 14.627 53.5454 14.874 52.9253C14.0963 52.5285 13.4394 51.9373 12.9638 51.1911C12.2228 50.1663 11.8654 48.9865 11.4397 47.762C11.3268 47.3075 11.0982 46.8792 10.5437 46.8371C10.0602 46.8371 9.86055 47.0079 9.64771 47.3626C9.41911 47.9039 9.64771 48.3296 9.9893 48.729C10.3756 49.0548 10.6882 49.3412 11.0719 49.6671C11.4555 49.9955 11.8391 50.3213 12.1834 50.7207C12.5959 51.1622 12.7089 51.6167 12.4409 52.229C11.8733 53.3405 12.0993 53.7661 13.2948 54.1918C13.6207 54.3232 13.9176 54.4782 14.1882 54.6543Z" fill="#00A99D"/>
<path d="M37.9476 15.4451C37.9922 15.5817 37.9844 15.8156 38.2314 15.65C38.8488 15.2322 39.4584 14.8039 40.068 14.3756C40.2599 14.2416 40.231 14.1313 40.0234 14.0419C39.7238 13.9079 39.4768 14.0104 39.2351 14.1917C39.0012 14.3678 38.7648 14.5412 38.5099 14.6831C38.4337 14.7251 38.2734 14.6936 38.2024 14.6358C38.1473 14.5885 38.1394 14.4387 38.1657 14.3494C38.2103 14.1891 38.3049 14.0446 38.3654 13.8895C38.4573 13.6557 38.6124 13.5611 38.8751 13.5611C40.5988 13.5637 42.3199 13.5558 44.0436 13.5348C44.3038 13.5322 44.3957 13.6136 44.4798 13.8527C44.7557 14.6358 45.2655 15.2139 46.0853 15.4556C46.4453 15.5607 46.6187 15.8024 46.7185 16.1283C46.821 16.4646 46.7185 16.7431 46.4742 16.9875C46.1588 17.3054 45.7358 17.3422 45.339 17.3869C44.6611 17.4631 43.9753 17.4578 43.2974 17.5314C42.8954 17.5761 42.4802 17.6496 42.1123 17.8073C40.9378 18.3118 40.1337 19.2709 39.3113 20.2011C39.2351 20.2878 39.2009 20.4559 39.2193 20.5742C39.3218 21.1969 39.49 21.8013 39.8105 22.3557C39.934 22.5685 40.0234 22.5659 40.1784 22.382C40.8642 21.5622 41.5526 20.7397 42.2568 19.9357C42.5564 19.5941 42.9032 19.2972 43.279 18.9319C43.3105 19.0896 43.3368 19.1579 43.3342 19.2236C43.3079 20.1695 43.279 21.1128 43.2422 22.0561C43.2396 22.135 43.2107 22.2401 43.1555 22.2821C42.6484 22.6684 42.1623 23.0914 41.6131 23.4067C41.1716 23.6616 40.7066 23.4934 40.3676 23.1098C40.3072 23.0415 40.2336 22.9863 40.1653 22.9233C40.1337 22.9495 40.1048 22.9758 40.0733 23.0021C40.3045 23.3568 40.5016 23.7378 40.7723 24.0584C41.3924 24.7915 41.7918 24.8992 42.6852 24.5524C43.1003 24.3921 43.5128 24.1661 43.8544 23.885C45.3522 22.65 46.8184 21.3756 48.3109 20.1354C48.8968 19.6466 49.4985 19.1684 50.1397 18.7559C51.0961 18.141 52.1734 18.5877 52.6359 19.4627C52.6701 19.5258 52.7305 19.5731 52.7778 19.6282C52.8014 19.6177 52.8277 19.6046 52.8514 19.5941C52.8409 19.5074 52.8461 19.4154 52.8172 19.3366C52.6096 18.7637 52.2549 18.2934 51.7189 18.0044C50.6705 17.4368 49.6273 17.5524 48.5815 18.0622C47.5278 18.5746 46.6712 19.3523 45.7752 20.0776C45.7148 20.1249 45.6491 20.1669 45.544 20.2405C45.3942 19.5258 45.2497 18.8636 45.1236 18.1962C45.1131 18.141 45.2339 18.0175 45.3075 18.0017C45.5335 17.9544 45.7647 17.9492 45.9959 17.9203C46.6502 17.8415 47.3203 17.8204 47.8931 17.4237C48.3293 17.1215 48.4212 16.6748 48.3818 16.1992C48.3424 15.7394 48.2031 15.3058 47.7065 15.114C47.3833 14.9879 47.0575 14.867 46.7396 14.733C46.3454 14.5648 46.0616 14.2837 45.9145 13.8711C45.431 12.5232 45.4757 11.1673 45.8698 9.81674C46.1037 9.01269 46.6292 8.48717 47.4543 8.25857C48.4606 7.97742 49.3856 8.25331 50.2973 8.63432C50.3998 8.67636 50.4892 8.74993 50.5995 8.81825C50.4313 9.0232 50.3026 9.06262 50.0503 8.95751C49.5511 8.75256 49.0308 8.57651 48.5001 8.47929C48.0665 8.40046 47.6014 8.52921 47.3702 8.94175C47.1442 9.34114 47.4411 9.67485 47.6645 9.99805C47.7091 10.0637 47.7354 10.1977 47.6986 10.2556C47.202 11.0622 47.2598 11.6298 47.943 12.2919C48.1007 12.4443 48.0744 12.5573 47.9982 12.7308C47.6461 13.5269 47.7407 14.2679 48.3293 14.9222C48.7549 15.3952 49.3277 15.608 49.9216 15.763C50.723 15.9706 51.5349 15.9233 52.3285 15.7551C53.2823 15.5528 54.2204 15.2743 55.1689 15.0457C55.3108 15.0115 55.5053 15.0352 55.6288 15.1114C56.1227 15.4083 56.6036 15.7289 57.0792 16.0573C58.527 17.0505 60.0694 17.852 61.7642 18.3223C63.3539 18.7638 64.8832 18.6639 66.2811 17.6785C66.6043 17.4499 66.9143 17.1846 67.2717 17.0243C67.9706 16.709 68.5093 16.2412 68.8824 15.5791C69.8231 13.9053 69.245 11.9977 67.6291 10.9308C66.7252 10.3318 65.6872 10.1583 64.6126 10.2004C64.4023 10.2083 64.2342 10.1899 64.1107 9.97177C63.7954 9.41472 63.3145 9.02583 62.747 8.74993C61.5882 8.18762 60.3716 8.19813 59.1392 8.40309C58.9264 8.43987 58.8476 8.40572 58.7898 8.18762C58.661 7.69101 58.4035 7.26008 57.9989 6.929C56.7087 5.87533 55.5709 6.02247 54.1625 6.76083C53.1772 7.27584 52.2339 7.86968 51.2801 8.4425C51.083 8.56075 50.9332 8.56074 50.7335 8.45039C49.7876 7.92749 48.7891 7.62532 47.6907 7.68838C46.5688 7.75144 45.6596 8.1666 45.0421 9.13619C44.3484 10.2266 44.1908 11.4459 44.217 12.7019C44.2249 13.117 44.2459 13.1275 43.8176 13.1249C42.8822 13.1144 41.9494 13.0934 41.014 13.0855C40.3807 13.0802 39.7449 13.0855 39.1116 13.0855C39.1011 13.0592 39.088 13.0303 39.0774 13.004C39.1484 12.9226 39.2141 12.8385 39.2876 12.7623C39.5557 12.4969 39.8473 12.2499 40.0943 11.9661C40.231 11.8085 40.3124 11.5904 40.3834 11.3881C40.4096 11.3119 40.3334 11.2015 40.3045 11.1043C40.2257 11.1411 40.1285 11.1621 40.0707 11.2199C39.4532 11.8164 38.8436 12.4207 38.2235 13.0172C38.1578 13.0802 38.0527 13.1013 37.9633 13.1407C37.9686 13.0382 37.9344 12.9042 37.987 12.8385C38.1919 12.5862 38.4232 12.3576 38.6439 12.1185C38.9907 11.7428 39.3481 11.3749 39.6792 10.9834C39.7738 10.873 39.8053 10.697 39.8316 10.5472C39.8421 10.4868 39.7764 10.3869 39.7159 10.3475C39.6818 10.3239 39.5793 10.3659 39.5294 10.4053C39.3218 10.5656 39.1142 10.7259 38.9198 10.9019C38.4573 11.3224 38.0027 11.7507 37.5455 12.1763C37.514 12.1501 37.4825 12.1238 37.4536 12.1001C37.627 11.9004 37.7952 11.6981 37.9765 11.5063C38.2366 11.233 38.5309 10.9913 38.7648 10.697C38.8541 10.5866 38.8147 10.3738 38.8357 10.2083C38.7043 10.2582 38.5677 10.3002 38.4442 10.3659C38.3443 10.4211 38.2681 10.5131 38.1709 10.5787C38.1236 10.6103 38.0317 10.6444 38.008 10.6234C37.8083 10.4474 37.7111 10.6155 37.5981 10.7311C37.4615 10.8757 37.3485 11.057 37.1882 11.1647C36.6233 11.5483 36.6942 11.9425 36.9543 12.5258C37.3721 13.4639 37.6244 14.4702 37.9476 15.4451ZM43.6915 21.817C43.6784 21.6515 43.6652 21.5516 43.6652 21.4518C43.6679 20.5926 43.6652 19.7333 43.6863 18.8741C43.6889 18.7112 43.7861 18.5483 43.8728 18.3985C44.0594 18.7532 43.9096 21.6094 43.6915 21.817ZM44.3221 21.189C44.288 20.6819 44.2459 20.1932 44.2197 19.7071C44.1987 19.3208 44.1881 18.9319 44.1881 18.5457C44.1881 18.4379 44.2433 18.3302 44.2722 18.2225C44.3011 18.2251 44.33 18.2277 44.3589 18.2303C44.38 18.2829 44.4167 18.3328 44.422 18.388C44.4929 19.2026 44.556 20.0171 44.6296 20.829C44.6453 21.0314 44.5849 21.1522 44.3221 21.189ZM45.2628 20.1721C45.3259 20.4297 45.2392 20.5689 44.9633 20.6845C44.8845 20.0618 44.8109 19.4706 44.7373 18.882C44.7163 18.7059 44.6821 18.5273 44.6742 18.3512C44.6716 18.2934 44.7268 18.2303 44.7557 18.1699C44.8109 18.2172 44.9029 18.2592 44.916 18.3171C44.9659 18.5194 44.9817 18.7322 45.0211 18.9372C45.0947 19.3471 45.1604 19.7649 45.2628 20.1721ZM47.6277 9.10991C47.6697 8.96014 47.8799 8.78672 48.0428 8.75256C48.7444 8.59753 49.375 8.8419 50.0661 9.18612C49.4407 9.65383 48.8416 9.88769 48.1322 9.72478C48.035 9.70113 47.9193 9.6512 47.8642 9.575C47.7591 9.43048 47.5935 9.23341 47.6277 9.10991ZM53.327 13.456C52.3022 13.7398 51.2879 14.1076 50.1949 13.9946C49.622 13.9342 49.1149 13.7266 48.7523 13.2563C48.6472 13.1223 48.5868 12.9541 48.4843 12.7675C48.592 12.7544 48.6446 12.7308 48.684 12.7439C49.8717 13.117 51.0541 12.9147 52.2365 12.7176C52.3626 12.6966 52.5282 12.7308 52.6333 12.8017C52.8908 12.9699 53.1246 13.1722 53.3664 13.3614C53.3532 13.3929 53.3401 13.4244 53.327 13.456ZM52.8645 12.6099C53.3611 12.2368 53.8945 12.3603 54.6224 13.0251C53.9891 13.4481 53.3375 13.2878 52.8645 12.6099ZM55.0375 12.8648C54.6697 12.8122 54.3412 12.4995 53.976 12.2867C54.6276 11.7691 55.4606 11.8768 56.1464 12.5652C55.7549 12.6808 55.3765 12.9121 55.0375 12.8648ZM66.042 17.5682C64.8832 18.3906 63.6141 18.522 62.2608 18.1936C60.8472 17.8493 59.5728 17.1872 58.3299 16.462C57.5522 16.0074 56.8007 15.5055 56.0387 15.0247C55.9887 14.9931 55.9414 14.9511 55.8101 14.846C56.2252 14.691 56.5563 14.5202 56.9058 14.4624C57.0739 14.4335 57.2868 14.6042 57.4628 14.7093C58.8318 15.5187 60.2586 16.2045 61.7669 16.7037C62.9545 17.0978 64.1737 17.3632 65.435 17.3737C65.6925 17.3764 65.95 17.337 66.2443 17.379C66.1786 17.4421 66.1155 17.513 66.042 17.5682ZM64.4102 12.0528C64.4523 11.9398 64.5495 11.7848 64.6441 11.7664C65.8134 11.5247 66.9485 11.5641 67.9365 12.3471C68.4751 12.7728 68.7799 13.3535 68.7826 14.0393C68.7878 15.1534 68.3674 16.0626 67.3558 16.6301C67.3059 16.659 67.2454 16.6617 67.2008 16.6748C67.3137 16.2649 67.4556 15.8918 67.5161 15.5081C67.6632 14.5307 67.1298 13.4323 66.2601 12.9883C65.2589 12.4759 63.7218 12.715 63.262 14.1707C62.9703 15.093 63.6614 16.031 64.5469 15.9312C65.0908 15.8708 65.4981 15.3899 65.4586 14.8434C65.2589 14.8749 65.0566 14.9327 64.8569 14.9301C64.3314 14.9222 64.0135 14.4913 64.1396 13.9868C64.3761 13.0277 65.4875 12.6808 66.3731 13.2983C66.9827 13.7214 67.2402 14.3494 67.2717 15.0588C67.298 15.6395 67.2008 16.2202 66.8145 16.6932C66.712 16.8193 66.5491 16.9349 66.3914 16.977C65.4114 17.2424 64.4339 17.111 63.459 16.9139C61.7432 16.5671 60.1693 15.8471 58.6242 15.0562C58.2879 14.8828 57.9594 14.6962 57.631 14.5097C57.5469 14.4624 57.4707 14.3967 57.3183 14.2889C58.0041 14.0814 58.5007 13.6662 59.2522 13.9868C60.4583 14.5018 61.7274 14.4492 62.9177 13.858C63.6614 13.4849 64.1159 12.8254 64.4102 12.0528ZM63.8033 11.9083C63.8243 11.9425 63.8479 11.9793 63.8689 12.0134C63.7218 12.7439 63.283 13.3062 62.6445 13.6373C61.4883 14.239 60.2901 14.1996 59.1103 13.6636C59.0998 13.6189 59.0893 13.5716 59.0788 13.5243C60.6527 12.9856 62.2267 12.447 63.8033 11.9083ZM60.884 9.86404C61.328 9.72215 61.8142 9.69324 62.2819 9.65908C62.7417 9.62493 63.1253 9.81937 63.459 10.2188C63.3382 10.2608 63.2672 10.2923 63.191 10.3107C61.0364 10.8363 58.9317 11.5247 56.8611 12.3156C56.6194 12.4076 56.4302 12.3997 56.2173 12.2552C55.9625 12.0817 55.6839 11.9477 55.3371 11.7533C55.6261 11.6403 55.8311 11.551 56.0439 11.48C57.6546 10.9335 59.2627 10.3764 60.884 9.86404ZM53.0905 9.0416C54.0391 8.59753 54.9771 8.12193 55.9467 7.73042C56.3697 7.55963 56.8637 7.52284 57.3262 7.49919C57.7913 7.47554 58.2932 7.91961 58.4219 8.36105C58.4771 8.55286 58.3588 8.5949 58.2143 8.63432C57.6179 8.79723 57.0161 8.94438 56.4302 9.13882C55.6629 9.38844 54.9062 9.6696 54.152 9.95338C53.9471 10.0296 53.7815 10.0296 53.5897 9.91134C53.2797 9.72215 52.9539 9.55924 52.5439 9.33326C52.7857 9.20451 52.9328 9.11517 53.0905 9.0416ZM52.494 9.61967C52.7778 9.822 53.1063 9.96126 53.4662 10.1583C53.1273 10.3554 52.875 10.4447 52.5781 10.2161C52.3364 10.0296 52.0526 9.89557 51.753 9.71689C52.021 9.51457 52.2181 9.42523 52.494 9.61967ZM51.7504 9.99805C52 10.1478 52.2444 10.3028 52.5229 10.4763C51.9265 10.8836 51.3063 10.7627 50.6731 10.1504C51.0357 9.80886 51.3536 9.76156 51.7504 9.99805ZM51.2249 10.8363C51.2144 10.8678 51.2039 10.9019 51.1934 10.9335C50.2737 11.1647 49.354 11.4511 48.3923 11.1516C48.2189 11.099 48.0455 10.9571 47.943 10.8074C47.8878 10.7259 47.9509 10.5262 48.0166 10.4132C48.0507 10.358 48.2242 10.3449 48.3187 10.3738C48.8443 10.5315 49.3672 10.4658 49.8717 10.3239C50.1554 10.2424 50.3788 10.2634 50.61 10.4316C50.8071 10.5787 51.0199 10.7022 51.2249 10.8363Z" fill="#3592BA"/>
<path d="M35.9953 12.1658C36.0374 12.221 36.1136 12.2657 36.1793 12.2736C36.2397 12.2815 36.3028 12.2289 36.3711 12.2C36.3369 12.1133 36.3212 12.0739 36.3054 12.0371C35.9428 11.212 35.4015 10.5262 34.6842 9.9823C34.6342 9.94551 34.558 9.94814 34.4924 9.92975C34.4897 10.0059 34.4529 10.1058 34.4871 10.1505C34.9837 10.8284 35.4856 11.4984 35.9953 12.1658Z" fill="#3592BA"/>
<path d="M35.4192 12.4575C35.4849 12.5074 35.569 12.5363 35.6426 12.5757C35.6715 12.5442 35.7004 12.51 35.7293 12.4785C35.6163 12.3235 35.5033 12.1658 35.3877 12.0108C35.033 11.5326 34.6756 11.0544 34.3261 10.5735C34.2342 10.4474 34.1816 10.2897 34.0791 10.1741C34.0187 10.1032 33.8978 10.0848 33.8059 10.0427C33.7848 10.1531 33.7113 10.2897 33.7507 10.3712C34.1396 11.1962 34.6756 11.9136 35.4192 12.4575Z" fill="#3592BA"/>
<path d="M33.6195 11.4064C33.9926 11.8558 34.4209 12.2578 34.8308 12.6729C34.8886 12.7307 34.9753 12.7623 35.0463 12.8043C35.0673 12.7807 35.0857 12.757 35.1067 12.7334C35.0778 12.6808 35.062 12.6178 35.02 12.5783C34.5024 12.0922 34.1135 11.5168 33.7982 10.8809C33.7246 10.7338 33.609 10.605 33.4986 10.4815C33.4592 10.4395 33.3541 10.4106 33.312 10.4342C33.2674 10.4605 33.2306 10.5682 33.249 10.6182C33.362 10.8888 33.4408 11.191 33.6195 11.4064Z" fill="#3592BA"/>
<path d="M45.344 26.8699C45.6593 28.5069 45.9483 30.1518 46.2899 31.7836C46.7366 33.9172 47.496 35.9536 48.3684 37.9427C49.154 39.7347 50.1131 41.4427 51.4479 42.8984C51.9997 43.5001 52.5752 44.0887 53.1979 44.6116C54.3462 45.5759 55.6836 46.2065 57.1157 46.6401C58.532 47.0684 59.9771 47.318 61.4617 47.1971C63.2117 47.0526 64.762 46.4483 66.039 45.1949C67.4159 43.8417 68.1674 42.2441 68.0465 40.2918C68.0176 39.8241 67.9546 39.3432 67.8048 38.9044C67.6156 38.3526 67.3344 37.8297 67.0638 37.3094C66.7564 36.7182 66.3622 36.1848 65.8209 35.6777C65.8472 35.7854 65.8498 35.8143 65.8604 35.8406C65.8866 35.9089 65.9182 35.9746 65.9471 36.0429C66.4752 37.2648 66.9009 38.5129 66.7984 39.8714C66.6959 41.2666 66.0995 42.4096 64.9643 43.2452C63.7898 44.1097 62.4418 44.5196 61.0098 44.6457C58.7054 44.8507 56.6007 44.27 54.6746 42.9982C52.8143 41.7737 51.4164 40.1026 50.1604 38.3027C49.4115 37.228 48.7756 36.0876 48.2344 34.8842C47.6195 33.5152 47.1492 32.0989 46.6683 30.6826C46.2058 29.3268 45.9457 27.9236 45.6908 26.5178C45.6724 26.4127 45.704 26.2446 45.7749 26.1868L45.2441 26.4968C45.2836 26.6545 45.323 26.7596 45.344 26.8699Z" fill="#276692"/>
<path d="M43.5131 27.49C43.6077 27.4112 43.7312 27.3587 43.8626 27.3587C44.1279 27.356 44.057 27.6004 44.0701 27.737C44.1279 28.4071 44.1568 29.0797 44.2068 29.7498C44.2751 30.68 44.3355 31.6128 44.4327 32.5403C44.5037 33.2077 44.5983 33.8751 44.7323 34.532C45.0923 36.2899 45.4128 38.0583 45.8779 39.7899C46.1932 40.9592 46.7188 42.0706 47.1733 43.2005C47.8644 44.919 48.8103 46.485 49.9875 47.9144C51.4485 49.6881 53.2799 51.0071 55.3111 52.0161C56.3069 52.5101 57.4053 52.8543 58.4957 53.0829C60.4585 53.4955 62.4424 53.3667 64.35 52.7676C67.1852 51.8795 69.3031 50.1085 70.4855 47.3416C71.2107 45.6442 71.2265 43.9126 70.4697 42.202C70.4277 42.1048 70.3699 42.0128 70.3278 41.9314C70.3278 42.4543 70.3173 42.9693 70.3305 43.4817C70.3699 45.2448 69.8233 46.7662 68.4859 47.9565C67.6923 48.6633 66.7648 49.1652 65.7768 49.5278C64.0426 50.1663 62.2532 50.2609 60.4375 49.9771C59.3444 49.8063 58.275 49.5514 57.2555 49.11C53.9789 47.6885 51.4038 45.4208 49.4699 42.449C48.5975 41.1063 47.8539 39.6743 47.1313 38.2422C46.146 36.2899 45.6047 34.1799 45.1422 32.0542C44.9215 31.0399 44.7954 30.0073 44.6377 28.9825C44.551 28.4228 44.4827 27.8579 44.4196 27.2956C44.4091 27.1931 44.4275 27.0355 44.4932 26.9829C44.7113 26.8121 44.9609 26.6755 45.2368 26.5021L45.7676 26.192C46.0776 25.9476 46.414 25.7348 46.7818 25.4825C46.8239 25.6297 46.8607 25.7348 46.8843 25.8425C47.1077 26.8463 47.3152 27.85 47.5517 28.8511C47.9537 30.5512 48.5607 32.1646 49.4252 33.6964C50.7811 36.1007 52.6309 37.8481 55.3478 38.5812C56.7457 38.9595 58.07 38.9149 59.2656 37.99C59.7832 37.5906 60.201 37.0939 60.4323 36.4922C60.7344 35.7092 60.7896 34.8841 60.6714 34.0433C60.4191 32.2329 59.5179 30.8455 57.9912 29.868C57.6286 29.6368 57.2134 29.4896 56.8219 29.3057C56.8062 29.3399 56.7878 29.374 56.772 29.4108C56.8666 29.466 56.9586 29.5238 57.0558 29.5764C57.9754 30.0651 58.7191 30.7351 59.2603 31.6364C60.2115 33.2156 59.8411 34.8526 58.8058 36.0376C57.9045 37.0677 56.6905 37.199 55.4188 37.0046C54.239 36.8259 53.2615 36.2111 52.3655 35.4701C50.9991 34.3402 49.9717 32.9344 49.2071 31.3474C48.7368 30.3673 48.3479 29.3451 47.9721 28.323C47.6384 27.4191 47.373 26.4889 47.0866 25.5693C47.063 25.4957 47.0893 25.3459 47.1339 25.3249C47.6069 25.1094 48.0825 24.8887 48.5765 24.7284C48.7 24.689 48.9076 24.8467 49.0495 24.9544C49.0862 24.9833 49.0495 25.2145 48.989 25.2461C48.834 25.3275 48.6501 25.3696 48.4766 25.3801C48.3873 25.3853 48.2927 25.296 48.2007 25.2461C48.1456 25.2145 48.0904 25.1804 48.0116 25.1304C48.0983 25.5771 48.3899 25.811 48.8865 25.8714C49.4226 25.9371 49.9139 25.5193 49.9612 24.957C50.0059 24.4446 49.5986 24.0268 49.0468 24.0111C48.545 23.9979 48.0904 24.1582 47.6778 24.4236C46.6978 25.0542 45.7334 25.7111 44.7533 26.3444C43.7207 27.0118 42.6328 27.5478 41.3795 27.6424C41.185 27.6582 40.9748 27.6477 40.7909 27.5925C39.8896 27.3245 39.28 26.7018 38.8648 25.8898C38.229 24.6443 37.8821 23.2937 37.5983 21.9379C37.2568 20.314 37.0124 18.6718 36.7076 17.04C36.3292 15.0115 35.3018 13.3509 33.783 11.9793C33.6359 11.8452 33.4704 11.7296 33.2838 11.5825C33.1524 11.9582 33.3679 12.1264 33.5466 12.313C33.7226 12.4969 33.8934 12.6861 34.0642 12.8726L34.0222 12.9646C33.1918 12.8989 32.3563 12.8779 31.5338 12.7544C30.8743 12.6546 30.2279 12.4391 29.5815 12.2578C29.3424 12.1895 29.2425 12.2552 29.2399 12.4943C29.2347 12.8411 29.2189 13.188 29.2268 13.5348C29.2347 13.858 29.2951 13.8843 29.6157 13.8133C31.1397 13.4717 32.6821 13.3088 34.2429 13.4402C34.3821 13.4507 34.5635 13.5663 34.6318 13.6846C34.8551 14.0735 35.0469 14.4834 35.2309 14.8933C35.2729 14.9852 35.2624 15.1192 35.2282 15.2191C34.9234 16.144 34.5687 17.0558 34.3033 17.9939C33.8987 19.418 33.5702 20.8658 33.4782 22.3504C33.3915 23.7562 33.4888 25.1488 34.0169 26.4731C34.3427 27.2903 34.8472 27.9499 35.8273 28.005C36.542 28.0445 37.1333 27.7081 37.6535 27.2693C37.8874 27.0696 38.0004 27.1301 38.1896 27.314C38.4576 27.5741 38.7387 27.8605 39.0698 28.0077C40.1261 28.4754 41.2113 28.4596 42.2939 28.0629C42.4147 28.0182 42.5409 27.9788 42.7012 27.921L43.5052 27.4795L43.5131 27.49ZM37.3934 26.9356C36.655 27.1747 36.1006 26.8673 35.6565 26.1132C35.1205 25.2066 34.9602 24.1871 34.8788 23.1545C34.7106 21.0787 34.9734 19.0475 35.5278 17.0479C35.5751 16.8824 35.5935 16.709 35.6276 16.5382C35.6723 16.5382 35.717 16.5355 35.7616 16.5355C35.8037 16.9244 35.851 17.3107 35.8904 17.6996C36.0822 19.6309 36.2477 21.5648 36.4763 23.4934C36.6025 24.5655 37.0098 25.564 37.5642 26.4942C37.7218 26.7622 37.6956 26.8358 37.3934 26.9356Z" fill="#3592BA"/>
<path d="M42.7089 28.2205C42.6459 30.3331 42.546 32.4431 42.5276 34.5531C42.4987 37.5564 42.5145 40.5571 43.1504 43.5185C43.6785 45.9674 44.4353 48.3165 45.7228 50.4816C47.1706 52.9174 49.0336 54.917 51.5429 56.2755C53.3586 57.2582 55.3136 57.7732 57.3526 58.015C59.7963 58.304 62.1927 58.1621 64.5155 57.2635C65.6296 56.8325 66.6175 56.2151 67.4794 55.3953C68.1521 54.7567 68.7012 54.021 69.0612 53.1513C68.9482 53.2091 68.8563 53.2853 68.7617 53.3615C67.214 54.6043 65.6322 55.7526 63.5538 55.9707C61.6776 56.1704 59.8225 56.1651 57.9727 55.7763C56.5853 55.4846 55.2952 54.9459 54.0865 54.2155C53.3954 53.7977 52.707 53.3694 52.0632 52.8859C50.0583 51.375 48.5159 49.449 47.3677 47.2391C46.4349 45.4419 45.6335 43.5763 45.1684 41.5872C44.8504 40.2182 44.4721 38.8597 44.2014 37.4802C43.957 36.2347 43.8125 34.9708 43.6417 33.7122C43.3737 31.7494 43.3527 29.7734 43.3396 27.7975C43.3396 27.6845 43.4052 27.5715 43.5051 27.4874V27.4743L42.701 27.9157C42.7116 28.055 42.7116 28.1391 42.7089 28.2205Z" fill="#3592BA"/>
<path d="M19.2332 73.1421H18.416V73.5809H19.2332V73.1421Z" fill="#2E769F"/>
</g>
<defs>
<clipPath id="clip0_345_1297">
<rect width="71.0453" height="87.1184" fill="white" transform="translate(-0.00585938)"/>
</clipPath>
</defs>
</svg>
