<svg width="258" height="83" viewBox="0 0 258 83" fill="none" xmlns="http://www.w3.org/2000/svg">
<path d="M38.3242 54.76C44.8842 64.36 59.6042 79.56 75.5242 79.56C80.6442 79.56 85.9242 77.96 91.0442 74.12C91.8442 73.48 92.0042 73.88 91.5242 74.28C85.2042 80.12 78.4842 82.44 72.0042 82.44C55.3642 82.44 39.6842 67.24 32.6442 56.76C32.1642 56.12 31.5242 55.16 30.8842 54.12C23.4442 63.96 16.8842 73.48 16.8842 75.4C16.8842 75.88 16.9642 76.2 17.6842 76.2C19.9242 76.2 21.6042 75.8 23.8442 74.52C22.0042 76.36 18.8042 78.68 16.0042 78.68C13.6042 78.68 13.2842 76.68 13.2842 75.32C13.2842 69.8 21.1242 56.84 27.6042 47.56L27.2842 46.68C26.6442 44.84 26.2442 43.48 26.4042 42.68C27.4442 37.48 33.5242 35.16 32.2442 36.68C31.7642 37.32 31.5242 38.44 31.7642 39.72C31.8442 40.2 32.0042 40.76 32.2442 41.32C41.5242 29 57.1242 10.44 64.3242 10.44C67.2042 10.44 69.7642 11.72 71.2042 13.32C66.2442 11 44.6442 36.68 36.0842 47.48C54.3242 46.6 89.0442 30.04 88.2442 15.64C87.6842 6.68 75.5242 2.52 66.3242 2.52C36.2442 2.52 5.76424 26.92 5.76424 36.28C5.76424 39.48 8.32424 41.64 10.2442 41.8C10.2442 41.8 10.0042 42.2 8.16424 42.2C2.72424 42.2 0.0842407 38.76 0.0842407 34.52C0.0842407 20.12 32.4842 0.199997 63.1242 0.199997C73.9242 0.199997 92.1642 4.12 93.0442 18.68C93.9242 33.72 64.1642 51.08 40.8842 51.08C39.2042 51.08 37.6042 51 36.0042 50.84C36.6442 52.2 37.5242 53.56 38.3242 54.76ZM82.3974 56.2C80.9574 57.88 79.4374 60.44 79.1974 62.52C79.1174 63.48 79.8374 64.04 81.5974 64.04C87.4374 64.04 102.077 52.92 110.157 46.2C110.397 46.04 110.957 46.44 110.717 46.68C104.717 52.28 88.7974 67.56 78.1574 67.56C75.6774 67.56 72.4774 64.68 72.4774 62.52C72.4774 60.6 72.9574 59 73.5974 57.24C75.5174 52.68 79.5974 47.64 84.6374 43.4C91.2774 37.88 98.3974 35.4 101.837 35.4C103.037 35.4 106.717 37.24 106.717 39.48C106.717 44.44 91.3574 55.96 82.3974 56.2ZM104.157 37.8C95.2774 40.68 86.0774 50.36 83.4374 54.6C90.3974 53.8 103.677 40.84 104.157 37.8ZM129.254 38.6C125.574 38.28 113.174 45.88 112.134 49.64C111.814 51 113.734 52.28 114.534 53C127.334 45.8 137.574 44.04 138.614 44.04C138.774 44.04 139.094 44.2 139.094 44.44C139.814 44.68 123.974 48.84 115.254 54.04C116.294 54.84 118.294 57.16 118.054 58.84C116.934 64.04 106.374 68.28 101.174 68.28C99.4136 68.28 98.5336 66.84 98.1336 65.08C98.3736 61.64 110.134 54.92 112.934 53.8C112.054 52.68 107.334 49.8 108.054 46.28C109.334 40.2 120.854 34.2 127.894 34.2C130.134 34.2 131.174 37.88 130.934 40.2C130.854 41.32 125.814 46.12 123.654 46.12C123.574 46.12 123.414 45.8 123.494 45.8C123.734 45.8 129.094 40.2 129.254 38.6ZM113.254 55.16C108.454 57.88 102.534 61.88 100.214 64.2C103.334 63.32 113.254 58.2 113.254 55.16ZM143.43 59.72C144.79 56.04 147.83 50.36 150.79 46.68C142.71 54.92 131.99 66.44 127.19 67.4C127.03 67.4 126.55 67.4 126.55 67.4C125.27 67.4 122.79 65.24 122.79 63.32C122.79 59.88 127.19 51.8 131.75 45.48C134.55 41.56 137.91 37.72 139.91 36.12C140.31 35.72 140.79 35.64 141.03 35.64C142.95 35.64 146.07 38.76 146.07 40.84C146.07 41.16 145.75 40.76 145.03 40.68C143.83 40.52 140.47 44.68 137.75 48.2C133.67 53.56 129.67 60.52 129.67 62.84C133.51 61.24 141.67 54.04 145.51 50.36C149.67 46.28 155.59 39.32 160.15 35.8C160.55 35.48 160.95 35.4 161.27 35.4C163.19 35.4 166.23 38.52 166.23 40.52C166.23 40.84 165.99 40.44 165.27 40.36C164.71 40.36 163.67 41.08 162.63 42.2C161.43 43.48 159.19 46.36 156.55 49.88C152.55 55.24 149.59 60.92 149.59 63.16C154.63 61.64 165.99 50.76 170.87 46.12C171.35 45.72 171.75 46.36 171.51 46.6C164.55 54.2 151.51 67.56 146.71 67.56C146.31 67.56 145.83 67.4 145.43 67.08C144.15 66.44 142.55 64.6 142.55 63.16C142.55 62.36 143.03 60.92 143.43 59.72ZM175.311 37.24C180.271 29.48 185.391 22.52 189.551 17.08C191.951 13.96 194.191 11.4 196.191 9.8C197.391 8.84 198.431 8.2 199.151 8.2C203.631 7.96 206.831 12.6 205.311 11.72C202.511 10.44 197.311 17.96 193.791 22.28C190.351 26.68 187.071 31.4 183.071 37.24C176.111 47.8 170.111 57.96 168.191 63.08C171.391 63.48 182.991 52.36 188.431 47.24C190.111 44.36 192.111 41.08 194.591 37.24C196.751 33.72 199.071 30.44 201.311 27.32C193.551 29.48 195.071 30.44 196.831 31.64C195.551 31.64 192.831 30.12 192.591 27.56C192.271 23.96 199.471 22.92 204.991 22.12C211.231 13.96 213.471 11.4 215.471 9.8C216.671 8.84 217.711 8.2 218.431 8.2C222.911 7.96 226.111 12.6 224.591 11.72C222.031 10.52 217.311 16.92 213.791 21.56C226.831 20.76 244.671 21.4 256.671 23.88C257.311 24.04 257.631 24.2 256.671 24.12C240.031 22.68 224.751 22.76 210.911 25.08C208.111 28.76 205.391 32.68 202.351 37.24C195.391 47.8 189.391 57.96 187.471 63.08C190.911 63.48 204.191 50.44 208.911 46.12C209.391 45.72 209.711 46.36 209.471 46.6C205.551 51.08 191.631 65.64 186.831 67.4C185.791 67.8 184.991 67.48 184.271 67.08C183.631 66.76 181.871 65.08 181.391 63.88C181.311 63.72 181.151 63.56 181.151 62.68C181.151 61.16 182.671 57.32 186.351 50.76C180.591 56.84 171.311 66.04 167.551 67.4C166.511 67.8 165.711 67.48 164.991 67.08C164.351 66.76 162.591 65.08 162.111 63.88C162.031 63.72 161.871 63.56 161.871 62.68C161.871 60.28 165.551 52.52 175.311 37.24Z" fill="#276692"/>
</svg>
