<svg width="95" height="1078" viewBox="0 0 95 1078" fill="none" xmlns="http://www.w3.org/2000/svg">
<g clip-path="url(#clip0_345_1100)">
<rect width="875" height="484.246" transform="matrix(0 -1 1 0 0 1086)" fill="white"/>
<path d="M-1.27344 891.531L-1.27344 1086H192.949V891.531H-1.27344Z" fill="#276692"/>
<path d="M95.8743 1086C42.2027 1086 -1.27344 1042.47 -1.27344 988.802C-1.27344 935.135 42.2027 891.531 95.8743 891.531C149.546 891.531 192.949 935.062 192.949 988.802C192.949 1042.54 149.473 1086 95.8743 1086Z" fill="#FFFEFC"/>
<path d="M95.8737 1037.36C69.0743 1037.36 47.2998 1015.64 47.2998 988.729C47.2998 961.823 69.0015 940.094 95.8737 940.094C122.746 940.094 144.448 961.823 144.448 988.729C144.448 1015.64 122.673 1037.36 95.8737 1037.36Z" fill="#CEF09D"/>
<path d="M-1.27344 794.333L-1.27344 891.531H95.8014V794.333H-1.27344Z" fill="#C3E04F"/>
<path d="M47.3004 891.531C20.501 891.531 -1.27344 869.802 -1.27344 842.896C-1.27344 815.99 20.501 794.333 47.3004 794.333C74.0998 794.333 95.8743 816.063 95.8743 842.969C95.8743 869.875 74.0998 891.531 47.3004 891.531Z" fill="#276692"/>
<path d="M-1.27344 697.135L-1.27344 794.333H95.8014V697.135H-1.27344Z" fill="#276692"/>
<path d="M95.8737 794.333C42.275 794.333 -1.20117 750.802 -1.20117 697.135H95.8737V794.333Z" fill="#FFFEFC"/>
<path d="M-1.27344 599.938L-1.27344 697.135H95.8014V599.938H-1.27344Z" fill="#C3E04F"/>
<path d="M47.3004 697.135C20.501 697.135 -1.27344 675.406 -1.27344 648.5C-1.27344 621.594 20.4282 599.865 47.3004 599.865C74.1726 599.865 95.8743 621.594 95.8743 648.5C95.8743 675.406 74.0998 697.135 47.3004 697.135Z" fill="#276692"/>
<path d="M-1.27344 502.667L-1.27344 599.865H95.8014V502.667H-1.27344Z" fill="#FFFEFC"/>
<path d="M-1.27344 502.667C52.3253 502.667 95.8014 546.198 95.8014 599.865H-1.27344L-1.27344 502.667Z" fill="#CEF09D"/>
<path d="M-1.27344 405.469L-1.27344 502.667H95.8014V405.469H-1.27344Z" fill="#FFFEFC"/>
<path d="M95.8743 405.469C95.8743 459.135 52.3981 502.667 -1.27344 502.667L-1.27344 405.469H95.8743Z" fill="#CEF09D"/>
<path d="M-98.3486 211L-98.3486 405.469H95.874V211H-98.3486Z" fill="#77D9C9"/>
<path d="M95.874 211C95.874 318.406 8.92166 405.469 -98.3486 405.469L-98.3486 211H95.874Z" fill="#FFFEFC"/>
</g>
<g clip-path="url(#clip1_345_1100)">
<rect width="681" height="484.246" transform="matrix(0 1 1 0 0 -449)" fill="white"/>
<path d="M-1.27344 37.0625L-1.27344 -60.1354L95.8014 -60.1354V37.0625H-1.27344Z" fill="#C3E04F"/>
<path d="M47.3004 -60.1354C20.501 -60.1354 -1.27344 -38.4063 -1.27344 -11.5C-1.27344 15.4062 20.4282 37.1354 47.3004 37.1354C74.1726 37.1354 95.8743 15.4062 95.8743 -11.5C95.8743 -38.4063 74.0998 -60.1354 47.3004 -60.1354Z" fill="#276692"/>
<path d="M-1.27344 134.333L-1.27344 37.1354L95.8014 37.1354V134.333H-1.27344Z" fill="#FFFEFC"/>
<path d="M-1.27344 134.333C52.3253 134.333 95.8014 90.8021 95.8014 37.1354L-1.27344 37.1354L-1.27344 134.333Z" fill="#CEF09D"/>
<path d="M-1.27344 231.531L-1.27344 134.333H95.8014V231.531H-1.27344Z" fill="#FFFEFC"/>
<path d="M95.8743 231.531C95.8743 177.865 52.3981 134.333 -1.27344 134.333L-1.27344 231.531H95.8743Z" fill="#CEF09D"/>
<path d="M-98.3486 426L-98.3486 231.531H95.874V426H-98.3486Z" fill="#77D9C9"/>
<path d="M95.874 426C95.874 318.594 8.92166 231.531 -98.3486 231.531L-98.3486 426H95.874Z" fill="#FFFEFC"/>
</g>
<defs>
<clipPath id="clip0_345_1100">
<rect width="875" height="484.246" fill="white" transform="matrix(0 -1 1 0 0 1086)"/>
</clipPath>
<clipPath id="clip1_345_1100">
<rect width="681" height="484.246" fill="white" transform="matrix(0 1 1 0 0 -449)"/>
</clipPath>
</defs>
</svg>
