<svg width="402" height="101" viewBox="0 0 402 101" fill="none" xmlns="http://www.w3.org/2000/svg">
<g filter="url(#filter0_d_11_159)">
<path d="M44.0443 6.624L40.9083 17.208C40.9083 17.208 37.8843 2.704 24.0523 2.704C18.2843 2.704 8.48425 8.08 8.48425 22.584C8.48425 40.728 21.5323 47.728 30.4923 47.728C35.7563 47.672 41.6923 44.592 44.0443 41.176L43.7643 43.304C42.7003 44.648 37.4923 51.2 25.8443 51.2C13.3003 51.2 2.15625 40.336 2.15625 26.56C2.15625 12.952 10.5563 1.92 25.7323 1.92C31.1083 1.92 36.5963 4.608 40.5723 7.128C41.0763 7.408 41.6363 7.576 42.1403 7.576C42.8683 7.576 43.5963 7.296 44.0443 6.624ZM65.7639 14.744C76.2359 14.744 84.6919 22.92 84.6919 33C84.6919 43.08 76.2359 51.2 65.7639 51.2C55.3479 51.2 46.8359 43.08 46.8359 33C46.8359 22.92 55.3479 14.744 65.7639 14.744ZM65.8199 50.304C72.3719 50.304 77.6919 42.576 77.6919 33C77.6919 23.424 72.3719 15.64 65.8199 15.64C59.2679 15.64 53.9479 23.424 53.9479 33C53.9479 42.576 59.2679 50.304 65.8199 50.304ZM149.905 51.2H135.065C137.417 50.248 138.985 47.952 138.985 45.376V33.168C138.985 24.544 138.033 17.04 128.905 17.04C127.001 17.04 125.153 17.88 123.473 19.28C122.521 20.008 121.793 20.904 121.177 21.912C121.065 22.08 121.009 22.248 121.009 22.472C121.009 22.584 121.009 22.752 121.065 22.864C121.961 25.72 122.073 28.856 122.073 31.432V45.432C122.073 46.664 122.465 47.896 123.137 48.848C123.809 49.912 124.817 50.696 125.993 51.2H111.153C113.505 50.248 115.073 47.952 115.073 45.376V33.168C115.073 24.544 114.905 17.04 105.721 17.04C103.761 17.04 102.193 18.048 101.073 19.28C99.3928 21.072 98.5528 23.48 98.5528 26V45.376C98.5528 46.664 98.9448 47.84 99.6168 48.848C100.289 49.912 101.297 50.696 102.473 51.2H87.6328C89.9848 50.248 91.5528 47.952 91.5528 45.376V23.368C91.5528 21.24 89.8168 19.448 87.6328 19.448L98.5528 15.304V22.36C99.9528 18.16 103.369 14.8 109.081 14.8C115.633 14.8 118.881 17.712 120.505 21.408C123.081 17.32 127.505 14.8 132.937 14.8C145.201 14.8 145.929 24.936 145.929 31.432V45.432C145.985 46.664 146.377 47.896 147.049 48.848C147.721 49.912 148.673 50.696 149.905 51.2ZM155.697 45.6V24.432C155.697 22.36 154.017 20.624 151.945 20.624L162.417 16.648V45.6C162.417 46.832 162.809 48.008 163.481 48.96C164.153 49.968 165.105 50.752 166.225 51.2H151.945C154.241 50.304 155.697 48.064 155.697 45.6ZM163.145 6.512C163.145 9.032 161.073 11.104 158.553 11.104C156.033 11.104 153.961 9.032 153.961 6.512C153.961 3.992 156.033 1.92 158.553 1.92C161.073 1.92 163.145 3.992 163.145 6.512ZM210.506 51.2H195.666C198.018 50.248 199.586 47.952 199.586 45.376V33.168C199.586 24.544 198.634 17.04 189.506 17.04C187.658 17.04 185.754 17.88 184.074 19.28C181.274 21.576 179.818 25.104 179.818 28.688V45.376C179.818 46.664 180.21 47.896 180.882 48.904C181.554 49.912 182.562 50.696 183.738 51.2H168.898C171.306 50.248 172.818 47.952 172.818 45.376V23.424C172.818 21.24 171.082 19.504 168.898 19.504L179.818 15.304V24.04C181.946 18.44 186.986 14.8 193.538 14.8C205.802 14.8 206.586 24.936 206.586 31.432V45.432C206.586 46.664 206.978 47.896 207.65 48.904C208.322 49.912 209.274 50.696 210.506 51.2ZM241.551 10.88C241.551 21.8 269.439 26.168 269.439 39.44C269.439 46.216 263.167 51.2 253.087 51.2C246.591 51.2 242.839 49.128 238.807 44.984C238.359 44.592 237.855 44.312 237.407 44.312C237.015 44.312 236.623 44.48 236.287 44.816L237.855 36.864C237.855 36.864 242.279 50.08 253.031 50.08C259.079 50.08 264.959 46.776 264.959 42.24C264.959 33.056 235.727 26.56 235.727 14.184C235.727 6.848 241.719 1.92 253.143 1.92C258.183 1.92 262.047 3.712 264.567 5.896C264.959 6.288 265.463 6.456 265.967 6.456C266.527 6.456 267.087 6.232 267.479 5.84L266.639 13.288C266.639 13.288 262.159 2.76 252.023 2.76C244.687 2.76 241.551 6.624 241.551 10.88ZM292.389 14.744C302.861 14.744 311.317 22.92 311.317 33C311.317 43.08 302.861 51.2 292.389 51.2C281.973 51.2 273.461 43.08 273.461 33C273.461 22.92 281.973 14.744 292.389 14.744ZM292.445 50.304C298.997 50.304 304.317 42.576 304.317 33C304.317 23.424 298.997 15.64 292.445 15.64C285.893 15.64 280.573 23.424 280.573 33C280.573 42.576 285.893 50.304 292.445 50.304ZM334.553 14.744C345.025 14.744 353.481 22.92 353.481 33C353.481 43.08 345.025 51.2 334.553 51.2C324.137 51.2 315.625 43.08 315.625 33C315.625 22.92 324.137 14.744 334.553 14.744ZM334.609 50.304C341.161 50.304 346.481 42.576 346.481 33C346.481 23.424 341.161 15.64 334.609 15.64C328.057 15.64 322.737 23.424 322.737 33C322.737 42.576 328.057 50.304 334.609 50.304ZM397.046 51.2H382.206C384.558 50.248 386.126 47.952 386.126 45.376V33.168C386.126 24.544 385.174 17.04 376.046 17.04C374.198 17.04 372.294 17.88 370.614 19.28C367.814 21.576 366.358 25.104 366.358 28.688V45.376C366.358 46.664 366.75 47.896 367.422 48.904C368.094 49.912 369.102 50.696 370.278 51.2H355.438C357.846 50.248 359.358 47.952 359.358 45.376V23.424C359.358 21.24 357.622 19.504 355.438 19.504L366.358 15.304V24.04C368.486 18.44 373.526 14.8 380.078 14.8C392.342 14.8 393.126 24.936 393.126 31.432V45.432C393.126 46.664 393.518 47.896 394.19 48.904C394.862 49.912 395.814 50.696 397.046 51.2Z" fill="#276692"/>
</g>
<path d="M13.0004 8.5V7.5C9.96348 7.49785 7.50215 5.03652 7.5 1.99965H6.5C6.49785 5.03652 4.03652 7.49785 0.999646 7.5V8.5C4.03652 8.50215 6.49785 10.9635 6.5 14.0004H7.5C7.50215 10.9635 9.96348 8.50215 13.0004 8.5Z" fill="#276692" stroke="white"/>
<path d="M386 20.3L386 20.5L386 20.7C389.478 20.7025 392.298 23.5217 392.3 27.0001L392.5 27L392.7 27.0001C392.702 23.5217 395.522 20.7025 399 20.7L399 20.5L399 20.3C395.522 20.2975 392.702 17.4783 392.7 13.9999L392.5 14L392.3 13.9999C392.298 17.4783 389.478 20.2975 386 20.3Z" fill="#276692" stroke="white" stroke-width="0.4"/>
<path d="M232 41.3L232 41.5L232 41.7C234.926 41.7021 237.298 44.0738 237.3 47.0001L237.5 47L237.7 47.0001C237.702 44.0738 240.074 41.7021 243 41.7L243 41.5L243 41.3C240.074 41.2979 237.702 38.9262 237.7 35.9999L237.5 36L237.3 35.9999C237.298 38.9262 234.926 41.2979 232 41.3Z" fill="#276692" stroke="white" stroke-width="0.4"/>
<defs>
<filter id="filter0_d_11_159" x="0.15625" y="0.920013" width="398.889" height="53.28" filterUnits="userSpaceOnUse" color-interpolation-filters="sRGB">
<feFlood flood-opacity="0" result="BackgroundImageFix"/>
<feColorMatrix in="SourceAlpha" type="matrix" values="0 0 0 0 0 0 0 0 0 0 0 0 0 0 0 0 0 0 127 0" result="hardAlpha"/>
<feOffset dy="1"/>
<feGaussianBlur stdDeviation="1"/>
<feComposite in2="hardAlpha" operator="out"/>
<feColorMatrix type="matrix" values="0 0 0 0 0 0 0 0 0 0 0 0 0 0 0 0 0 0 0.3 0"/>
<feBlend mode="normal" in2="BackgroundImageFix" result="effect1_dropShadow_11_159"/>
<feBlend mode="normal" in="SourceGraphic" in2="effect1_dropShadow_11_159" result="shape"/>
</filter>
</defs>
</svg>
