<svg width="201" height="96" viewBox="0 0 201 96" fill="none" xmlns="http://www.w3.org/2000/svg">
<g filter="url(#filter0_d_9_523)">
<path d="M38.9541 7.968L36.6021 15.906C36.6021 15.906 34.3341 5.028 23.9601 5.028C19.6341 5.028 12.2841 9.06 12.2841 19.938C12.2841 33.546 22.0701 38.796 28.7901 38.796C32.7381 38.754 37.1901 36.444 38.9541 33.882L38.7441 35.478C37.9461 36.486 34.0401 41.4 25.3041 41.4C15.8961 41.4 7.53809 33.252 7.53809 22.92C7.53809 12.714 13.8381 4.44 25.2201 4.44C29.2521 4.44 33.3681 6.456 36.3501 8.346C36.7281 8.556 37.1481 8.682 37.5261 8.682C38.0721 8.682 38.6181 8.472 38.9541 7.968ZM55.2439 14.058C63.0979 14.058 69.4399 20.19 69.4399 27.75C69.4399 35.31 63.0979 41.4 55.2439 41.4C47.4319 41.4 41.0479 35.31 41.0479 27.75C41.0479 20.19 47.4319 14.058 55.2439 14.058ZM55.2859 40.728C60.1999 40.728 64.1899 34.932 64.1899 27.75C64.1899 20.568 60.1999 14.73 55.2859 14.73C50.3719 14.73 46.3819 20.568 46.3819 27.75C46.3819 34.932 50.3719 40.728 55.2859 40.728ZM118.35 41.4H107.22C108.984 40.686 110.16 38.964 110.16 37.032V27.876C110.16 21.408 109.446 15.78 102.6 15.78C101.172 15.78 99.7855 16.41 98.5255 17.46C97.8115 18.006 97.2655 18.678 96.8035 19.434C96.7195 19.56 96.6775 19.686 96.6775 19.854C96.6775 19.938 96.6775 20.064 96.7195 20.148C97.3915 22.29 97.4755 24.642 97.4755 26.574V37.074C97.4755 37.998 97.7695 38.922 98.2735 39.636C98.7775 40.434 99.5335 41.022 100.416 41.4H89.2855C91.0495 40.686 92.2255 38.964 92.2255 37.032V27.876C92.2255 21.408 92.0995 15.78 85.2115 15.78C83.7415 15.78 82.5655 16.536 81.7255 17.46C80.4655 18.804 79.8355 20.61 79.8355 22.5V37.032C79.8355 37.998 80.1295 38.88 80.6335 39.636C81.1375 40.434 81.8935 41.022 82.7755 41.4H71.6455C73.4095 40.686 74.5855 38.964 74.5855 37.032V20.526C74.5855 18.93 73.2835 17.586 71.6455 17.586L79.8355 14.478V19.77C80.8855 16.62 83.4475 14.1 87.7315 14.1C92.6455 14.1 95.0815 16.284 96.2995 19.056C98.2315 15.99 101.55 14.1 105.624 14.1C114.822 14.1 115.368 21.702 115.368 26.574V37.074C115.41 37.998 115.704 38.922 116.208 39.636C116.712 40.434 117.426 41.022 118.35 41.4ZM122.694 37.2V21.324C122.694 19.77 121.434 18.468 119.88 18.468L127.734 15.486V37.2C127.734 38.124 128.028 39.006 128.532 39.72C129.036 40.476 129.75 41.064 130.59 41.4H119.88C121.602 40.728 122.694 39.048 122.694 37.2ZM128.28 7.884C128.28 9.774 126.726 11.328 124.836 11.328C122.946 11.328 121.392 9.774 121.392 7.884C121.392 5.994 122.946 4.44 124.836 4.44C126.726 4.44 128.28 5.994 128.28 7.884ZM163.801 41.4H152.671C154.435 40.686 155.611 38.964 155.611 37.032V27.876C155.611 21.408 154.897 15.78 148.051 15.78C146.665 15.78 145.237 16.41 143.977 17.46C141.877 19.182 140.785 21.828 140.785 24.516V37.032C140.785 37.998 141.079 38.922 141.583 39.678C142.087 40.434 142.843 41.022 143.725 41.4H132.595C134.401 40.686 135.535 38.964 135.535 37.032V20.568C135.535 18.93 134.233 17.628 132.595 17.628L140.785 14.478V21.03C142.381 16.83 146.161 14.1 151.075 14.1C160.273 14.1 160.861 21.702 160.861 26.574V37.074C160.861 37.998 161.155 38.922 161.659 39.678C162.163 40.434 162.877 41.022 163.801 41.4ZM169.776 39.174C169.776 39.93 171.33 40.098 173.64 40.098C174.984 40.098 176.538 40.056 178.218 40.056C184.266 40.056 191.364 40.686 191.364 46.65C191.364 51.522 186.072 53.874 178.764 53.874C169.86 53.874 165.366 49.212 165.366 49.212L168.6 44.466C168.6 44.466 171.288 52.782 179.478 52.782C183.888 52.782 188.088 51.984 188.088 48.876C188.088 43.71 165.786 46.104 165.786 40.434C165.786 36.738 175.236 35.688 178.386 35.688C171.204 35.688 165.366 30.858 165.366 24.894C165.366 18.93 171.204 14.1 178.386 14.1C178.764 14.1 179.142 14.1 179.52 14.142C179.73 13.89 183.51 9.06 189.096 9.06C189.768 10.866 190.734 13.134 190.818 13.26C190.65 13.218 188.634 12.378 186.114 12.378C184.35 12.378 182.292 12.798 180.528 14.226C186.702 15.066 191.364 19.518 191.364 24.894C191.364 30.27 186.618 34.764 180.36 35.562H180.066C178.302 35.772 169.776 36.696 169.776 39.174ZM170.49 24.852C170.49 30.48 174.018 35.016 178.386 35.016C182.712 35.016 186.24 30.48 186.24 24.852C186.24 19.266 182.712 14.73 178.386 14.73C174.018 14.73 170.49 19.266 170.49 24.852ZM43.3241 52.16C43.3241 60.35 64.2401 63.626 64.2401 73.58C64.2401 78.662 59.5361 82.4 51.9761 82.4C47.1041 82.4 44.2901 80.846 41.2661 77.738C40.9301 77.444 40.5521 77.234 40.2161 77.234C39.9221 77.234 39.6281 77.36 39.3761 77.612L40.5521 71.648C40.5521 71.648 43.8701 81.56 51.9341 81.56C56.4701 81.56 60.8801 79.082 60.8801 75.68C60.8801 68.792 38.9561 63.92 38.9561 54.638C38.9561 49.136 43.4501 45.44 52.0181 45.44C55.7981 45.44 58.6961 46.784 60.5861 48.422C60.8801 48.716 61.2581 48.842 61.6361 48.842C62.0561 48.842 62.4761 48.674 62.7701 48.38L62.1401 53.966C62.1401 53.966 58.7801 46.07 51.1781 46.07C45.6761 46.07 43.3241 48.968 43.3241 52.16ZM81.4528 55.058C89.3068 55.058 95.6488 61.19 95.6488 68.75C95.6488 76.31 89.3068 82.4 81.4528 82.4C73.6408 82.4 67.2568 76.31 67.2568 68.75C67.2568 61.19 73.6408 55.058 81.4528 55.058ZM81.4948 81.728C86.4088 81.728 90.3988 75.932 90.3988 68.75C90.3988 61.568 86.4088 55.73 81.4948 55.73C76.5808 55.73 72.5908 61.568 72.5908 68.75C72.5908 75.932 76.5808 81.728 81.4948 81.728ZM113.076 55.058C120.93 55.058 127.272 61.19 127.272 68.75C127.272 76.31 120.93 82.4 113.076 82.4C105.264 82.4 98.8799 76.31 98.8799 68.75C98.8799 61.19 105.264 55.058 113.076 55.058ZM113.118 81.728C118.032 81.728 122.022 75.932 122.022 68.75C122.022 61.568 118.032 55.73 113.118 55.73C108.204 55.73 104.214 61.568 104.214 68.75C104.214 75.932 108.204 81.728 113.118 81.728ZM159.945 82.4H148.815C150.579 81.686 151.755 79.964 151.755 78.032V68.876C151.755 62.408 151.041 56.78 144.195 56.78C142.809 56.78 141.381 57.41 140.121 58.46C138.021 60.182 136.929 62.828 136.929 65.516V78.032C136.929 78.998 137.223 79.922 137.727 80.678C138.231 81.434 138.987 82.022 139.869 82.4H128.739C130.545 81.686 131.679 79.964 131.679 78.032V61.568C131.679 59.93 130.377 58.628 128.739 58.628L136.929 55.478V62.03C138.525 57.83 142.305 55.1 147.219 55.1C156.417 55.1 157.005 62.702 157.005 67.574V78.074C157.005 78.998 157.299 79.922 157.803 80.678C158.307 81.434 159.021 82.022 159.945 82.4Z" fill="#276692"/>
</g>
<path d="M22.0004 6.5V5.5C18.9635 5.49785 16.5021 3.03652 16.5 -0.000353806H15.5C15.4979 3.03652 13.0365 5.49785 9.99965 5.5V6.5C13.0365 6.50215 15.4979 8.96348 15.5 12.0004H16.5C16.5021 8.96348 18.9635 6.50215 22.0004 6.5Z" fill="#276692" stroke="white"/>
<path d="M162 59.7V59.3C159.626 59.2983 157.702 57.3741 157.7 54.9999H157.3C157.298 57.3741 155.374 59.2983 153 59.3V59.7C155.374 59.7017 157.298 61.6259 157.3 64.0001H157.7C157.702 61.6259 159.626 59.7017 162 59.7Z" fill="#276692" stroke="white" stroke-width="0.4"/>
<path d="M45.0001 75.7V75.3C42.6259 75.2983 40.7017 73.3741 40.7 70.9999H40.3C40.2983 73.3741 38.3741 75.2983 35.9999 75.3V75.7C38.3741 75.7017 40.2983 77.6259 40.3 80.0001H40.7C40.7017 77.6259 42.6259 75.7017 45.0001 75.7Z" fill="#276692" stroke="white" stroke-width="0.4"/>
<defs>
<filter id="filter0_d_9_523" x="5.53809" y="3.44" width="187.826" height="81.96" filterUnits="userSpaceOnUse" color-interpolation-filters="sRGB">
<feFlood flood-opacity="0" result="BackgroundImageFix"/>
<feColorMatrix in="SourceAlpha" type="matrix" values="0 0 0 0 0 0 0 0 0 0 0 0 0 0 0 0 0 0 127 0" result="hardAlpha"/>
<feOffset dy="1"/>
<feGaussianBlur stdDeviation="1"/>
<feComposite in2="hardAlpha" operator="out"/>
<feColorMatrix type="matrix" values="0 0 0 0 0 0 0 0 0 0 0 0 0 0 0 0 0 0 0.3 0"/>
<feBlend mode="normal" in2="BackgroundImageFix" result="effect1_dropShadow_9_523"/>
<feBlend mode="normal" in="SourceGraphic" in2="effect1_dropShadow_9_523" result="shape"/>
</filter>
</defs>
</svg>
