<svg width="146" height="146" viewBox="0 0 146 146" fill="none" xmlns="http://www.w3.org/2000/svg">
<path d="M5.84 0H0V5.84H5.84V0Z" fill="black"/>
<path d="M11.68 0H5.84V5.84H11.68V0Z" fill="black"/>
<path d="M17.52 0H11.68V5.84H17.52V0Z" fill="black"/>
<path d="M23.36 0H17.52V5.84H23.36V0Z" fill="black"/>
<path d="M29.2 0H23.36V5.84H29.2V0Z" fill="black"/>
<path d="M35.04 0H29.2V5.84H35.04V0Z" fill="black"/>
<path d="M40.88 0H35.04V5.84H40.88V0Z" fill="black"/>
<path d="M52.56 0H46.72V5.84H52.56V0Z" fill="black"/>
<path d="M64.24 0H58.4V5.84H64.24V0Z" fill="black"/>
<path d="M70.08 0H64.24V5.84H70.08V0Z" fill="black"/>
<path d="M81.76 0H75.92V5.84H81.76V0Z" fill="black"/>
<path d="M87.6 0H81.76V5.84H87.6V0Z" fill="black"/>
<path d="M93.44 0H87.6V5.84H93.44V0Z" fill="black"/>
<path d="M99.28 0H93.44V5.84H99.28V0Z" fill="black"/>
<path d="M110.96 0H105.12V5.84H110.96V0Z" fill="black"/>
<path d="M116.8 0H110.96V5.84H116.8V0Z" fill="black"/>
<path d="M122.64 0H116.8V5.84H122.64V0Z" fill="black"/>
<path d="M128.48 0H122.64V5.84H128.48V0Z" fill="black"/>
<path d="M134.32 0H128.48V5.84H134.32V0Z" fill="black"/>
<path d="M140.16 0H134.32V5.84H140.16V0Z" fill="black"/>
<path d="M146 0H140.16V5.84H146V0Z" fill="black"/>
<path d="M5.84 5.84H0V11.68H5.84V5.84Z" fill="black"/>
<path d="M40.88 5.84H35.04L35.04 11.68H40.88V5.84Z" fill="black"/>
<path d="M64.24 5.84H58.4V11.68H64.24V5.84Z" fill="black"/>
<path d="M70.08 5.84H64.24V11.68H70.08V5.84Z" fill="black"/>
<path d="M87.6 5.84H81.76V11.68H87.6V5.84Z" fill="black"/>
<path d="M110.96 5.84H105.12V11.68H110.96V5.84Z" fill="black"/>
<path d="M146 5.84H140.16V11.68H146V5.84Z" fill="black"/>
<path d="M5.84 11.68H0V17.52H5.84V11.68Z" fill="black"/>
<path d="M17.52 11.68H11.68V17.52H17.52V11.68Z" fill="black"/>
<path d="M23.36 11.68H17.52V17.52H23.36V11.68Z" fill="black"/>
<path d="M29.2 11.68H23.36V17.52H29.2V11.68Z" fill="black"/>
<path d="M40.88 11.68H35.04V17.52H40.88V11.68Z" fill="black"/>
<path d="M75.92 11.68H70.08V17.52H75.92V11.68Z" fill="black"/>
<path d="M110.96 11.68H105.12V17.52H110.96V11.68Z" fill="black"/>
<path d="M122.64 11.68H116.8V17.52H122.64V11.68Z" fill="black"/>
<path d="M128.48 11.68H122.64V17.52H128.48V11.68Z" fill="black"/>
<path d="M134.32 11.68H128.48V17.52H134.32V11.68Z" fill="black"/>
<path d="M146 11.68H140.16V17.52H146V11.68Z" fill="black"/>
<path d="M5.84 17.52H0V23.36H5.84V17.52Z" fill="black"/>
<path d="M17.52 17.52H11.68V23.36H17.52V17.52Z" fill="black"/>
<path d="M23.36 17.52H17.52V23.36H23.36V17.52Z" fill="black"/>
<path d="M29.2 17.52H23.36V23.36H29.2V17.52Z" fill="black"/>
<path d="M40.88 17.52H35.04V23.36H40.88V17.52Z" fill="black"/>
<path d="M52.56 17.52H46.72V23.36H52.56V17.52Z" fill="black"/>
<path d="M93.44 17.52H87.6V23.36H93.44V17.52Z" fill="black"/>
<path d="M110.96 17.52H105.12V23.36H110.96V17.52Z" fill="black"/>
<path d="M122.64 17.52H116.8V23.36H122.64V17.52Z" fill="black"/>
<path d="M128.48 17.52H122.64V23.36H128.48V17.52Z" fill="black"/>
<path d="M134.32 17.52H128.48V23.36H134.32V17.52Z" fill="black"/>
<path d="M146 17.52H140.16V23.36H146V17.52Z" fill="black"/>
<path d="M5.84 23.36H0V29.2H5.84V23.36Z" fill="black"/>
<path d="M17.52 23.36H11.68V29.2H17.52V23.36Z" fill="black"/>
<path d="M23.36 23.36H17.52V29.2H23.36V23.36Z" fill="black"/>
<path d="M29.2 23.36H23.36V29.2H29.2V23.36Z" fill="black"/>
<path d="M40.88 23.36H35.04V29.2H40.88V23.36Z" fill="black"/>
<path d="M52.56 23.36H46.72V29.2H52.56V23.36Z" fill="black"/>
<path d="M58.4 23.36H52.56V29.2H58.4V23.36Z" fill="black"/>
<path d="M64.24 23.36H58.4V29.2H64.24V23.36Z" fill="black"/>
<path d="M70.08 23.36H64.24V29.2H70.08V23.36Z" fill="black"/>
<path d="M75.92 23.36H70.08V29.2H75.92V23.36Z" fill="black"/>
<path d="M93.44 23.36H87.6V29.2H93.44V23.36Z" fill="black"/>
<path d="M99.28 23.36H93.44V29.2H99.28V23.36Z" fill="black"/>
<path d="M110.96 23.36H105.12V29.2H110.96V23.36Z" fill="black"/>
<path d="M122.64 23.36H116.8V29.2H122.64V23.36Z" fill="black"/>
<path d="M128.48 23.36H122.64V29.2H128.48V23.36Z" fill="black"/>
<path d="M134.32 23.36H128.48V29.2H134.32V23.36Z" fill="black"/>
<path d="M146 23.36H140.16V29.2H146V23.36Z" fill="black"/>
<path d="M5.84 29.2H0V35.04H5.84V29.2Z" fill="black"/>
<path d="M40.88 29.2H35.04V35.04H40.88V29.2Z" fill="black"/>
<path d="M52.56 29.2H46.72V35.04H52.56V29.2Z" fill="black"/>
<path d="M87.6 29.2H81.76V35.04H87.6L87.6 29.2Z" fill="black"/>
<path d="M99.28 29.2H93.44V35.04H99.28V29.2Z" fill="black"/>
<path d="M110.96 29.2H105.12V35.04H110.96V29.2Z" fill="black"/>
<path d="M146 29.2H140.16V35.04H146V29.2Z" fill="black"/>
<path d="M5.84 35.04H0V40.88H5.84V35.04Z" fill="black"/>
<path d="M11.68 35.04L5.84 35.04V40.88H11.68V35.04Z" fill="black"/>
<path d="M17.52 35.04H11.68V40.88H17.52V35.04Z" fill="black"/>
<path d="M23.36 35.04H17.52V40.88H23.36V35.04Z" fill="black"/>
<path d="M29.2 35.04H23.36V40.88H29.2V35.04Z" fill="black"/>
<path d="M35.04 35.04L29.2 35.04V40.88H35.04L35.04 35.04Z" fill="black"/>
<path d="M40.88 35.04H35.04L35.04 40.88H40.88V35.04Z" fill="black"/>
<path d="M52.56 35.04H46.72V40.88H52.56V35.04Z" fill="black"/>
<path d="M64.24 35.04H58.4V40.88H64.24V35.04Z" fill="black"/>
<path d="M75.92 35.04H70.08V40.88H75.92V35.04Z" fill="black"/>
<path d="M87.6 35.04H81.76V40.88H87.6V35.04Z" fill="black"/>
<path d="M99.28 35.04H93.44V40.88H99.28V35.04Z" fill="black"/>
<path d="M110.96 35.04H105.12V40.88H110.96V35.04Z" fill="black"/>
<path d="M116.8 35.04L110.96 35.04V40.88H116.8V35.04Z" fill="black"/>
<path d="M122.64 35.04H116.8V40.88H122.64V35.04Z" fill="black"/>
<path d="M128.48 35.04H122.64V40.88H128.48V35.04Z" fill="black"/>
<path d="M134.32 35.04H128.48V40.88H134.32V35.04Z" fill="black"/>
<path d="M140.16 35.04L134.32 35.04V40.88H140.16V35.04Z" fill="black"/>
<path d="M146 35.04H140.16V40.88H146V35.04Z" fill="black"/>
<path d="M52.56 40.88H46.72V46.72H52.56V40.88Z" fill="black"/>
<path d="M64.24 40.88H58.4V46.72H64.24V40.88Z" fill="black"/>
<path d="M75.92 40.88H70.08V46.72H75.92V40.88Z" fill="black"/>
<path d="M99.28 40.88H93.44V46.72H99.28V40.88Z" fill="black"/>
<path d="M5.84 46.72H0V52.56H5.84V46.72Z" fill="black"/>
<path d="M11.68 46.72H5.84V52.56H11.68V46.72Z" fill="black"/>
<path d="M17.52 46.72H11.68V52.56H17.52V46.72Z" fill="black"/>
<path d="M29.2 46.72H23.36V52.56H29.2V46.72Z" fill="black"/>
<path d="M40.88 46.72H35.04V52.56H40.88V46.72Z" fill="black"/>
<path d="M52.56 46.72H46.72V52.56H52.56V46.72Z" fill="black"/>
<path d="M58.4 46.72H52.56V52.56H58.4V46.72Z" fill="black"/>
<path d="M70.08 46.72H64.24V52.56H70.08V46.72Z" fill="black"/>
<path d="M87.6 46.72H81.76V52.56H87.6V46.72Z" fill="black"/>
<path d="M93.44 46.72H87.6V52.56H93.44V46.72Z" fill="black"/>
<path d="M105.12 46.72H99.28V52.56H105.12V46.72Z" fill="black"/>
<path d="M110.96 46.72H105.12V52.56H110.96V46.72Z" fill="black"/>
<path d="M116.8 46.72H110.96V52.56H116.8V46.72Z" fill="black"/>
<path d="M122.64 46.72H116.8V52.56H122.64V46.72Z" fill="black"/>
<path d="M128.48 46.72H122.64V52.56H128.48V46.72Z" fill="black"/>
<path d="M146 46.72H140.16V52.56H146V46.72Z" fill="black"/>
<path d="M17.52 52.56H11.68V58.4H17.52V52.56Z" fill="black"/>
<path d="M29.2 52.56H23.36V58.4H29.2V52.56Z" fill="black"/>
<path d="M35.04 52.56H29.2V58.4H35.04L35.04 52.56Z" fill="black"/>
<path d="M52.56 52.56H46.72V58.4H52.56V52.56Z" fill="black"/>
<path d="M58.4 52.56H52.56V58.4H58.4V52.56Z" fill="black"/>
<path d="M70.08 52.56H64.24V58.4H70.08V52.56Z" fill="black"/>
<path d="M75.92 52.56H70.08V58.4H75.92V52.56Z" fill="black"/>
<path d="M81.76 52.56H75.92V58.4H81.76V52.56Z" fill="black"/>
<path d="M87.6 52.56H81.76V58.4H87.6V52.56Z" fill="black"/>
<path d="M99.28 52.56H93.44V58.4H99.28V52.56Z" fill="black"/>
<path d="M105.12 52.56H99.28V58.4H105.12V52.56Z" fill="black"/>
<path d="M110.96 52.56H105.12V58.4H110.96V52.56Z" fill="black"/>
<path d="M146 52.56H140.16V58.4H146V52.56Z" fill="black"/>
<path d="M5.84 58.4H0V64.24H5.84V58.4Z" fill="black"/>
<path d="M23.36 58.4H17.52V64.24H23.36V58.4Z" fill="black"/>
<path d="M40.88 58.4H35.04L35.04 64.24H40.88V58.4Z" fill="black"/>
<path d="M58.4 58.4H52.56V64.24H58.4V58.4Z" fill="black"/>
<path d="M93.44 58.4H87.6L87.6 64.24H93.44V58.4Z" fill="black"/>
<path d="M110.96 58.4H105.12V64.24H110.96V58.4Z" fill="black"/>
<path d="M128.48 58.4H122.64V64.24H128.48V58.4Z" fill="black"/>
<path d="M134.32 58.4H128.48V64.24H134.32V58.4Z" fill="black"/>
<path d="M140.16 58.4H134.32V64.24H140.16V58.4Z" fill="black"/>
<path d="M5.84 64.24H0V70.08H5.84V64.24Z" fill="black"/>
<path d="M23.36 64.24H17.52V70.08H23.36V64.24Z" fill="black"/>
<path d="M29.2 64.24H23.36V70.08H29.2V64.24Z" fill="black"/>
<path d="M46.72 64.24H40.88V70.08H46.72V64.24Z" fill="black"/>
<path d="M64.24 64.24H58.4V70.08H64.24V64.24Z" fill="black"/>
<path d="M70.08 64.24H64.24V70.08H70.08V64.24Z" fill="black"/>
<path d="M75.92 64.24H70.08V70.08H75.92V64.24Z" fill="black"/>
<path d="M87.6 64.24H81.76V70.08H87.6L87.6 64.24Z" fill="black"/>
<path d="M93.44 64.24H87.6L87.6 70.08H93.44V64.24Z" fill="black"/>
<path d="M105.12 64.24H99.28V70.08H105.12V64.24Z" fill="black"/>
<path d="M110.96 64.24H105.12V70.08H110.96V64.24Z" fill="black"/>
<path d="M5.84 70.08H0V75.92H5.84V70.08Z" fill="black"/>
<path d="M17.52 70.08H11.68V75.92H17.52V70.08Z" fill="black"/>
<path d="M29.2 70.08H23.36V75.92H29.2V70.08Z" fill="black"/>
<path d="M35.04 70.08H29.2V75.92H35.04V70.08Z" fill="black"/>
<path d="M40.88 70.08H35.04V75.92H40.88V70.08Z" fill="black"/>
<path d="M46.72 70.08H40.88V75.92H46.72V70.08Z" fill="black"/>
<path d="M70.08 70.08H64.24V75.92H70.08V70.08Z" fill="black"/>
<path d="M75.92 70.08H70.08V75.92H75.92V70.08Z" fill="black"/>
<path d="M87.6 70.08H81.76V75.92H87.6V70.08Z" fill="black"/>
<path d="M105.12 70.08H99.28V75.92H105.12V70.08Z" fill="black"/>
<path d="M116.8 70.08H110.96V75.92H116.8V70.08Z" fill="black"/>
<path d="M122.64 70.08H116.8V75.92H122.64V70.08Z" fill="black"/>
<path d="M134.32 70.08H128.48V75.92H134.32V70.08Z" fill="black"/>
<path d="M5.84 75.92H0V81.76H5.84V75.92Z" fill="black"/>
<path d="M11.68 75.92H5.84V81.76H11.68V75.92Z" fill="black"/>
<path d="M17.52 75.92H11.68V81.76H17.52V75.92Z" fill="black"/>
<path d="M23.36 75.92H17.52V81.76H23.36V75.92Z" fill="black"/>
<path d="M29.2 75.92H23.36V81.76H29.2V75.92Z" fill="black"/>
<path d="M35.04 75.92H29.2V81.76H35.04V75.92Z" fill="black"/>
<path d="M46.72 75.92H40.88V81.76H46.72V75.92Z" fill="black"/>
<path d="M58.4 75.92H52.56V81.76H58.4V75.92Z" fill="black"/>
<path d="M105.12 75.92H99.28V81.76H105.12V75.92Z" fill="black"/>
<path d="M122.64 75.92H116.8V81.76H122.64V75.92Z" fill="black"/>
<path d="M146 75.92H140.16V81.76H146V75.92Z" fill="black"/>
<path d="M5.84 81.76H0V87.6H5.84V81.76Z" fill="black"/>
<path d="M11.68 81.76H5.84V87.6H11.68V81.76Z" fill="black"/>
<path d="M17.52 81.76H11.68V87.6H17.52V81.76Z" fill="black"/>
<path d="M23.36 81.76H17.52V87.6H23.36V81.76Z" fill="black"/>
<path d="M29.2 81.76H23.36V87.6H29.2V81.76Z" fill="black"/>
<path d="M35.04 81.76H29.2V87.6H35.04V81.76Z" fill="black"/>
<path d="M40.88 81.76H35.04V87.6H40.88V81.76Z" fill="black"/>
<path d="M46.72 81.76H40.88V87.6H46.72V81.76Z" fill="black"/>
<path d="M52.56 81.76H46.72V87.6H52.56V81.76Z" fill="black"/>
<path d="M58.4 81.76H52.56V87.6H58.4V81.76Z" fill="black"/>
<path d="M64.24 81.76H58.4V87.6H64.24V81.76Z" fill="black"/>
<path d="M70.08 81.76H64.24V87.6H70.08V81.76Z" fill="black"/>
<path d="M81.76 81.76H75.92V87.6H81.76V81.76Z" fill="black"/>
<path d="M87.6 81.76H81.76V87.6H87.6V81.76Z" fill="black"/>
<path d="M93.44 81.76H87.6V87.6H93.44V81.76Z" fill="black"/>
<path d="M99.28 81.76H93.44V87.6H99.28V81.76Z" fill="black"/>
<path d="M116.8 81.76H110.96V87.6H116.8V81.76Z" fill="black"/>
<path d="M122.64 81.76H116.8V87.6H122.64V81.76Z" fill="black"/>
<path d="M128.48 81.76H122.64V87.6H128.48V81.76Z" fill="black"/>
<path d="M134.32 81.76H128.48V87.6H134.32V81.76Z" fill="black"/>
<path d="M140.16 81.76H134.32V87.6H140.16V81.76Z" fill="black"/>
<path d="M146 81.76H140.16V87.6H146V81.76Z" fill="black"/>
<path d="M17.52 87.6H11.68V93.44H17.52V87.6Z" fill="black"/>
<path d="M23.36 87.6H17.52V93.44H23.36V87.6Z" fill="black"/>
<path d="M52.56 87.6H46.72V93.44H52.56V87.6Z" fill="black"/>
<path d="M58.4 87.6H52.56V93.44H58.4V87.6Z" fill="black"/>
<path d="M64.24 87.6H58.4V93.44H64.24V87.6Z" fill="black"/>
<path d="M81.76 87.6H75.92V93.44H81.76V87.6Z" fill="black"/>
<path d="M87.6 87.6H81.76V93.44H87.6V87.6Z" fill="black"/>
<path d="M99.28 87.6H93.44V93.44H99.28V87.6Z" fill="black"/>
<path d="M116.8 87.6H110.96V93.44H116.8V87.6Z" fill="black"/>
<path d="M122.64 87.6H116.8V93.44H122.64V87.6Z" fill="black"/>
<path d="M128.48 87.6H122.64V93.44H128.48V87.6Z" fill="black"/>
<path d="M134.32 87.6H128.48V93.44H134.32V87.6Z" fill="black"/>
<path d="M11.68 93.44H5.84V99.28H11.68V93.44Z" fill="black"/>
<path d="M23.36 93.44H17.52V99.28H23.36V93.44Z" fill="black"/>
<path d="M29.2 93.44H23.36V99.28H29.2V93.44Z" fill="black"/>
<path d="M40.88 93.44H35.04V99.28H40.88V93.44Z" fill="black"/>
<path d="M52.56 93.44H46.72V99.28H52.56V93.44Z" fill="black"/>
<path d="M75.92 93.44H70.08V99.28H75.92V93.44Z" fill="black"/>
<path d="M81.76 93.44H75.92V99.28H81.76V93.44Z" fill="black"/>
<path d="M93.44 93.44H87.6L87.6 99.28H93.44V93.44Z" fill="black"/>
<path d="M99.28 93.44H93.44V99.28H99.28V93.44Z" fill="black"/>
<path d="M105.12 93.44H99.28V99.28H105.12V93.44Z" fill="black"/>
<path d="M110.96 93.44H105.12V99.28H110.96V93.44Z" fill="black"/>
<path d="M116.8 93.44H110.96V99.28H116.8V93.44Z" fill="black"/>
<path d="M122.64 93.44H116.8V99.28H122.64V93.44Z" fill="black"/>
<path d="M134.32 93.44H128.48V99.28H134.32V93.44Z" fill="black"/>
<path d="M146 93.44H140.16V99.28H146V93.44Z" fill="black"/>
<path d="M52.56 99.28H46.72V105.12H52.56V99.28Z" fill="black"/>
<path d="M87.6 99.28H81.76V105.12H87.6L87.6 99.28Z" fill="black"/>
<path d="M99.28 99.28H93.44V105.12H99.28V99.28Z" fill="black"/>
<path d="M122.64 99.28H116.8V105.12H122.64V99.28Z" fill="black"/>
<path d="M128.48 99.28H122.64V105.12H128.48V99.28Z" fill="black"/>
<path d="M134.32 99.28H128.48V105.12H134.32V99.28Z" fill="black"/>
<path d="M5.84 105.12H0V110.96H5.84V105.12Z" fill="black"/>
<path d="M11.68 105.12H5.84V110.96H11.68V105.12Z" fill="black"/>
<path d="M17.52 105.12H11.68V110.96H17.52V105.12Z" fill="black"/>
<path d="M23.36 105.12H17.52V110.96H23.36V105.12Z" fill="black"/>
<path d="M29.2 105.12H23.36V110.96H29.2V105.12Z" fill="black"/>
<path d="M35.04 105.12H29.2V110.96H35.04V105.12Z" fill="black"/>
<path d="M40.88 105.12H35.04V110.96H40.88V105.12Z" fill="black"/>
<path d="M75.92 105.12H70.08V110.96H75.92V105.12Z" fill="black"/>
<path d="M99.28 105.12H93.44V110.96H99.28V105.12Z" fill="black"/>
<path d="M110.96 105.12H105.12V110.96H110.96V105.12Z" fill="black"/>
<path d="M122.64 105.12H116.8V110.96H122.64V105.12Z" fill="black"/>
<path d="M128.48 105.12H122.64V110.96H128.48V105.12Z" fill="black"/>
<path d="M140.16 105.12H134.32V110.96H140.16V105.12Z" fill="black"/>
<path d="M146 105.12H140.16V110.96H146V105.12Z" fill="black"/>
<path d="M5.84 110.96H0V116.8H5.84V110.96Z" fill="black"/>
<path d="M40.88 110.96H35.04L35.04 116.8H40.88V110.96Z" fill="black"/>
<path d="M58.4 110.96H52.56V116.8H58.4V110.96Z" fill="black"/>
<path d="M99.28 110.96H93.44V116.8H99.28V110.96Z" fill="black"/>
<path d="M122.64 110.96H116.8V116.8H122.64V110.96Z" fill="black"/>
<path d="M134.32 110.96H128.48V116.8H134.32V110.96Z" fill="black"/>
<path d="M140.16 110.96H134.32V116.8H140.16V110.96Z" fill="black"/>
<path d="M5.84 116.8H0V122.64H5.84V116.8Z" fill="black"/>
<path d="M17.52 116.8H11.68V122.64H17.52V116.8Z" fill="black"/>
<path d="M23.36 116.8H17.52V122.64H23.36V116.8Z" fill="black"/>
<path d="M29.2 116.8H23.36V122.64H29.2V116.8Z" fill="black"/>
<path d="M40.88 116.8H35.04V122.64H40.88V116.8Z" fill="black"/>
<path d="M52.56 116.8H46.72V122.64H52.56V116.8Z" fill="black"/>
<path d="M58.4 116.8H52.56V122.64H58.4V116.8Z" fill="black"/>
<path d="M70.08 116.8H64.24V122.64H70.08V116.8Z" fill="black"/>
<path d="M81.76 116.8H75.92V122.64H81.76V116.8Z" fill="black"/>
<path d="M87.6 116.8H81.76V122.64H87.6V116.8Z" fill="black"/>
<path d="M93.44 116.8H87.6V122.64H93.44V116.8Z" fill="black"/>
<path d="M99.28 116.8H93.44V122.64H99.28V116.8Z" fill="black"/>
<path d="M105.12 116.8H99.28V122.64H105.12V116.8Z" fill="black"/>
<path d="M110.96 116.8H105.12V122.64H110.96V116.8Z" fill="black"/>
<path d="M116.8 116.8H110.96V122.64H116.8V116.8Z" fill="black"/>
<path d="M122.64 116.8H116.8V122.64H122.64V116.8Z" fill="black"/>
<path d="M128.48 116.8H122.64V122.64H128.48V116.8Z" fill="black"/>
<path d="M134.32 116.8H128.48V122.64H134.32V116.8Z" fill="black"/>
<path d="M140.16 116.8H134.32V122.64H140.16V116.8Z" fill="black"/>
<path d="M5.84 122.64H0V128.48H5.84V122.64Z" fill="black"/>
<path d="M17.52 122.64H11.68V128.48H17.52V122.64Z" fill="black"/>
<path d="M23.36 122.64H17.52V128.48H23.36V122.64Z" fill="black"/>
<path d="M29.2 122.64H23.36V128.48H29.2V122.64Z" fill="black"/>
<path d="M40.88 122.64H35.04V128.48H40.88V122.64Z" fill="black"/>
<path d="M58.4 122.64H52.56V128.48H58.4V122.64Z" fill="black"/>
<path d="M64.24 122.64H58.4V128.48H64.24V122.64Z" fill="black"/>
<path d="M70.08 122.64H64.24V128.48H70.08V122.64Z" fill="black"/>
<path d="M87.6 122.64H81.76V128.48H87.6V122.64Z" fill="black"/>
<path d="M110.96 122.64H105.12V128.48H110.96V122.64Z" fill="black"/>
<path d="M122.64 122.64H116.8V128.48H122.64V122.64Z" fill="black"/>
<path d="M128.48 122.64H122.64V128.48H128.48V122.64Z" fill="black"/>
<path d="M146 122.64H140.16V128.48H146V122.64Z" fill="black"/>
<path d="M5.84 128.48H0V134.32H5.84V128.48Z" fill="black"/>
<path d="M17.52 128.48H11.68V134.32H17.52V128.48Z" fill="black"/>
<path d="M23.36 128.48H17.52V134.32H23.36V128.48Z" fill="black"/>
<path d="M29.2 128.48H23.36V134.32H29.2V128.48Z" fill="black"/>
<path d="M40.88 128.48H35.04V134.32H40.88V128.48Z" fill="black"/>
<path d="M52.56 128.48H46.72V134.32H52.56V128.48Z" fill="black"/>
<path d="M58.4 128.48H52.56V134.32H58.4V128.48Z" fill="black"/>
<path d="M70.08 128.48H64.24V134.32H70.08V128.48Z" fill="black"/>
<path d="M87.6 128.48H81.76V134.32H87.6V128.48Z" fill="black"/>
<path d="M93.44 128.48H87.6V134.32H93.44V128.48Z" fill="black"/>
<path d="M99.28 128.48H93.44V134.32H99.28V128.48Z" fill="black"/>
<path d="M134.32 128.48H128.48V134.32H134.32V128.48Z" fill="black"/>
<path d="M140.16 128.48H134.32V134.32H140.16V128.48Z" fill="black"/>
<path d="M5.84 134.32H0V140.16H5.84V134.32Z" fill="black"/>
<path d="M40.88 134.32H35.04V140.16H40.88V134.32Z" fill="black"/>
<path d="M52.56 134.32H46.72V140.16H52.56V134.32Z" fill="black"/>
<path d="M58.4 134.32H52.56V140.16H58.4V134.32Z" fill="black"/>
<path d="M70.08 134.32H64.24V140.16H70.08V134.32Z" fill="black"/>
<path d="M81.76 134.32H75.92V140.16H81.76V134.32Z" fill="black"/>
<path d="M87.6 134.32H81.76V140.16H87.6V134.32Z" fill="black"/>
<path d="M99.28 134.32H93.44V140.16H99.28V134.32Z" fill="black"/>
<path d="M105.12 134.32H99.28V140.16H105.12V134.32Z" fill="black"/>
<path d="M116.8 134.32H110.96V140.16H116.8V134.32Z" fill="black"/>
<path d="M122.64 134.32H116.8V140.16H122.64V134.32Z" fill="black"/>
<path d="M128.48 134.32H122.64V140.16H128.48V134.32Z" fill="black"/>
<path d="M134.32 134.32H128.48V140.16H134.32V134.32Z" fill="black"/>
<path d="M140.16 134.32H134.32V140.16H140.16V134.32Z" fill="black"/>
<path d="M5.84 140.16H0V146H5.84V140.16Z" fill="black"/>
<path d="M11.68 140.16H5.84V146H11.68V140.16Z" fill="black"/>
<path d="M17.52 140.16H11.68V146H17.52V140.16Z" fill="black"/>
<path d="M23.36 140.16H17.52V146H23.36V140.16Z" fill="black"/>
<path d="M29.2 140.16H23.36V146H29.2V140.16Z" fill="black"/>
<path d="M35.04 140.16H29.2V146H35.04L35.04 140.16Z" fill="black"/>
<path d="M40.88 140.16H35.04L35.04 146H40.88V140.16Z" fill="black"/>
<path d="M52.56 140.16H46.72V146H52.56V140.16Z" fill="black"/>
<path d="M64.24 140.16H58.4V146H64.24V140.16Z" fill="black"/>
<path d="M70.08 140.16H64.24V146H70.08V140.16Z" fill="black"/>
<path d="M75.92 140.16H70.08V146H75.92V140.16Z" fill="black"/>
<path d="M87.6 140.16H81.76V146H87.6V140.16Z" fill="black"/>
<path d="M93.44 140.16H87.6V146H93.44V140.16Z" fill="black"/>
<path d="M110.96 140.16H105.12V146H110.96V140.16Z" fill="black"/>
<path d="M116.8 140.16H110.96V146H116.8V140.16Z" fill="black"/>
<path d="M122.64 140.16H116.8V146H122.64V140.16Z" fill="black"/>
<path d="M128.48 140.16H122.64V146H128.48V140.16Z" fill="black"/>
<path d="M134.32 140.16H128.48V146H134.32V140.16Z" fill="black"/>
<path d="M140.16 140.16H134.32V146H140.16V140.16Z" fill="black"/>
<path d="M146 140.16H140.16V146H146V140.16Z" fill="black"/>
</svg>
